<?xml version="1.0" encoding="UTF-8"?>
<svg width="128px" height="125px" viewBox="0 0 128 125" version="1.1" xmlns="http://www.w3.org/2000/svg" xmlns:xlink="http://www.w3.org/1999/xlink">
    <!-- Generator: Sketch 50.2 (55047) - http://www.bohemiancoding.com/sketch -->
    <title>illustration/student/white</title>
    <desc>Created with Sketch.</desc>
    <defs>
        <rect id="path-1" x="0" y="0" width="128" height="128"></rect>
    </defs>
    <g id="-Symbols" stroke="none" stroke-width="1" fill="none" fill-rule="evenodd">
        <g id="section/signup/header" transform="translate(-172.000000, -61.000000)">
            <g id="header">
                <g id="header/left">
                    <g id="Group" transform="translate(172.000000, 60.000000)">
                        <g id="illustration/student/128/white">
                            <mask id="mask-2" fill="white">
                                <use xlink:href="#path-1"></use>
                            </mask>
                            <g id="container"></g>
                            <g id="student" stroke-width="1" fill-rule="evenodd" mask="url(#mask-2)" stroke="#272C33" stroke-linecap="round" stroke-linejoin="round">
                                <g transform="translate(1.000000, 2.000000)" stroke-width="2">
                                    <path d="M16.2566636,122.727194 L110.106747,122.727194 C96.177727,117.315414 83.7468763,114.361813 72.8141946,113.866389 C70.9727583,113.782943 67.5566996,114.524113 62.5660185,116.089901 C58.2176993,114.530051 55.1537919,113.78888 53.3742963,113.866389 C42.3452319,114.346775 29.9726877,117.300377 16.2566636,122.727194 Z" id="torso"></path>
                                    <path d="M54.6648008,103.892277 L54.6649314,113.616599 L62.5075109,116.085679 L71.7019474,113.616599 L71.7020779,103.892277 C69.296143,105.116513 66.2312873,106.18312 62.5075109,107.092098 C59.9774098,106.373722 57.3631731,105.307115 54.6648008,103.892277 Z" id="neck"></path>
                                    <path d="M96.0962677,66.7252934 L98.6999865,66.8578407 C100.310082,66.9398057 101.588548,68.2422957 101.640529,69.8536376 C101.780969,74.2074187 100.782374,77.2984057 98.6447368,79.1265991 C95.3289474,82.1593259 92.8421053,81.8836235 91.4605263,81.0565162 C91.7368421,79.678004 92.8421053,77.196682 93.9473684,71.6826333 C95.2820208,70.0629892 95.9632931,68.4433451 95.9911853,66.823701 L95.9909262,66.8236966 C95.9918796,66.7683332 96.0375334,66.7242252 96.0928968,66.7251787 C96.094021,66.725198 96.0951448,66.7252363 96.0962677,66.7252934 Z" id="ear/right"></path>
                                    <path d="M29.2136075,66.7299356 L31.7916496,66.8578407 C33.4448198,66.9398599 34.7570532,68.2791804 34.8052825,69.9336812 C34.9309352,74.2453239 33.9315214,77.3096295 31.8070076,79.1265991 C28.4912182,82.1593259 25.97366,81.8836235 24.592081,81.0565162 C24.592081,79.9537064 25.97366,76.9209796 27.3552389,71.1312285 C28.3770986,69.3998315 28.9267517,67.9946271 29.0041981,66.9156151 L29.0039551,66.9155977 C29.0117491,66.8070082 29.1048724,66.7245409 29.2136075,66.7299356 Z" id="ear/left" transform="translate(29.703935, 74.169152) scale(-1, 1) translate(-29.703935, -74.169152) "></path>
                                    <path d="M32.0526316,71.1312285 C34.8157895,82.1593259 40.3421053,100.355687 62.4473684,106.972545 C79.3947368,103.664116 89.8947368,91.900812 93.9473684,71.6826333 C90.6315789,69.8446171 87.8058183,63.8769876 85.4700863,53.7797449 C70.7368421,71.1312285 58.0263158,69.4770138 40.8655942,53.7797449 C38.6842105,66.1685846 34.8157895,70.0284187 32.0526316,71.1312285 Z" id="face"></path>
                                    <path d="M29.8421053,57.3461067 C30.2968525,68.1699177 30.2968525,67.8450116 32.0526316,71.1312285 C37.8795487,68.4615727 39.2942115,60.3583041 40.8843789,53.8982108 C60.0885211,71.5948609 72.3518595,68.8033737 85.3455671,53.8982108 C87.3388832,60.3583041 89.0103828,68.8033737 93.9724616,71.5948609 C96.1578947,68.8033737 96.1578947,68.145888 96.1578947,57.3461067 C80.6601948,48.5063973 53.4865337,43.5916783 29.8421053,57.3461067 Z" id="hair"></path>
                                    <path d="M29.8421053,28.6730533 C51.9082441,7.89305919 79.9232597,16.3235227 96.1578947,28.7511331 C96.1578947,39.0194334 96.1578947,53.5201969 96.1578947,57.3461067 C76.7383455,46.5992311 50.4467902,45.3014911 29.8421053,57.3461067 C29.8421053,48.7772534 29.8421053,28.6730533 29.8421053,28.6730533 Z" id="hat/3"></path>
                                    <path d="M0.244800965,30.2386435 L62.4473684,7.7196682 L125.75265,30.239278 C125.804684,30.2577881 125.831861,30.3149756 125.81335,30.3670098 C125.803792,30.3938812 125.783213,30.4153924 125.756792,30.4261327 L96.1578947,42.4581751 C96.1578947,35.4737134 96.1578947,30.8786728 96.1578947,28.6730533 C80.6842105,17.093551 53.0526316,7.16826333 29.8421053,28.6730533 C29.8421053,30.1434663 29.8421053,34.7385069 29.8421053,42.4581751 L0.241183714,30.4253099 C0.190020894,30.404512 0.165405216,30.3461764 0.186203059,30.2950136 C0.196870238,30.2687722 0.218166075,30.2482861 0.244800965,30.2386435 Z" id="hat/2"></path>
                                    <path d="M0.0609767414,26.4415897 L62.409086,0.0162254545 C62.4335907,0.00583948292 62.4612247,0.00565043962 62.4858692,0.0157001831 L125.93776,25.8906482 C125.975397,25.9059963 126,25.9425987 126,25.9832451 L126,30.1855561 C126,30.2407846 125.955228,30.2855561 125.9,30.2855561 C125.88858,30.2855561 125.877244,30.2835999 125.866484,30.2797724 L62.4811803,7.73169612 C62.4593215,7.72392029 62.4354392,7.7239869 62.4136241,7.73188452 L0.134040575,30.2787417 C0.0821104194,30.2975418 0.0247722261,30.2706846 0.00597213571,30.2187544 C0.00202088613,30.2078402 -2.42719136e-15,30.1963213 -2.42861287e-15,30.1847138 L1.15185639e-15,26.5336613 C-2.79420409e-16,26.4935129 0.0240113942,26.457257 0.0609767414,26.4415897 Z" id="hat/1"></path>
                                </g>
                            </g>
                        </g>
                    </g>
                </g>
            </g>
        </g>
    </g>
</svg>