<svg xmlns="http://www.w3.org/2000/svg" xmlns:xlink="http://www.w3.org/1999/xlink" width="48" height="48" viewBox="0 0 48 48">
  <defs>
    <rect id="skins-a" width="48" height="48" rx="1"/>
  </defs>
  <g fill="none" fill-rule="evenodd">
    <mask id="skins-b" fill="#fff">
      <use xlink:href="#skins-a"/>
    </mask>
    <path stroke="#383B3D" stroke-linecap="round" stroke-linejoin="round" d="M9,9.56301856 L34.0759052,9.56301856 L31.7539051,11.7830419 L21.0465319,11.7830419 L21.0465319,13.2019848 L29.9690762,13.2019848 L27.1936832,15.7915092 L6,15.7915092 L6,12.5630186 C6,10.9061643 7.34314575,9.56301856 9,9.56301856 Z M6,15.8738551 L6,36 C6,37.6568542 7.34314575,39 9,39 L38.6814981,39 C40.3217122,39 41.6578648,37.6827191 41.6811946,36.042671 L42,13.6311892 M13.5572917,31.6116384 C12.7007499,30.8290883 15.3349194,32.5613955 17.423932,31.2420089 C19.5129446,29.9226224 19.0696712,26.1151874 19.0696712,27.8074469 C19.0696712,29.4997064 19.0696712,23.9765129 19.0696712,23.9765129 C19.0696712,23.9765129 22.5445133,21.8634556 23.3285098,22.279024 C23.8511742,22.5560696 25.742154,24.1598696 29.0014493,27.0904239 C29.7540183,28.6739738 28.2148746,30.5779909 24.384018,32.8024754 C18.637733,36.1392021 14.4138336,32.3941884 13.5572917,31.6116384 Z M25.00052,21.0435719 L28.4581593,18.0447014 L32.3329343,22.156432 L29.7421053,25.6387864 L25.00052,21.0435719 Z M29.8194514,17.0451661 C32.310175,19.5361933 33.5555368,20.7817069 33.5555368,20.7817069 C33.5555368,20.7817069 47.1241387,5.01443129 46.1890956,4.07927419 C45.2540524,3.14411709 36.3178609,10.768879 35.195275,11.8924626 C34.4468844,12.6415183 32.6549432,14.3590861 29.8194514,17.0451661 Z" mask="url(#skins-b)"/>
    <path stroke="#383B3D" stroke-linecap="round" stroke-linejoin="round" stroke-width=".5" d="M9.50460457,13.4883029 C8.94977679,13.4883029 8.5,13.0432061 8.5,12.4941514 C8.5,11.9450968 8.94977679,11.5 9.50460457,11.5 C10.0594324,11.5 10.5092091,11.9450968 10.5092091,12.4941514 C10.5092091,13.0432061 10.0594324,13.4883029 9.50460457,13.4883029 Z M12.5184183,13.4883029 C11.9635905,13.4883029 11.5138137,13.0432061 11.5138137,12.4941514 C11.5138137,11.9450968 11.9635905,11.5 12.5184183,11.5 C13.0732461,11.5 13.5230228,11.9450968 13.5230228,12.4941514 C13.5230228,13.0432061 13.0732461,13.4883029 12.5184183,13.4883029 Z M15.532232,13.4883029 C14.9774042,13.4883029 14.5276274,13.0432061 14.5276274,12.4941514 C14.5276274,11.9450968 14.9774042,11.5 15.532232,11.5 C16.0870598,11.5 16.5368366,11.9450968 16.5368366,12.4941514 C16.5368366,13.0432061 16.0870598,13.4883029 15.532232,13.4883029 Z" mask="url(#skins-b)"/>
  </g>
</svg>
