<svg xmlns="http://www.w3.org/2000/svg" width="828" height="196" viewBox="0 0 828 196">
  <g fill="none" fill-rule="evenodd">
    <polygon fill="#292B2C" fill-opacity=".2" stroke="#FFF" stroke-opacity=".2" points=".702 100.077 27.854 100.077 27.854 127.671 33.343 127.671 33.343 103.707 41.861 100.077 79.034 100.077 79.034 95.72 85.736 95.72 85.736 127.671 90.041 127.671 90.041 86.54 104.493 86.54 104.493 73.123 121.023 69.16 130.478 69.16 130.478 132.218 133.165 132.218 133.165 12.559 153.63 7.657 176.739 12.559 176.739 76.523 204.28 76.523 204.28 86.54 224.009 86.54 224.009 69.938 228.208 69.938 228.208 49.865 242.157 47.681 242.157 31.039 261.455 28.319 279.574 28.319 279.574 34.604 292.752 34.604 292.752 43.075 315.312 43.075 315.312 23.534 325.259 23.534 325.259 10.03 331.61 10.03 331.61 .686 356.215 .686 356.215 18.077 359.937 18.077 359.937 10.03 376.758 10.03 376.758 15.966 389.702 15.966 389.702 18.077 405.303 18.077 405.303 38.378 435.666 38.378 435.666 44.812 446.792 44.812 446.792 49.865 453.629 49.865 453.629 55.586 466.829 55.586 466.829 66.452 501.839 66.452 501.839 12.559 539.43 7.657 569.392 12.559 569.392 31.039 576.097 28.319 604.486 34.604 604.486 93.267 623.638 93.267 623.638 105.682 642.358 105.682 642.358 76.523 678.203 76.523 678.203 26.274 686.088 26.274 686.088 3.743 710.806 .686 720.813 .686 720.813 7.657 728.365 7.657 728.365 89.473 735.399 86.54 735.399 69.938 752.467 66.452 770.047 69.938 770.047 116.469 780.524 116.469 780.524 93.267 811.978 93.267 811.978 129.697 821 129.697 821 186.633 604.486 186.633 604.486 189 362.269 189 362.269 186.633 266.854 186.633 271.339 177.371 .702 177.371"/>
    <g stroke="#FFF" transform="translate(7 7)">
      <polygon fill="#292B2C" fill-opacity=".25" stroke-opacity=".5" points="0 99.391 27.152 99.391 27.152 126.984 32.641 126.984 32.641 103.02 41.159 99.391 78.331 99.391 78.331 95.033 85.034 95.033 85.034 126.984 89.339 126.984 89.339 85.854 103.791 85.854 103.791 72.437 120.321 68.474 129.776 68.474 129.776 131.532 132.462 131.532 132.462 11.873 152.928 6.971 176.037 11.873 176.037 75.837 203.577 75.837 203.577 85.854 223.306 85.854 223.306 69.251 227.505 69.251 227.505 49.179 241.455 46.994 241.455 30.353 260.753 27.632 278.872 27.632 278.872 33.918 292.05 33.918 292.05 42.388 314.61 42.388 314.61 22.847 324.557 22.847 324.557 9.344 330.907 9.344 330.907 0 355.513 0 355.513 17.391 359.234 17.391 359.234 9.344 376.056 9.344 376.056 15.279 389 15.279 389 17.391 404.601 17.391 404.601 37.691 434.963 37.691 434.963 44.126 446.09 44.126 446.09 49.179 452.926 49.179 452.926 54.9 466.127 54.9 466.127 65.766 501.137 65.766 501.137 11.873 538.728 6.971 568.689 11.873 568.689 30.353 575.395 27.632 603.784 33.918 603.784 92.58 622.935 92.58 622.935 104.996 641.656 104.996 641.656 75.837 677.501 75.837 677.501 25.588 685.386 25.588 685.386 3.057 710.103 0 720.111 0 720.111 6.971 727.663 6.971 727.663 88.787 734.697 85.854 734.697 69.251 751.765 65.766 769.345 69.251 769.345 115.783 779.822 115.783 779.822 92.58 811.276 92.58 811.276 129.011 820.298 129.011 820.298 185.946 603.784 185.946 603.784 188.314 361.567 188.314 361.567 185.946 266.152 185.946 270.636 176.685 0 176.685"/>
      <g transform="translate(131)">
        <g transform="translate(21)">
          <path d="M558.318359.19921875L558.318359 186.017578M533.479818 2.5L533.479818 185.972005M1.0546875 7L1.0546875 176.678223M24.0362549 12.5L24.0362549 176.678223"/>
          <polyline points="71.705 85.966 51.589 85.966 51.589 143.711 24.036 143.826"/>
          <polyline points="409.575 66.211 409.575 33.517 423.578 27.87"/>
          <path d="M387.258057,7 L387.258057,65.7397461"/>
        </g>
        <g stroke-opacity=".5" transform="translate(0 64)">
          <path d="M596.635091 24.7399089L596.635091 121.90918M1.54772949 67.6033936L1.54772949 112.678223M430.5 1.78369141L370.058594 1.78369141"/>
        </g>
      </g>
    </g>
    <g fill-rule="nonzero" transform="translate(334 90)">
      <polygon stroke="#FFF" points="0 32 0 0 64 0 64 64 0 64"/>
      <path fill="#FFF" d="M14.08,32.1227693 L14.08,34.74387 L22.4130639,34.74387 L22.4130639,58.5428207 L28.3263343,58.5428207 L28.3263343,34.74387 L36.6593982,34.74387 L36.6593982,32.1710104 C36.6593982,30.723777 36.6593982,29.5499098 36.5952977,29.517749 C36.5952977,29.4695079 31.5153337,29.4534276 25.3456614,29.4534276 L14.1280754,29.5016687 L14.1280754,32.1388497 L14.08,32.1227693 Z M51.5307123,29.4373472 C53.1652748,29.8232761 54.4152344,30.5629732 55.536993,31.7368404 C56.1299225,32.3800553 57.0113043,33.5056813 57.0754048,33.795128 C57.0754048,33.8916103 54.3030585,35.7730138 52.6204206,36.818238 C52.5563201,36.8664791 52.2999182,36.5931128 52.0435162,36.1750231 C51.2102098,34.9850756 50.3608783,34.4705036 49.0307931,34.3740214 C47.1077783,34.2453784 45.8257685,35.2584419 45.8257685,36.946881 C45.8257685,37.4614529 45.9219192,37.7508996 46.1142207,38.1689892 C46.546899,39.0534097 47.3481552,39.584062 49.8320492,40.6775273 C54.4152344,42.655413 56.4023496,43.9579232 57.6042339,45.8232463 C58.9663693,47.9136947 59.2708466,51.1940906 58.3574146,53.6543876 C57.3318068,56.3398097 54.8318876,58.1568917 51.2582852,58.7518655 C50.1365266,58.94483 47.5725069,58.9126692 46.3706227,58.7036244 C43.806603,58.2212132 41.3547592,56.9347835 39.8483977,55.2785051 C39.2554681,54.6352903 38.1176844,52.9146904 38.1817849,52.8021278 L38.7907395,52.4161989 L41.194508,51.0172065 L43.0053469,49.955902 L43.4220001,50.518715 C43.9508291,51.3548943 45.1366882,52.4805204 45.8257685,52.8664493 C47.9090345,53.9438343 50.6974059,53.7991109 52.0755664,52.5448419 C52.668496,51.9981092 52.924898,51.4192158 52.924898,50.6151972 C52.924898,49.8755001 52.8127221,49.5378123 52.4441443,48.9749993 C51.9313403,48.2674629 50.9057325,47.6885695 48.0212103,46.4021397 C44.7040099,44.987067 43.2937991,44.0865662 41.979739,42.7036542 C41.2265582,41.8674748 40.5374779,40.5649647 40.2169755,39.4875797 C39.9765986,38.5549182 39.896473,36.2715053 40.1208247,35.3549241 C40.809905,32.1388497 43.2296986,29.8875976 46.6911251,29.2443827 C47.8128838,29.0192575 50.457029,29.1157397 51.5627625,29.4051864 L51.5307123,29.4373472 Z"/>
    </g>
  </g>
</svg>
