<?xml version="1.0" encoding="UTF-8"?>
<svg width="70px" height="70px" viewBox="0 0 70 70" version="1.1" xmlns="http://www.w3.org/2000/svg" xmlns:xlink="http://www.w3.org/1999/xlink">
    <!-- Generator: Sketch 48.2 (47327) - http://www.bohemiancoding.com/sketch -->
    <title>001-rocket</title>
    <desc>Created with Sketch.</desc>
    <defs></defs>
    <g id="pricing-cards" stroke="none" stroke-width="1" fill="none" fill-rule="evenodd" transform="translate(-1665.000000, -229.000000)">
        <g id="card" transform="translate(1508.000000, 179.000000)" fill="#F66C7D" fill-rule="nonzero">
            <g id="001-rocket" transform="translate(157.000000, 50.000000)">
                <path d="M55.973538,34.2999626 L55.973538,23.6056577 C55.973538,20.1038588 54.6092008,16.811958 52.1335701,14.3351612 C51.6776249,13.879216 50.9406496,13.879216 50.4847044,14.3351612 C48.0090737,16.8131241 46.6447365,20.1050249 46.6447365,23.6068238 L46.6447365,34.6008164 C46.2855776,34.7104298 45.9369137,34.8445314 45.5870836,34.9751346 C44.9737149,33.4603704 44.5550849,31.8896335 44.3638445,30.2862457 L42.8105991,17.3425336 C42.23921,12.5790143 40.0562704,8.08719636 36.6640849,4.6950109 L32.3110329,0.341958881 C31.8550878,-0.113986294 31.1181124,-0.113986294 30.6621673,0.341958881 L26.3079491,4.696177 C22.9157637,8.08836246 20.7328241,12.5801804 20.161435,17.3436997 L18.6081896,30.2874118 C18.3131662,32.7513815 17.5132215,35.073087 16.3272976,37.1697351 L16.3272976,23.6068238 C16.3272976,20.1050249 14.9629604,16.8131241 12.4873297,14.3363273 C12.0313845,13.8803821 11.2944092,13.8803821 10.838464,14.3363273 C8.36166719,16.8131241 6.99732996,20.1050249 6.99732996,23.6068238 L6.99732996,46.1720286 C5.05110874,48.0319584 3.47104298,50.249881 2.3620817,52.7430032 L0.101013429,57.8330305 C-0.0599083974,58.1945216 -0.0249253916,58.6108194 0.188470944,58.9419918 C0.404199479,59.2731643 0.771521039,59.4725674 1.166829,59.4725674 L19.8244321,59.4725674 L25.654933,59.4725674 L25.654933,61.2543685 C25.654933,64.9159231 27.6886118,68.2066579 30.9641872,69.8450286 C31.1274412,69.9266556 31.3070207,69.9674691 31.485434,69.9674691 C31.6638473,69.9674691 31.8434268,69.9266556 32.0066808,69.8450286 C34.9265957,68.3850712 36.8494949,65.6074205 37.2343079,62.4274653 C40.5192122,66.9845848 45.8576189,69.9674691 51.8921874,69.9674691 C61.8588457,69.9674691 69.9667403,61.8595745 69.9667403,51.8929162 C69.9667403,43.3314086 63.9776497,36.1575602 55.973538,34.2999626 Z M48.9769369,23.6068238 C48.9769369,21.1440202 49.7978714,18.8071554 51.3091373,16.9087443 C52.8204031,18.8071554 53.6413376,21.1440202 53.6413376,23.6068238 L53.6413376,33.9069868 C53.5620428,33.8988241 53.4792497,33.9011563 53.3987888,33.8953258 C52.9568368,33.8556784 52.5218815,33.8346886 52.0915905,33.8288581 C52.0239567,33.827692 51.9598212,33.8183632 51.8921874,33.8183632 C51.8257196,33.8183632 51.7627502,33.827692 51.6962825,33.827692 C51.2041882,33.8323564 50.7132601,33.8533462 50.2211658,33.9023224 C49.9622915,33.9268105 49.7080817,33.967624 49.4515397,34.002607 C49.2941161,34.025929 49.1366926,34.0410883 48.9769369,34.0679086 L48.9769369,23.6068238 Z M9.32953035,23.6068238 C9.32953035,21.1440202 10.1504649,18.8071554 11.6617307,16.9087443 C13.1729966,18.8071554 13.9939311,21.1440202 13.9939311,23.6068238 L13.9939311,40.4068293 C12.8861359,41.6358989 11.6267477,42.7413619 10.1947767,43.6520861 C9.89858724,43.8409943 9.6152249,44.046228 9.32953035,44.2479633 L9.32953035,23.6068238 Z M20.9905323,57.140367 L20.9905323,51.3098661 L29.1532336,51.3098661 L33.8176344,51.3098661 L33.8269632,51.3098661 C33.8211327,51.5057709 33.8176344,51.7005096 33.8176344,51.8929162 C33.8176344,52.4444816 33.8514513,52.9913825 33.9004275,53.5371174 C33.9155868,53.7015376 33.9354105,53.8647916 33.9552342,54.0280456 C34.0018782,54.4210214 34.0613493,54.8104988 34.1348136,55.1988102 C34.1651322,55.3632303 34.1919525,55.5276505 34.2269355,55.6897384 C34.3318846,56.1771683 34.4519929,56.6610999 34.5977554,57.140367 L20.9905323,57.140367 Z M30.3193338,48.9776657 L30.3193338,46.6454653 C30.3193338,46.0029441 30.8417467,45.4793651 31.485434,45.4793651 C32.1291213,45.4793651 32.6515342,46.0029441 32.6515342,46.6454653 L32.6515342,48.9776657 L30.3193338,48.9776657 Z M34.9837346,61.2543685 C34.9837346,63.8267855 33.6578787,66.1578198 31.485434,67.4708486 C29.3129893,66.1578198 27.9871334,63.8267855 27.9871334,61.2532024 L27.9871334,59.4725674 L30.3193338,59.4725674 L30.3193338,61.8047678 L32.6515342,61.8047678 L32.6515342,59.4725674 L34.9837346,59.4725674 L34.9837346,61.2543685 Z M35.3685476,44.5989595 C35.2601003,44.8426744 35.163314,45.0922198 35.0653616,45.3417653 C35.0023922,45.5026871 34.9335923,45.6601106 34.8752873,45.8233647 C34.5021352,44.291109 33.1296353,43.1471647 31.485434,43.1471647 C29.5567043,43.1471647 27.9871334,44.7167356 27.9871334,46.6454653 L27.9871334,48.9776657 L19.8244321,48.9776657 C19.1795787,48.9776657 18.6583319,49.5000786 18.6583319,50.1437659 L18.6583319,57.140367 L2.9614572,57.140367 L4.49487895,53.6910427 C5.973494,50.3653249 8.37682649,47.5736811 11.4483344,45.6204632 C16.7249378,42.2632608 20.1789265,36.7755933 20.9240646,30.5661098 L22.47731,17.6223976 C22.9868958,13.3754607 24.9319509,9.36990657 27.9568148,6.34620877 L31.485434,2.81642349 L35.0140532,6.34504267 C38.0389171,9.36990657 39.9851383,13.3742946 40.493558,17.6212315 L42.0468034,30.5649437 C42.2671964,32.3992193 42.7359686,34.1985119 43.4426254,35.9255062 C43.229229,36.038618 43.0251615,36.1645568 42.8175957,36.2858312 C42.5808773,36.423431 42.3476573,36.563363 42.1191016,36.7102917 C41.9220307,36.8373966 41.727292,36.9656676 41.5360515,37.1009352 C41.2596858,37.2945079 40.9914828,37.4974093 40.7279441,37.7061412 C40.5437003,37.8507377 40.3606226,37.9965002 40.1833753,38.1492593 C39.8836876,38.4046352 39.5933286,38.6681739 39.3111324,38.9422074 C39.1607055,39.0891361 39.0149429,39.239563 38.8691804,39.391156 C38.654618,39.6150472 38.445886,39.844769 38.2429846,40.0791551 C38.1088831,40.2330803 37.9724494,40.3835073 37.8441783,40.5420969 C37.5631482,40.8895948 37.2949452,41.2487536 37.0407353,41.6160752 C36.908966,41.8061495 36.7865255,42.0032204 36.6617527,42.1991253 C36.5171563,42.4265148 36.3760582,42.6562365 36.2419567,42.8906227 C36.1195162,43.1028529 35.9970756,43.3139171 35.8827978,43.5319778 C35.6997201,43.8818078 35.5283034,44.2374684 35.3685476,44.5989595 Z M51.8921874,67.6352688 C45.2034367,67.6352688 39.4907118,63.4349759 37.2144842,57.5403394 C37.0757183,57.1800144 36.9392846,56.8185234 36.8285051,56.4523679 C36.7830272,56.3031071 36.7515425,56.1480158 36.710729,55.9964227 C36.618607,55.6582537 36.525319,55.3189185 36.4565191,54.9760851 C36.4063768,54.7253735 36.3772243,54.4676654 36.3399091,54.2122894 C36.3025939,53.9604118 36.2536177,53.7108664 36.2291296,53.4578226 C36.1778212,52.9424063 36.1498348,52.4211596 36.1498348,51.8929162 C36.1498348,51.4241439 36.1801534,50.9390462 36.2244652,50.4527824 C36.2384584,50.3070199 36.2547838,50.1624235 36.2722753,50.0178271 C36.3107566,49.6971495 36.3608989,49.3788042 36.4180378,49.0639571 C36.4483564,48.9007031 36.4728445,48.737449 36.5078275,48.5765272 C36.595285,48.1695583 36.699068,47.7672537 36.8180102,47.3719457 C36.8798135,47.1667121 36.9532778,46.9661429 37.0232438,46.7644075 C37.0978742,46.548679 37.1748368,46.3341166 37.258796,46.1230524 C37.3462536,45.9026595 37.4372094,45.6834326 37.5339957,45.4677041 C37.619121,45.2776298 37.712409,45.0910537 37.805697,44.9044777 C37.9759477,44.5616443 38.1590254,44.2258074 38.3549302,43.8969671 C38.4738724,43.6963979 38.5904825,43.4946626 38.7175874,43.30109 C38.8458584,43.1051851 38.9834582,42.9151108 39.119892,42.7250365 C39.2446647,42.5524536 39.3717696,42.3810369 39.5023728,42.2131185 C39.6423048,42.0347051 39.783403,41.8562918 39.9314977,41.683709 C40.0924195,41.4948008 40.261504,41.3140552 40.4317547,41.1333097 C40.6521476,40.8989236 40.878371,40.671534 41.1127572,40.449975 C41.3051637,40.2680634 41.4999024,40.0873178 41.7016378,39.914735 C41.8730545,39.7689725 42.0503017,39.6302065 42.2287151,39.4914406 C42.3977996,39.3596713 42.5692163,39.2314003 42.7441313,39.1054615 C42.937704,38.9666955 43.1324427,38.8279296 43.3330119,38.6984925 C43.4927677,38.5947096 43.6583539,38.4990894 43.8216079,38.4011369 C44.2437362,38.1480932 44.6786916,37.9137071 45.1276401,37.6991446 C46.0721813,37.2466978 47.0668648,36.8875389 48.1035278,36.6298308 C48.7238931,36.4759055 49.3419262,36.3616277 49.9541288,36.2823329 C49.9809491,36.2788346 50.0077694,36.2730041 50.0345897,36.2695058 C50.6619517,36.1913771 51.282317,36.1505636 51.8921874,36.1505636 C52.353963,36.1505636 52.8087421,36.1808822 53.261189,36.2193635 C53.6949782,36.2613431 54.1415946,36.3196481 54.6068686,36.4012751 C54.6068686,36.4012751 54.6068686,36.4012751 54.6080347,36.4012751 C61.9964455,37.6944802 67.6345399,44.1406821 67.6345399,51.8929162 C67.6345399,60.573366 60.5726372,67.6352688 51.8921874,67.6352688 Z" id="Shape"></path>
                <path d="M31.485434,15.1607601 C28.2704958,15.1607601 25.654933,17.7763229 25.654933,20.9912611 L27.9871334,20.9912611 C27.9871334,19.0625314 29.5567043,17.4929605 31.485434,17.4929605 C33.4141637,17.4929605 34.9837346,19.0625314 34.9837346,20.9912611 L37.315935,20.9912611 C37.315935,17.7763229 34.7003722,15.1607601 31.485434,15.1607601 Z" id="Shape"></path>
                <rect id="Rectangle-path" x="30.3193338" y="25.6556618" width="2.33220038" height="2.33220038"></rect>
                <rect id="Rectangle-path" x="30.3193338" y="30.3200626" width="2.33220038" height="2.33220038"></rect>
                <rect id="Rectangle-path" x="30.3193338" y="34.9844634" width="2.33220038" height="2.33220038"></rect>
                <path d="M49.9774508,38.6180316 L50.3074572,40.9257439 C52.4542476,40.6190595 54.6733363,40.9467337 56.637049,41.8796138 L57.6363969,39.7724708 C55.2587186,38.6436858 52.5766882,38.2448795 49.9774508,38.6180316 Z" id="Shape"></path>
                <path d="M47.4225253,39.2465596 C46.5304587,39.5625727 45.6710428,39.97304 44.8675998,40.4686326 L46.0908389,42.4545012 C46.7543499,42.0452 47.4645049,41.7058649 48.199148,41.4458245 L47.4225253,39.2465596 Z" id="Shape"></path>
                <path d="M61.4623716,42.3227319 C61.0775586,41.9390849 60.4816814,41.8726172 60.0199057,42.1583118 L50.6911042,47.9888127 C50.3506029,48.2022091 50.1430371,48.5753611 50.1430371,48.9776657 L50.1430371,52.4759663 C50.1430371,53.1196536 50.6642839,53.6420665 51.3091373,53.6420665 L54.8074378,53.6420665 C55.2097424,53.6420665 55.5828945,53.4345006 55.7962908,53.0939994 L61.6267918,43.7651978 C61.9148185,43.3045883 61.8460186,42.7063789 61.4623716,42.3227319 Z M54.1602522,51.3098661 L52.4752374,51.3098661 L52.4752374,49.6236852 L56.9705537,46.8133837 L54.1602522,51.3098661 Z" id="Shape"></path>
                <path d="M45.4786363,54.8081666 C43.5499066,54.8081666 41.9803357,56.3777375 41.9803357,58.3064672 C41.9803357,60.2351969 43.5499066,61.8047678 45.4786363,61.8047678 C47.407366,61.8047678 48.9769369,60.2351969 48.9769369,58.3064672 C48.9769369,56.3777375 47.407366,54.8081666 45.4786363,54.8081666 Z M45.4786363,59.4725674 C44.834949,59.4725674 44.3125361,58.9489884 44.3125361,58.3064672 C44.3125361,57.663946 44.834949,57.140367 45.4786363,57.140367 C46.1223236,57.140367 46.6447365,57.663946 46.6447365,58.3064672 C46.6447365,58.9489884 46.1223236,59.4725674 45.4786363,59.4725674 Z" id="Shape"></path>
                <path d="M59.4718386,54.8081666 C57.5431089,54.8081666 55.973538,56.3777375 55.973538,58.3064672 C55.973538,60.2351969 57.5431089,61.8047678 59.4718386,61.8047678 C61.4005683,61.8047678 62.9701392,60.2351969 62.9701392,58.3064672 C62.9701392,56.3777375 61.4005683,54.8081666 59.4718386,54.8081666 Z M59.4718386,59.4725674 C58.8281513,59.4725674 58.3057384,58.9489884 58.3057384,58.3064672 C58.3057384,57.663946 58.8281513,57.140367 59.4718386,57.140367 C60.1155259,57.140367 60.6379388,57.663946 60.6379388,58.3064672 C60.6379388,58.9489884 60.1155259,59.4725674 59.4718386,59.4725674 Z" id="Shape"></path>
            </g>
        </g>
    </g>
</svg>