<?xml version="1.0" encoding="UTF-8"?>
<svg width="70px" height="70px" viewBox="0 0 70 70" version="1.1" xmlns="http://www.w3.org/2000/svg" xmlns:xlink="http://www.w3.org/1999/xlink">
    <!-- Generator: Sketch 48.2 (47327) - http://www.bohemiancoding.com/sketch -->
    <title>002-hot-air-balloon</title>
    <desc>Created with Sketch.</desc>
    <defs></defs>
    <g id="pricing-cards" stroke="none" stroke-width="1" fill="none" fill-rule="evenodd" transform="translate(-839.000000, -229.000000)">
        <g id="card" transform="translate(680.000000, 179.000000)" fill="#4CE1B6" fill-rule="nonzero">
            <g id="002-hot-air-balloon" transform="translate(159.000000, 50.000000)">
                <path d="M4.11860749,14.1430733 C4.43610478,14.3500597 4.83495222,14.3860337 5.18610695,14.2430917 C5.53726167,14.1012399 5.79534745,13.7965516 5.88269327,13.4279549 C6.12688002,12.3686314 7.05484419,11.6278952 8.13964929,11.6278952 C8.56288816,11.6278952 8.97686102,11.7430391 9.33496525,11.961608 C9.88384039,12.2942307 10.6000489,12.1198116 10.9314452,11.5709365 C11.2663844,11.0209712 11.0907389,10.3058529 10.5407736,9.97323018 C9.81870575,9.5348659 8.98721715,9.30226167 8.13964929,9.30226167 C6.41644299,9.30226167 4.88727796,10.2348588 4.08617644,11.6802209 C3.88968241,11.6453371 3.68964549,11.6278952 3.48851846,11.6278952 C1.56527524,11.6278952 0.000136264929,13.1930342 0.000136264929,15.1162774 C0.000136264929,17.0395206 1.56527524,18.6046596 3.48851846,18.6046596 L6.97690065,18.6046596 C7.61993485,18.6046596 8.13964929,18.0837188 8.13964929,17.441911 C8.13964929,16.8001031 7.61993485,16.2791623 6.97690065,16.2791623 L3.48838219,16.2791623 C2.84657437,16.2791623 2.32563355,15.7571314 2.32563355,15.1164137 C2.32563355,14.2535841 3.3593393,13.6546998 4.11860749,14.1430733 Z" id="Shape"></path>
                <path d="M57.7955434,6.63950868 C58.1338892,6.30688599 58.8466911,5.81387948 59.3024973,5.81387948 C60.2397274,5.81387948 60.4513469,6.45337079 60.4652459,6.97662812 C60.4641558,6.9778545 60.4641558,6.97894462 60.4652459,6.98248751 C60.4641558,6.98371389 60.4641558,6.9860304 60.4652459,6.98712052 L60.4652459,6.98943702 L60.4652459,6.99175353 L60.4652459,6.99297991 C60.4652459,6.99297991 60.4652459,6.99297991 60.4652459,6.99420629 C60.4745119,7.62797448 60.9908197,8.13951303 61.6279945,8.13951303 C62.2663957,8.13951303 62.7850201,7.62552171 62.7907432,6.9883469 C62.8046422,6.45228067 63.0185781,5.81387948 63.9534918,5.81387948 C64.409298,5.81387948 65.1220999,6.30688599 65.4570391,6.63596579 C65.9117551,7.09068186 66.6466319,7.09068186 67.1012117,6.63596579 C67.5557915,6.18138599 67.5557915,5.44637296 67.1012117,4.99179316 C66.9477774,4.83835885 65.5524245,3.48824593 63.9534918,3.48824593 C62.9349115,3.48824593 62.1744169,3.81841585 61.6278583,4.30569924 C61.0812996,3.81841585 60.3209413,3.48824593 59.3022247,3.48824593 C57.7034283,3.48824593 56.3080754,4.83822258 56.1545049,4.99179316 C55.7010152,5.44405646 55.7010152,6.17661672 56.1532785,6.63133279 C56.6025439,7.08495874 57.3374207,7.08959174 57.7955434,6.63950868 Z" id="Shape"></path>
                <path d="M67.07464,41.9524289 C66.129234,39.1581802 63.4769734,37.2094555 60.4653822,37.2094555 C59.822348,37.2094555 59.3026335,37.7303963 59.3026335,38.3722041 C59.3026335,39.0140119 59.822348,39.5349527 60.4653822,39.5349527 C62.6712388,39.5349527 64.5886227,41.1034984 65.0235803,43.2639788 C65.1387242,43.8337025 65.6758805,44.2360928 66.2317052,44.1953496 C66.2736748,44.1933056 66.3152356,44.1888089 66.2945233,44.1867649 C66.9293816,44.1949408 67.4421465,44.7131563 67.4421465,45.3488322 C67.4421465,45.9895499 66.9212057,46.5115809 66.2793979,46.5115809 L53.4886178,46.5115809 C52.8455836,46.5115809 52.3258691,47.0325217 52.3258691,47.6743295 C52.3258691,48.3161373 52.8455836,48.8370782 53.4886178,48.8370782 L66.2792616,48.8370782 C68.2025049,48.8370782 69.7676438,47.2719392 69.7676438,45.348696 C69.7676438,43.6989365 68.6164777,42.3128496 67.07464,41.9524289 Z" id="Shape"></path>
                <path d="M34.8838219,0 C34.8443051,0 34.8071048,0.00585939196 34.7663615,0.00585939196 L34.7652714,0.00585939196 C20.2418827,0.0662247557 9.30239793,11.0384131 9.30239793,25.581424 C9.30239793,32.6802817 13.8675456,38.8582611 18.2814392,44.8337508 C22.0349929,49.9152063 25.581424,54.7151384 25.581424,59.302361 L25.581424,66.2791254 C25.581424,68.2023686 27.146563,69.7675076 29.0698062,69.7675076 L40.6977014,69.7675076 C42.6209446,69.7675076 44.1860836,68.2023686 44.1860836,66.2791254 L44.1860836,59.302361 C44.1860836,58.6605532 43.6663691,58.1396123 43.0233349,58.1396123 L31.3954397,58.1396123 C30.7524055,58.1396123 30.2326911,58.6605532 30.2326911,59.302361 C30.2326911,59.9441688 30.7524055,60.4651096 31.3954397,60.4651096 L41.8605863,60.4651096 L41.8605863,66.2792616 C41.8605863,66.9199793 41.3396455,67.4420103 40.6978377,67.4420103 L29.0699424,67.4420103 C28.4281346,67.4420103 27.9071938,66.9199793 27.9071938,66.2792616 L27.9071938,59.3024973 C27.9071938,53.949057 24.139741,48.8501596 20.1514028,43.4513431 C15.9618013,37.7791791 11.6281677,31.914064 11.6281677,25.5815602 C11.6281677,13.7059354 19.6583963,4.4709886 30.859646,2.66874864 C26.8849343,6.14077904 20.9302931,13.3756292 20.9302931,25.581424 C20.9302931,34.8430787 23.8872421,41.1082676 26.2628849,46.1418941 C27.8314305,49.4651232 29.0698062,52.0895857 29.0698062,54.6512302 C29.0698062,55.293038 29.5895206,55.8139788 30.2325548,55.8139788 C30.875589,55.8139788 31.3953035,55.293038 31.3953035,54.6512302 C31.3953035,51.5686449 29.9917747,48.5930277 28.365044,45.1489316 C26.0883295,40.3256981 23.2557904,34.3221379 23.2557904,25.581424 C23.2557904,12.7231927 30.3511053,5.8638887 33.720937,3.33249511 L33.720937,54.6512302 C33.720937,55.293038 34.2406514,55.8139788 34.8836856,55.8139788 C35.5267199,55.8139788 36.0464343,55.293038 36.0464343,54.6512302 L36.0464343,3.33263138 C39.4150396,5.86402497 46.5115809,12.723329 46.5115809,25.5815602 C46.5115809,34.3222741 43.6778154,40.3258344 41.401101,45.1490678 C39.7754603,48.5933002 38.3720678,51.5689175 38.3720678,54.6513664 C38.3720678,55.2931742 38.8917823,55.8141151 39.5348165,55.8141151 C40.1778507,55.8141151 40.6975651,55.2931742 40.6975651,54.6513664 C40.6975651,52.089722 41.9359408,49.4652595 43.5044864,46.1420304 C45.8804017,41.1082676 48.8373507,34.8430787 48.8373507,25.581424 C48.8373507,13.3756292 42.8827095,6.14064278 38.9082703,2.66861238 C50.1095201,4.4709886 58.1397486,13.7057991 58.1397486,25.581424 C58.1397486,32.5953887 53.5641086,38.2988936 49.5257611,43.3314299 C46.4618442,47.1488919 43.5688035,50.7558246 43.0350537,54.4860771 C42.9443013,55.1221618 43.3851183,55.7116438 44.0210668,55.8023963 C44.6605581,55.8931487 45.2466335,55.4512416 45.337386,54.8163833 C45.7803833,51.715266 48.4804728,48.3500673 51.3386297,44.7872845 C55.6165309,39.4559191 60.4653822,33.412842 60.4653822,25.581424 C60.4652459,10.9976699 49.467576,0 34.8838219,0 Z" id="Shape"></path>
            </g>
        </g>
    </g>
</svg>