<?xml version="1.0" encoding="UTF-8"?>
<svg width="113px" height="70px" viewBox="0 0 113 70" version="1.1" xmlns="http://www.w3.org/2000/svg" xmlns:xlink="http://www.w3.org/1999/xlink">
    <!-- Generator: Sketch 48.2 (47327) - http://www.bohemiancoding.com/sketch -->
    <title>003-airplane</title>
    <desc>Created with Sketch.</desc>
    <defs></defs>
    <g id="pricing-cards" stroke="none" stroke-width="1" fill="none" fill-rule="evenodd" transform="translate(-1230.000000, -229.000000)">
        <g id="card" transform="translate(1094.000000, 179.000000)" fill="#F6DA6E" fill-rule="nonzero">
            <g id="003-airplane" transform="translate(136.000000, 50.000000)">
                <path d="M103.42325,44.27325 C102.465781,44.27325 101.689437,45.0491563 101.689437,46.0070625 C101.689437,46.8234375 101.025094,47.4875625 100.208938,47.4875625 C99.3925625,47.4875625 98.7284375,46.8234375 98.7284375,46.0070625 C98.7284375,45.049375 97.9520938,44.27325 96.994625,44.27325 C96.0371563,44.27325 95.2608125,45.0491563 95.2608125,46.0070625 C95.2608125,46.8234375 94.5964688,47.4875625 93.7803125,47.4875625 C92.9639375,47.4875625 92.2998125,46.8234375 92.2998125,46.0070625 C92.2998125,45.049375 91.5234688,44.27325 90.566,44.27325 C89.6085313,44.27325 88.8321875,45.0491563 88.8321875,46.0070625 C88.8321875,48.7355312 91.0518438,50.9551875 93.7803125,50.9551875 C95.0061875,50.9551875 96.1294688,50.5069687 96.994625,49.7658437 C97.8597813,50.5069687 98.9832813,50.9551875 100.208938,50.9551875 C102.937406,50.9551875 105.157063,48.7353125 105.157063,46.0070625 C105.156844,45.049375 104.380719,44.27325 103.42325,44.27325 Z" id="Shape"></path>
                <path d="M61.5000312,31.33025 L56.7030625,31.33025 C54.9213437,31.33025 53.4716875,32.7799063 53.4716875,34.5618438 L53.4716875,39.3588125 C53.4716875,41.1405312 54.9213437,42.5901875 56.7030625,42.5901875 L61.5000312,42.5901875 C63.28175,42.5901875 64.731625,41.1405312 64.731625,39.3588125 L64.731625,34.5618438 C64.7314062,32.7799063 63.28175,31.33025 61.5000312,31.33025 Z M61.264,39.1227812 L56.938875,39.1227812 L56.938875,34.7976563 L61.264,34.7976563 L61.264,39.1227812 Z" id="Shape"></path>
                <path d="M101.878,37.191 C99.7716562,37.191 97.7521562,36.295875 96.3372812,34.7355313 L91.67725,29.5955625 C88.2426562,25.80725 83.3400312,23.6348438 78.2265312,23.6348438 L28.469,23.6348438 C26.8237812,23.6348438 25.3225,22.6664375 24.6437187,21.1677813 L17.0981562,4.50778125 C15.8635312,1.7819375 13.132,0.02034375 10.1395,0.02034375 L5.7211875,0.02034375 C4.10221875,0.02034375 2.57271875,0.7284375 1.5255625,1.9630625 C0.4781875,3.1976875 0.028875,4.82190625 0.29246875,6.419 L6.19871875,42.18375 C7.16471875,48.0333438 10.81325,53.0059688 15.9632812,55.7125625 C15.3691562,56.324625 14.8139687,56.9821875 14.3045,57.6837188 C10.0762812,57.7598438 6.32428125,60.3109063 4.7096875,64.2269688 C4.18140625,65.5073125 4.32796875,66.9617813 5.10146875,68.1174375 C5.88175,69.2831563 7.18375,69.9792188 8.584625,69.9792188 L51.0844687,69.9792188 C52.4341562,69.9792188 53.7068437,69.3225313 54.4884375,68.2226563 C55.27375,67.11775 55.475875,65.6921563 55.0291875,64.4094063 C54.021625,61.5162188 51.9441562,59.21125 49.3340312,57.8720625 L101.878437,57.8720625 C107.580375,57.8720625 112.218969,53.23325 112.218969,47.5315313 C112.21875,41.8298125 107.579937,37.191 101.878,37.191 Z M3.7139375,5.8541875 C3.61484375,5.2548125 3.77671875,4.66965625 4.1698125,4.2065625 C4.5626875,3.74303125 5.1139375,3.4881875 5.72140625,3.4881875 L10.1397188,3.4881875 C11.7737813,3.4881875 13.2654375,4.45003125 13.939625,5.93884375 L17.182375,13.09875 C11.8485938,17.7839375 9.06653125,24.0045312 7.6265,29.5485312 L3.7139375,5.8541875 Z M51.7542813,65.5499687 C51.8627813,65.8619062 51.7426875,66.0999062 51.6615313,66.2143125 C51.5825625,66.3252187 51.4023125,66.5118125 51.0840313,66.5118125 L8.58440625,66.5118125 C8.23659375,66.5118125 8.0478125,66.2860625 7.98284375,66.1891562 C7.9060625,66.0745312 7.795375,65.8389375 7.91503125,65.548875 C9.016875,62.8764062 11.6011875,61.1495937 14.4985313,61.1495937 C14.6652187,61.1495937 14.849625,61.1576875 15.06225,61.1743125 C15.6972813,61.2230937 16.3080313,60.921875 16.6536563,60.3870312 C19.34275,56.2268437 23.898,53.7431562 28.8389063,53.7431562 C33.4659063,53.7431562 37.7076875,55.874875 40.476625,59.5916562 C40.884375,60.13875 41.5749687,60.3957812 42.2408437,60.2487812 C42.8270938,60.1192812 43.4240625,60.0536562 44.0155625,60.0536562 C47.499375,60.0536562 50.6093438,62.262375 51.7542813,65.5499687 Z M58.9620937,54.4046562 L40.2871875,54.4046562 C37.3544062,51.988125 33.6951562,50.52775 29.8648437,50.3057187 C30.3390937,49.5245625 31.1952812,48.9997812 32.1739688,48.9997812 L58.9625312,48.9997812 C60.4526563,48.9997812 61.6649687,50.2123125 61.6649687,51.7022187 C61.6645312,53.1925625 60.452,54.4046562 58.9620937,54.4046562 Z M101.878,54.4046563 L64.5074063,54.4046563 C64.9070625,53.5882812 65.1319375,52.6712813 65.1319375,51.7026563 C65.1319375,48.3004375 62.3640937,45.5325938 58.961875,45.5325938 L32.1735312,45.5325938 C29.19,45.5325938 26.6947187,47.6616875 26.12575,50.4798438 C23.5235,50.8740313 21.0662812,51.8304062 18.907875,53.2643125 C14.0137812,51.263625 10.4879687,46.8755 9.61996875,41.6191562 L9.5878125,41.4240312 C9.52634375,27.589625 15.299375,19.817875 18.6994062,16.4475937 L21.4851875,22.5984062 C22.7241875,25.3345312 25.4655625,27.10225 28.469,27.10225 L78.22675,27.10225 C81.6154062,27.10225 84.8885625,28.2832812 87.4895,30.3944375 C87.2440625,30.3469687 86.9911875,30.3202812 86.7319687,30.3202812 C84.531125,30.3202812 82.7404375,32.1109687 82.7404375,34.3118125 C82.7404375,35.2695 83.5167812,36.045625 84.47425,36.045625 C85.4317187,36.045625 86.2080625,35.2697187 86.2080625,34.3118125 C86.2080625,34.0228438 86.4432187,33.7876875 86.7321875,33.7876875 C87.0211562,33.7876875 87.2560937,34.0228438 87.2560937,34.3118125 C87.2560937,35.2695 88.0324375,36.045625 88.9899062,36.045625 C89.947375,36.045625 90.7237187,35.2697187 90.7237187,34.3118125 C90.7237187,34.0819063 90.699875,33.8576875 90.66225,33.6382812 L93.7689375,37.0645625 C95.839625,39.34875 98.7955937,40.658625 101.878656,40.658625 C105.6685,40.658625 108.751781,43.7419063 108.751781,47.53175 C108.751344,51.321375 105.668062,54.4046563 101.878,54.4046563 Z" id="Shape"></path>
                <path d="M55.9310938,19.8390938 L104.928469,19.8390938 C106.288,19.8390938 107.562437,19.1701563 108.33725,18.0501563 C109.099375,16.9483125 109.274375,15.5472188 108.805156,14.301875 C107.231031,10.1241875 103.173,7.317625 98.7074375,7.317625 C97.3636563,7.317625 96.0354063,7.5691875 94.7929063,8.05328125 C91.469,3.1320625 85.9005,0.1360625 79.8977813,0.1360625 C74.5906875,0.1360625 69.5334063,2.515625 66.1340313,6.55790625 C65.219,6.33675 64.280125,6.22496875 63.329875,6.22496875 C58.1369688,6.22496875 53.5821563,9.538375 51.9957813,14.4703125 C51.590875,15.7287813 51.807,17.0655625 52.588375,18.137875 C53.3645,19.2031875 54.614,19.8390938 55.9310938,19.8390938 Z M55.2962813,15.5319062 C56.42,12.039125 59.6483125,9.6919375 63.3296563,9.6919375 C64.3083438,9.6919375 65.2690938,9.858625 66.1847813,10.1871875 C66.9088438,10.4472812 67.7177813,10.1985625 68.1714688,9.57621875 C70.8973125,5.83603125 75.2808438,3.60303125 79.898,3.60303125 C85.18825,3.60303125 90.0604688,6.4868125 92.6132813,11.1286875 C92.8388125,11.5388437 93.22075,11.8405 93.6724688,11.96475 C94.1241875,12.0892187 94.6065313,12.0253437 95.010125,11.7882188 C96.1285938,11.13175 97.4069688,10.7848125 98.707875,10.7848125 C101.738656,10.7848125 104.4925,12.6894687 105.560875,15.52425 C105.650563,15.76225 105.569625,15.9562812 105.486063,16.07725 C105.424813,16.1658437 105.248063,16.3714687 104.928906,16.3714687 L55.9315313,16.3714687 C55.6364375,16.3714687 55.4660313,16.1986562 55.3907813,16.0954062 C55.3188125,15.997625 55.2118438,15.7941875 55.2962813,15.5319062 Z" id="Shape"></path>
                <path d="M44.9159375,31.33025 L40.1191875,31.33025 C38.3374688,31.33025 36.8875938,32.7799063 36.8875938,34.5618438 L36.8875938,39.3588125 C36.8875938,41.1405312 38.3374688,42.5901875 40.1191875,42.5901875 L44.9159375,42.5901875 C46.6976563,42.5901875 48.1473125,41.1405312 48.1473125,39.3588125 L48.1473125,34.5618438 C48.1475313,32.7799063 46.697875,31.33025 44.9159375,31.33025 Z M44.680125,39.1227812 L40.355,39.1227812 L40.355,34.7976563 L44.680125,34.7976563 L44.680125,39.1227812 Z" id="Shape"></path>
                <path d="M71.7178437,36.0451875 C72.6753125,36.0451875 73.4516562,35.2692812 73.4516562,34.311375 C73.4516562,34.0224063 73.6868125,33.78725 73.9755625,33.78725 C74.2643125,33.78725 74.4994687,34.0224063 74.4994687,34.311375 C74.4994687,35.2690625 75.2758125,36.0451875 76.2332812,36.0451875 C77.19075,36.0451875 77.9670937,35.2692812 77.9670937,34.311375 C77.9670937,32.1105313 76.1764062,30.3198438 73.9757812,30.3198438 C71.7751562,30.3198438 69.9844687,32.1105313 69.9844687,34.311375 C69.9840313,35.2692812 70.760375,36.0451875 71.7178437,36.0451875 Z" id="Shape"></path>
                <path d="M76.7143125,38.5146563 L71.2359375,38.5146563 C70.2784688,38.5146563 69.502125,39.2905625 69.502125,40.2484688 C69.502125,41.2061562 70.2784688,41.9822812 71.2359375,41.9822812 L76.7143125,41.9822812 C77.6717813,41.9822812 78.448125,41.206375 78.448125,40.2484688 C78.448125,39.2905625 77.6717813,38.5146563 76.7143125,38.5146563 Z" id="Shape"></path>
                <path d="M28.3320625,31.33025 L23.5353125,31.33025 C21.753375,31.33025 20.3039375,32.7799063 20.3039375,34.5618438 L20.3039375,39.3588125 C20.3039375,41.1405312 21.7535938,42.5901875 23.5353125,42.5901875 L28.3318438,42.5901875 C30.1135625,42.5901875 31.5634375,41.1405312 31.5634375,39.3588125 L31.5634375,34.5618438 C31.5636563,32.7799063 30.1137813,31.33025 28.3320625,31.33025 Z M28.09625,39.1227812 L23.771125,39.1227812 L23.771125,34.7976563 L28.09625,34.7976563 L28.09625,39.1227812 Z" id="Shape"></path>
            </g>
        </g>
    </g>
</svg>