<?xml version="1.0" encoding="UTF-8"?>
<svg width="105px" height="70px" viewBox="0 0 105 70" version="1.1" xmlns="http://www.w3.org/2000/svg" xmlns:xlink="http://www.w3.org/1999/xlink">
    <!-- Generator: Sketch 48.2 (47327) - http://www.bohemiancoding.com/sketch -->
    <title>004-paper-plane</title>
    <desc>Created with Sketch.</desc>
    <defs></defs>
    <g id="pricing-cards" stroke="none" stroke-width="1" fill="none" fill-rule="evenodd" transform="translate(-402.000000, -229.000000)">
        <g id="card" transform="translate(265.000000, 179.000000)" fill="#70BBFD" fill-rule="nonzero">
            <g id="004-paper-plane" transform="translate(137.000000, 50.000000)">
                <path d="M104.027023,2.04475396 C104.033953,2.00317499 104.04608,1.96159602 104.049545,1.92001705 C104.061672,1.79181523 104.047813,1.66188096 104.03222,1.53194668 C104.028756,1.49903 104.033953,1.46784577 104.028756,1.43492909 C103.997571,1.26341584 103.9404,1.09536751 103.85551,0.934249012 C103.84165,0.9065297 103.822593,0.880542845 103.807001,0.852823533 C103.803536,0.849358619 103.803536,0.844161248 103.801804,0.838963877 C103.800071,0.835498963 103.794874,0.833766506 103.793141,0.828569135 C103.781014,0.809512108 103.770619,0.788722624 103.758492,0.771398054 C103.65108,0.613744466 103.521146,0.48381019 103.375619,0.372932941 C103.342703,0.348678543 103.304589,0.334818887 103.269939,0.312296946 C103.141738,0.227406553 103.006606,0.158108272 102.86108,0.111331933 C102.796979,0.0905424488 102.732878,0.0801477067 102.667044,0.0680205077 C102.540575,0.0420336525 102.414106,0.0299064534 102.282439,0.0333713675 C102.213141,0.0351038245 102.147307,0.0385687385 102.078009,0.0489634806 C102.032965,0.0558933086 101.989654,0.0489634806 101.94461,0.0593582226 L1.38241021,20.8419125 C0.666905464,20.9909038 0.119449049,21.5712769 0.0172340851,22.2954439 C-0.0849808785,23.019611 0.277102636,23.7299183 0.923309101,24.0712124 L29.7375341,39.2700577 L34.7911112,67.3133393 C34.7876463,67.3341288 34.7928436,67.3566508 34.7911112,67.3774402 C34.7737866,67.5160368 34.7720542,67.6511684 34.7893787,67.7880326 C34.798041,67.8573308 34.8067033,67.9231642 34.8240279,67.99073 C34.8638744,68.1553134 34.9279753,68.3095021 35.0145981,68.4550285 C35.0319227,68.4827478 35.0319227,68.5156645 35.0509797,68.5433838 C35.0561771,68.5520461 35.0648394,68.5589759 35.0717692,68.5659057 C35.0942912,68.5988224 35.1254754,68.6248093 35.1514622,68.657726 C35.2328877,68.7582085 35.3177781,68.8500287 35.4147957,68.9279893 C35.4303878,68.9401165 35.4407826,68.9591735 35.4581071,68.9713007 C35.484094,68.9903577 35.5135458,68.9955551 35.5395326,69.0128797 C35.6452125,69.0821779 35.7543573,69.139349 35.8704319,69.1843929 C35.9172082,69.2017175 35.9605197,69.222507 36.0090285,69.2363666 C36.1649496,69.2814105 36.3260681,69.3125947 36.488919,69.3125947 C36.4906515,69.3125947 36.492384,69.3125947 36.4941164,69.3125947 C36.4941164,69.3125947 36.4941164,69.3125947 36.4941164,69.3125947 C36.5010462,69.3125947 36.5079761,69.3091298 36.5149059,69.3091298 C36.5443577,69.3108623 36.5738094,69.3125947 36.6032612,69.3125947 C37.0831518,69.3125947 37.5162661,69.0977701 37.8367706,68.7668708 L57.0306618,55.9709433 L77.1271631,69.0336691 C77.4112861,69.2173096 77.7404529,69.3125947 78.0713522,69.3125947 C78.2532602,69.3125947 78.4386331,69.283143 78.6170761,69.2242394 C79.1160238,69.0579235 79.5144889,68.6733181 79.6963969,68.1778354 L103.943865,2.36352605 C103.966387,2.30462251 103.985444,2.24398651 104.001036,2.18161806 C104.007966,2.1556312 104.009699,2.12964435 104.014896,2.10538995 C104.020093,2.08633292 104.023558,2.06554344 104.027023,2.04475396 Z M83.961706,13.103027 L42.394865,43.6653012 C42.3272992,43.7155424 42.273593,43.7779109 42.2146895,43.8368144 C42.1921675,43.8576039 42.1696456,43.8749284 42.1505886,43.8974504 C42.114207,43.9372969 42.0812903,43.9771434 42.0483736,44.0204548 C42.0171894,44.0620338 41.992935,44.1053452 41.9652157,44.1486567 C41.9011147,44.2526041 41.8474086,44.3600164 41.8058296,44.4743586 C41.7971673,44.4968805 41.7833077,44.5142051 41.7763778,44.536727 C41.7746454,44.5436569 41.7677156,44.5471218 41.7659831,44.5540516 L37.0017263,60.0370199 L33.2267025,39.0898822 L83.961706,13.103027 Z M39.6870347,63.3702672 L44.4097125,47.7712243 L51.76226,52.5510732 L53.8654629,53.9179817 L46.7208101,58.6805061 L39.6870347,63.3702672 Z M90.1639021,6.03286999 L31.3071401,36.1793544 L6.81019802,23.25869 L90.1639021,6.03286999 Z M77.1964614,64.9468031 L50.5079612,47.6014435 L46.466139,44.9733062 L98.7066476,6.56126938 L77.1964614,64.9468031 Z" id="Shape"></path>
            </g>
        </g>
    </g>
</svg>