<svg xmlns="http://www.w3.org/2000/svg" width="64" height="64" viewBox="0 0 64 64">
  <g fill="none" transform="translate(4 4)">
    <polygon stroke="#FFF" points="0 28 0 0 56 0 56 56 0 56"/>
    <path fill="#FFF" d="M12.32,28.1074232 L12.32,30.4008862 L19.6114309,30.4008862 L19.6114309,51.2249681 L24.7855425,51.2249681 L24.7855425,30.4008862 L32.0769734,30.4008862 L32.0769734,28.1496341 C32.0769734,26.8833048 32.0769734,25.8561711 32.0208855,25.8280304 C32.0208855,25.7858194 27.575917,25.7717491 22.1774537,25.7717491 L12.3620659,25.8139601 L12.3620659,28.1214935 L12.32,28.1074232 Z M45.0893732,25.7576788 C46.5196155,26.0953666 47.6133301,26.7426016 48.5948689,27.7697353 C49.1136822,28.3325484 49.8848913,29.3174712 49.9409792,29.570737 C49.9409792,29.655159 47.5151762,31.3013871 46.0428681,32.2159582 C45.9867801,32.2581692 45.7624284,32.0189737 45.5380767,31.6531452 C44.8089336,30.6119411 44.0657685,30.1616907 42.901944,30.0772687 C41.2193061,29.9647061 40.0975474,30.8511366 40.0975474,32.3285208 C40.0975474,32.7787713 40.1816793,33.0320371 40.3499431,33.3978656 C40.7285367,34.1717335 41.4296358,34.6360542 43.6030431,35.5928364 C47.6133301,37.3234864 49.3520559,38.4631828 50.4037046,40.0953406 C51.5955731,41.9244829 51.8619908,44.7948293 51.0627378,46.9475891 C50.1653309,49.2973335 47.9779016,50.8872803 44.8509995,51.4078823 C43.8694608,51.5767262 41.6259435,51.5485856 40.5742949,51.3656713 C38.3307776,50.9435616 36.1854143,49.8179355 34.867348,48.368692 C34.3485346,47.805879 33.3529738,46.3003541 33.4090618,46.2018619 L33.9418971,45.864174 L36.0451945,44.6400557 L37.6296785,43.7114142 L37.9942501,44.2038756 C38.4569755,44.9355326 39.4946022,45.9204553 40.0975474,46.2581432 C41.9204052,47.200855 44.3602301,47.074222 45.5661206,45.9767366 C46.084934,45.4983456 46.3092857,44.9918139 46.3092857,44.2882976 C46.3092857,43.6410626 46.2111318,43.3455858 45.8886262,42.8531244 C45.4399228,42.23403 44.5425159,41.7274983 42.0185591,40.6018723 C39.1160087,39.3636836 37.8820742,38.5757454 36.7322716,37.3656974 C36.0732385,36.6340405 35.4702932,35.4943441 35.1898536,34.5516323 C34.9795238,33.7355534 34.9094139,31.7375672 35.1057217,30.9355586 C35.7086669,28.1214935 37.8259863,26.1516479 40.8547345,25.5888349 C41.8362733,25.3918503 44.1499004,25.4762723 45.1174172,25.7295381 L45.0893732,25.7576788 Z"/>
  </g>
</svg>
