<svg xmlns="http://www.w3.org/2000/svg" width="40" height="40" viewBox="0 0 40 40">
  <g fill="none" fill-rule="evenodd">
    <rect width="40" height="40" fill="#292B2C"/>
    <rect width="40" height="40" fill="#292B2C"/>
    <polygon stroke="#FFF" points="4 20 4 4 36 4 36 36 4 36"/>
    <path fill="#FFF" fill-rule="nonzero" d="M11.04,20.0613847 L11.04,21.371935 L15.206532,21.371935 L15.206532,33.2714103 L18.1631671,33.2714103 L18.1631671,21.371935 L22.3296991,21.371935 L22.3296991,20.0855052 C22.3296991,19.3618885 22.3296991,18.7749549 22.2976489,18.7588745 C22.2976489,18.734754 19.7576669,18.7267138 16.6728307,18.7267138 L11.0640377,18.7508343 L11.0640377,20.0694248 L11.04,20.0613847 Z M29.7653561,18.7186736 C30.5826374,18.9116381 31.2076172,19.2814866 31.7684965,19.8684202 C32.0649613,20.1900276 32.5056522,20.7528407 32.5377024,20.897564 C32.5377024,20.9458051 31.1515293,21.8865069 30.3102103,22.409119 C30.2781601,22.4332395 30.1499591,22.2965564 30.0217581,22.0875115 C29.6051049,21.4925378 29.1804391,21.2352518 28.5153965,21.1870107 C27.5538892,21.1226892 26.9128843,21.6292209 26.9128843,22.4734405 C26.9128843,22.7307264 26.9609596,22.8754498 27.0571104,23.0844946 C27.2734495,23.5267048 27.6740776,23.792031 28.9160246,24.3387636 C31.2076172,25.3277065 32.2011748,25.9789616 32.8021169,26.9116232 C33.4831847,27.9568474 33.6354233,29.5970453 33.1787073,30.8271938 C32.6659034,32.1699048 31.4159438,33.0784459 29.6291426,33.3759328 C29.0682633,33.472415 27.7862535,33.4563346 27.1853113,33.3518122 C25.9033015,33.1106066 24.6773796,32.4673917 23.9241988,31.6392526 C23.6277341,31.3176451 23.0588422,30.4573452 23.0908924,30.4010639 L23.3953698,30.2080995 L24.597254,29.5086033 L25.5026734,28.977951 L25.711,29.2593575 C25.9754146,29.6774472 26.5683441,30.2402602 26.9128843,30.4332247 C27.9545172,30.9719171 29.3487029,30.8995555 30.0377832,30.2724209 C30.334248,29.9990546 30.462449,29.7096079 30.462449,29.3075986 C30.462449,28.9377501 30.4063611,28.7689062 30.2220721,28.4874996 C29.9656702,28.1337315 29.4528662,27.8442848 28.0106052,27.2010699 C26.352005,26.4935335 25.6468995,26.0432831 24.9898695,25.3518271 C24.6132791,24.9337374 24.268739,24.2824823 24.1084877,23.7437899 C23.9882993,23.2774591 23.9482365,22.1357527 24.0604124,21.6774621 C24.4049525,20.0694248 25.6148493,18.9437988 27.3455626,18.6221914 C27.9064419,18.5096288 29.2285145,18.5578699 29.7813813,18.7025932 L29.7653561,18.7186736 Z"/>
  </g>
</svg>
