<svg xmlns="http://www.w3.org/2000/svg" xmlns:xlink="http://www.w3.org/1999/xlink" width="119" height="126" viewBox="0 0 119 126">
  <defs>
    <rect id="white-a" width="128" height="128"/>
  </defs>
  <g fill="none" fill-rule="evenodd" transform="translate(-4 -1)">
    <mask id="white-b" fill="#fff">
      <use xlink:href="#white-a"/>
    </mask>
    <g stroke="#FFF" stroke-linecap="round" stroke-linejoin="round" mask="url(#white-b)">
      <g stroke-width="2" transform="translate(5 2)">
        <polygon points="27.649 82.108 58.649 117.297 53.622 124 16.757 90.486"/>
        <path d="M31.8378378,86.2972973 L41.8594644,77.1108063 C41.8801273,77.0918653 41.8918919,77.0651215 41.8918919,77.0370909 L41.8918919,61.1621622 L54.3151594,61.1621622 C54.3703879,61.1621622 54.4151594,61.2069337 54.4151594,61.2621622 C54.4151594,61.2741534 54.4130027,61.2860468 54.4087923,61.2972745 L52.219417,67.1358606 C52.1806501,67.2392389 52.2330281,67.3544704 52.3364064,67.3932373 C52.4046712,67.4188366 52.4814589,67.4052431 52.536787,67.3577645 C63.5435745,57.912519 70.6078888,51.9374083 73.7297297,49.4324324 C83.0847011,51.2066511 92.0348656,60.4228674 100.580223,77.0810811 C91.9989311,84.8758094 83.5171866,92.315984 75.13499,99.4016047 C65.4153074,99.4016047 57.6856261,102.853322 51.9459459,109.756757 L31.8378378,86.2972973 Z"/>
        <polygon points="79.595 95.514 85.459 102.216 98.027 91.324 92.162 84.622"/>
        <polygon points="85.459 102.216 80.432 113.108 87.973 120.649 116.459 92.162 109.757 86.297 98.446 91.324"/>
        <path d="M68.7027027,53.6216216 C63.1171171,32.954955 55.8558559,17.5945946 46.9189189,7.54054054 C37.7027027,14.2504779 25.189567,22.2464549 6.7027027,44.4054054 C16.1981982,53.3423423 27.9279279,58.9279279 41.8918919,61.1621622 L54.3151594,61.1621622 C54.3703879,61.1621622 54.4151594,61.2069337 54.4151594,61.2621622 C54.4151594,61.2741534 54.4130027,61.2860468 54.4087923,61.2972745 L52.0813282,67.5038456 C52.0619362,67.5555576 52.0881367,67.6131989 52.1398487,67.6325909 C52.1738386,67.6453371 52.2120666,67.6386623 52.2397259,67.6151519 L68.7027027,53.6216216 Z"/>
        <path d="M6.7027027 44.4054054L0 39.3783784C11.5721758 22.8818383 24.9775812 10.0349914 40.2162162.837837838 41.8391825 2.05290941 45.802376 6.25243377 46.9189189 7.54054054 31.6072487 17.9696465 18.2018433 30.2579347 6.7027027 44.4054054zM46.9189189 7.54054054C57.5315315-.279279279 65.0720721 1.3963964 69.5405405 12.5675676 73.3348796 23.0097046 69.5405405 33.4294434 63.6756757 37.7027027 61.4414414 29.3243243 55.8558559 19.2702703 46.9189189 7.54054054zM6.7027027 44.4054054C-3.35135135 56.1351351 3.16578336 65.2289485 13.0201964 67.7035156 21.915896 69.8572389 29.8488457 67.3871446 36.8190456 60.2932327 24.5613035 57.5211677 14.5225225 52.2252252 6.7027027 44.4054054z"/>
        <path d="M10.8139992 48.2188767C8.20317427 54.2074535 9.09544975 58.2683488 13.4908256 60.4015625 18.3880314 62.4047368 23.9589985 61.7774493 30.2037268 58.5197002 24.0613281 56.4843433 19.2663429 54.0186128 10.8139992 48.2188767zM51.5146688 13.5880432C57.0540771 10.2266405 61.0118035 11.6152242 63.3878479 17.7537944 65.205678 24.5256907 64.6419404 29.1239946 61.6966349 31.5487061 57.6645915 22.9816386 56.3924764 21.0860799 51.5146688 13.5880432z"/>
      </g>
    </g>
  </g>
</svg>
