<?xml version="1.0" encoding="UTF-8"?>
<svg width="16px" height="17px" viewBox="0 0 16 17" version="1.1" xmlns="http://www.w3.org/2000/svg" xmlns:xlink="http://www.w3.org/1999/xlink">
    <!-- Generator: Sketch 50.2 (55047) - http://www.bohemiancoding.com/sketch -->
    <title></title>
    <desc>Created with Sketch.</desc>
    <defs></defs>
    <g id="Dashboard" stroke="none" stroke-width="1" fill="none" fill-rule="evenodd">
        <g id="Finance-dashboard" transform="translate(-1887.000000, -1589.000000)" fill="#4CE1B6">
            <path d="M1902.02,1596.512 C1902.104,1596.512 1902.179,1596.545 1902.245,1596.611 C1902.311,1596.677 1902.344,1596.752 1902.344,1596.836 L1902.344,1598.564 C1902.344,1598.648 1902.311,1598.723 1902.245,1598.789 C1902.179,1598.855 1902.104,1598.888 1902.02,1598.888 L1893.218,1598.888 C1893.002,1599.296 1892.693,1599.623 1892.291,1599.869 C1891.889,1600.115 1891.448,1600.238 1890.968,1600.238 C1890.488,1600.238 1890.047,1600.115 1889.645,1599.869 C1889.243,1599.623 1888.934,1599.296 1888.718,1598.888 L1887.98,1598.888 C1887.884,1598.888 1887.806,1598.855 1887.746,1598.789 C1887.686,1598.723 1887.656,1598.648 1887.656,1598.564 L1887.656,1596.836 C1887.656,1596.752 1887.686,1596.677 1887.746,1596.611 C1887.806,1596.545 1887.884,1596.512 1887.98,1596.512 L1888.718,1596.512 C1888.934,1596.104 1889.243,1595.777 1889.645,1595.531 C1890.047,1595.285 1890.488,1595.162 1890.968,1595.162 C1891.448,1595.162 1891.889,1595.285 1892.291,1595.531 C1892.693,1595.777 1893.002,1596.104 1893.218,1596.512 L1902.02,1596.512 Z M1891.49,1598.888 C1891.73,1598.78 1891.919,1598.621 1892.057,1598.411 C1892.195,1598.201 1892.267,1597.964 1892.273,1597.7 C1892.279,1597.436 1892.21,1597.199 1892.066,1596.989 C1891.922,1596.779 1891.736,1596.62 1891.508,1596.512 C1891.34,1596.44 1891.163,1596.404 1890.977,1596.404 C1890.791,1596.404 1890.614,1596.44 1890.446,1596.512 C1890.218,1596.62 1890.032,1596.779 1889.888,1596.989 C1889.744,1597.199 1889.672,1597.436 1889.672,1597.7 C1889.672,1597.964 1889.744,1598.201 1889.888,1598.411 C1890.032,1598.621 1890.218,1598.78 1890.446,1598.888 C1890.614,1598.96 1890.791,1598.996 1890.977,1598.996 C1891.163,1598.996 1891.334,1598.96 1891.49,1598.888 Z M1902.02,1591.184 C1902.104,1591.184 1902.179,1591.217 1902.245,1591.283 C1902.311,1591.349 1902.344,1591.424 1902.344,1591.508 L1902.344,1593.218 C1902.344,1593.314 1902.311,1593.395 1902.245,1593.461 C1902.179,1593.527 1902.104,1593.56 1902.02,1593.56 L1899.464,1593.56 C1899.248,1593.968 1898.939,1594.295 1898.537,1594.541 C1898.135,1594.787 1897.694,1594.91 1897.214,1594.91 C1896.734,1594.91 1896.293,1594.787 1895.891,1594.541 C1895.489,1594.295 1895.18,1593.968 1894.964,1593.56 L1887.98,1593.56 C1887.884,1593.56 1887.806,1593.527 1887.746,1593.461 C1887.686,1593.395 1887.656,1593.314 1887.656,1593.218 L1887.656,1591.508 C1887.656,1591.424 1887.686,1591.349 1887.746,1591.283 C1887.806,1591.217 1887.884,1591.184 1887.98,1591.184 L1894.964,1591.184 C1895.18,1590.776 1895.489,1590.449 1895.891,1590.203 C1896.293,1589.957 1896.734,1589.834 1897.214,1589.834 C1897.694,1589.834 1898.135,1589.957 1898.537,1590.203 C1898.939,1590.449 1899.248,1590.776 1899.464,1591.184 L1902.02,1591.184 Z M1897.736,1593.56 C1897.964,1593.452 1898.15,1593.293 1898.294,1593.083 C1898.438,1592.873 1898.51,1592.636 1898.51,1592.372 C1898.51,1592.108 1898.438,1591.868 1898.294,1591.652 C1898.15,1591.436 1897.964,1591.28 1897.736,1591.184 C1897.568,1591.112 1897.391,1591.076 1897.205,1591.076 C1897.019,1591.076 1896.848,1591.112 1896.692,1591.184 C1896.452,1591.28 1896.263,1591.436 1896.125,1591.652 C1895.987,1591.868 1895.918,1592.108 1895.918,1592.372 C1895.918,1592.636 1895.987,1592.873 1896.125,1593.083 C1896.263,1593.293 1896.452,1593.452 1896.692,1593.56 C1896.86,1593.632 1897.034,1593.668 1897.214,1593.668 C1897.394,1593.668 1897.568,1593.632 1897.736,1593.56 Z M1902.02,1601.84 C1902.104,1601.84 1902.179,1601.873 1902.245,1601.939 C1902.311,1602.005 1902.344,1602.086 1902.344,1602.182 L1902.344,1603.892 C1902.344,1603.976 1902.314,1604.051 1902.254,1604.117 C1902.194,1604.183 1902.116,1604.216 1902.02,1604.216 L1897.826,1604.216 C1897.61,1604.624 1897.301,1604.951 1896.899,1605.197 C1896.497,1605.443 1896.056,1605.566 1895.576,1605.566 C1895.096,1605.566 1894.655,1605.443 1894.253,1605.197 C1893.851,1604.951 1893.542,1604.624 1893.326,1604.216 L1887.98,1604.216 C1887.884,1604.216 1887.806,1604.183 1887.746,1604.117 C1887.686,1604.051 1887.656,1603.976 1887.656,1603.892 L1887.656,1602.182 C1887.656,1602.086 1887.686,1602.005 1887.746,1601.939 C1887.806,1601.873 1887.884,1601.84 1887.98,1601.84 L1893.326,1601.84 C1893.542,1601.432 1893.848,1601.105 1894.244,1600.859 C1894.64,1600.613 1895.081,1600.49 1895.567,1600.49 C1896.053,1600.49 1896.494,1600.613 1896.89,1600.859 C1897.286,1601.105 1897.598,1601.432 1897.826,1601.84 L1902.02,1601.84 Z M1896.098,1604.216 L1896.08,1604.216 C1896.32,1604.12 1896.512,1603.964 1896.656,1603.748 C1896.8,1603.532 1896.872,1603.292 1896.872,1603.028 C1896.872,1602.764 1896.8,1602.527 1896.656,1602.317 C1896.512,1602.107 1896.326,1601.948 1896.098,1601.84 C1895.93,1601.768 1895.753,1601.732 1895.567,1601.732 C1895.381,1601.732 1895.21,1601.768 1895.054,1601.84 C1894.814,1601.948 1894.625,1602.11 1894.487,1602.326 C1894.349,1602.542 1894.28,1602.779 1894.28,1603.037 C1894.28,1603.295 1894.349,1603.532 1894.487,1603.748 C1894.625,1603.964 1894.814,1604.12 1895.054,1604.216 C1895.21,1604.288 1895.381,1604.324 1895.567,1604.324 C1895.753,1604.324 1895.93,1604.288 1896.098,1604.216 Z" id=""></path>
        </g>
    </g>
</svg>