<svg width="150" height="129" viewBox="0 0 150 129" fill="none" xmlns="http://www.w3.org/2000/svg">
<g clip-path="url(#clip0)">
<path d="M74.3083 118.927C102.312 118.927 125.014 96.2685 125.014 68.318C125.014 40.3674 102.312 17.709 74.3083 17.709C46.3045 17.709 23.6029 40.3674 23.6029 68.318C23.6029 96.2685 46.3045 118.927 74.3083 118.927Z" fill="#BAF4EE"/>
<path opacity="0.73" d="M115.654 80.4219V97.4811C113.782 100.081 111.666 102.518 109.387 104.792V80.4219C109.387 80.2594 106.294 77.7412 103.934 75.8728V74.7355L106.783 74.0044C107.922 73.6795 109.143 73.8419 110.282 74.2481C110.771 74.4918 111.259 74.6543 111.829 74.8167V77.0101C114.189 79.0409 115.654 80.2594 115.654 80.4219Z" fill="#7FD6CB"/>
<path d="M2.19751 3.41187L17.0917 38.2614L27.9164 30.7878L34.2648 39.9673L35.4042 24.5328L48.5079 16.5718L2.19751 3.41187Z" fill="#FFB031"/>
<path d="M30.3581 29.1631L17.0917 38.2614L27.9165 30.7878L34.2648 39.9673L35.4043 24.5328L14.4059 12.1039L30.3581 29.1631Z" fill="#FF9433"/>
<path d="M35.0787 28.3508L14.4059 12.1039L35.4043 24.5328L35.0787 28.3508Z" fill="#FF7733"/>
<path d="M34.509 44.2727C34.4276 43.6229 34.2648 42.8917 34.1021 42.2419L35.1601 41.9982C35.3229 42.648 35.4857 43.3791 35.6484 44.1103L34.509 44.2727Z" fill="#00C8B7"/>
<path d="M22.2192 67.9119C20.6728 67.8307 19.2078 67.3433 17.987 66.531L18.5567 65.6374C19.6148 66.3685 20.917 66.7747 22.3006 66.8559L22.2192 67.9119ZM26.5328 67.0996L26.0445 66.1248C27.1026 65.5561 28.242 64.7438 29.2187 63.6065L30.0326 64.3376C28.9745 65.5561 27.7537 66.4497 26.5328 67.0996ZM14.9756 63.2003C14.4059 61.9818 14.0803 60.6821 14.0803 59.3823C14.0803 59.3011 14.0803 59.1386 14.0803 59.0574V58.8137L15.1384 58.8949V59.0574C15.1384 59.1386 15.1384 59.2199 15.1384 59.3011C15.1384 60.4384 15.3825 61.5757 15.9523 62.6317L14.9756 63.2003ZM55.8329 62.9566V61.9006C57.2165 61.9006 58.6001 61.8194 60.0651 61.7381L60.1465 62.7942C58.6815 62.8754 57.2165 62.8754 55.8329 62.9566ZM51.6007 62.7942L50.9496 62.7129C49.6473 62.6317 48.5079 62.4692 47.3684 62.2255L47.5312 61.1695C48.5893 61.332 49.7287 61.4944 51.0309 61.5757L51.6821 61.6569L51.6007 62.7942ZM64.3788 62.3068L64.216 61.2507C65.5996 61.0883 66.9832 60.8446 68.3668 60.6009L68.5296 61.6569C67.146 61.9006 65.7624 62.1443 64.3788 62.3068ZM43.1362 61.2507C41.9154 60.8446 40.6945 60.2759 39.7179 59.7073C39.5551 59.626 39.3923 59.5448 39.2295 59.3823L39.7993 58.4888C39.962 58.57 40.1248 58.6512 40.2876 58.7325C41.2643 59.3011 42.4037 59.7885 43.5432 60.1947L43.1362 61.2507ZM32.5556 60.8446L31.6604 60.3572C32.3115 59.1386 32.9626 57.9201 33.3695 56.6204L34.3462 56.9453C33.8579 58.2451 33.2881 59.5448 32.5556 60.8446ZM72.7618 60.6821L72.5177 59.626C73.8199 59.3011 75.2035 58.9762 76.5871 58.57L76.9127 59.5448C75.4477 60.0322 74.0641 60.3571 72.7618 60.6821ZM80.9821 58.4075L80.6566 57.4327C81.9588 57.0265 83.3424 56.5391 84.6446 56.0517L84.9702 57.0265C83.668 57.5139 82.2843 57.9201 80.9821 58.4075ZM35.6484 56.9453C34.6718 56.2142 33.6137 55.4831 32.4742 54.9145L32.1487 54.752L32.637 53.7772C32.7998 53.8584 32.8812 53.9396 33.044 53.9396C34.2648 54.5895 35.3229 55.4019 36.2995 56.0517L35.6484 56.9453ZM16.6848 55.4019L15.9523 54.6708C16.8476 53.7772 18.1498 53.0461 19.8589 52.5587L20.1845 53.5335C18.5567 54.0209 17.4173 54.5895 16.6848 55.4019ZM28.242 53.371C27.0212 53.1273 25.8003 52.9648 24.5795 52.9648H24.1726V51.9088C25.6376 51.9088 27.1026 51.99 28.4862 52.315L28.242 53.371ZM35.4856 52.7211L34.4276 52.5587C34.6718 51.1777 34.8345 49.7967 34.8345 48.4157H35.8926C35.8926 49.8779 35.7298 51.2589 35.4856 52.7211Z" fill="#00C8B7"/>
<path d="M89.0396 55.4831L88.6327 54.5083C89.2838 54.2646 89.9349 54.0209 90.586 53.7772L90.993 54.752C90.3419 54.9957 89.6907 55.2394 89.0396 55.4831Z" fill="#00C8B7"/>
<path d="M122.246 81.1531C121.677 81.1531 121.27 80.7469 121.188 80.1782C121.107 79.6096 121.595 79.1222 122.165 79.041C128.513 78.3911 134.373 75.3854 138.687 70.5114C139.094 70.1052 139.745 70.024 140.152 70.4301C140.559 70.8363 140.64 71.4862 140.233 71.8923C135.594 77.1726 129.246 80.5032 122.328 81.1531C122.328 81.1531 122.328 81.1531 122.246 81.1531Z" fill="#00C8B7"/>
<path d="M109.387 80.4219L72.599 102.03L35.8926 80.4219V80.3407C35.8926 80.1782 37.9273 78.4723 41.0201 76.0353L41.1015 75.9541C51.2751 67.7494 72.599 50.9339 72.599 50.9339C72.599 50.9339 94.0044 67.7494 104.097 76.0353C107.271 78.5535 109.387 80.2595 109.387 80.4219Z" fill="#7A4C08"/>
<path d="M87.7374 32.9811H48.101C44.6826 32.9811 41.9154 35.7431 41.9154 39.1549V99.0246C41.9154 102.436 44.6826 105.198 48.101 105.198H97.8297C101.248 105.198 104.015 102.436 104.015 99.0246V49.1468L87.7374 32.9811Z" fill="white"/>
<path d="M87.7374 42.973C87.7374 46.3848 90.5047 49.1468 93.923 49.1468H103.934L87.7374 32.9811V42.973Z" fill="#E6E8E8"/>
<path d="M67.146 43.1354H53.4726C52.2518 43.1354 51.2751 44.1102 51.2751 45.3288V58.9761C51.2751 60.1946 52.2518 61.1694 53.4726 61.1694H67.146C68.3668 61.1694 69.3435 60.1946 69.3435 58.9761V45.3288C69.3435 44.1102 68.3668 43.1354 67.146 43.1354Z" fill="#82EBE3"/>
<path d="M85.9469 66.1247H53.0657C52.089 66.1247 51.2751 66.937 51.2751 67.9118C51.2751 68.8866 52.089 69.699 53.0657 69.699H85.9469C86.9235 69.699 87.7374 68.8866 87.7374 67.9118C87.7374 66.937 86.9235 66.1247 85.9469 66.1247Z" fill="#D9DBDB"/>
<path d="M85.9469 74.9792H53.0657C52.089 74.9792 51.2751 75.7916 51.2751 76.7664C51.2751 77.7412 52.089 78.5536 53.0657 78.5536H85.9469C86.9235 78.5536 87.7374 77.7412 87.7374 76.7664C87.7374 75.7104 86.9235 74.9792 85.9469 74.9792Z" fill="#D9DBDB"/>
<path d="M71.0527 83.5089H53.1471C52.1705 83.5089 51.3566 84.3212 51.3566 85.296C51.3566 86.2708 52.1705 87.0832 53.1471 87.0832H71.0527C72.0294 87.0832 72.8433 86.2708 72.8433 85.296C72.7619 84.24 72.0294 83.5089 71.0527 83.5089Z" fill="#D9DBDB"/>
<path d="M109.387 80.4219V115.596C109.387 118.033 107.352 120.064 104.91 120.064H40.369C37.9273 120.064 35.8926 118.033 35.8926 115.596V80.4219L72.6804 102.03L109.387 80.4219Z" fill="#FFB031"/>
<path d="M108.166 118.764L84.4818 95.1253L72.599 102.111L60.7162 95.1253L37.032 118.764C37.8459 119.658 38.9853 120.145 40.2875 120.145H104.91C106.213 120.145 107.352 119.577 108.166 118.764Z" fill="#FF9433"/>
<path d="M116.793 32.0875C106.213 33.1436 97.7482 41.8357 97.0157 52.3961C96.6088 57.6763 98.1552 62.5504 100.922 66.5309C101.98 67.9931 102.143 69.9427 101.411 71.6486L99.7016 75.8728L106.864 74.0044C108.003 73.6795 109.224 73.7607 110.364 74.2481C113.7 75.7103 117.363 76.3602 121.351 75.954C131.769 74.9792 140.152 66.6121 141.129 56.2141C142.431 42.3231 130.792 30.7878 116.793 32.0875Z" fill="#00C8B7"/>
<path d="M119.642 65.2312L120.863 64.0126C120.863 64.0126 119.886 61.7381 123.956 57.9201C126.397 55.6455 126.886 53.4522 126.723 51.665C126.397 48.8218 124.037 46.466 121.188 46.1411C119.398 45.9786 117.2 46.466 114.921 48.9031C111.096 52.9648 108.817 51.99 108.817 51.99L107.596 53.2085L119.642 65.2312Z" fill="white"/>
<path d="M110.282 57.7576C109.306 59.0574 109.468 60.9258 110.608 62.063C111.747 63.2003 113.619 63.3628 114.921 62.388L110.282 57.7576Z" fill="white"/>
<path d="M127.537 47.5221L126.804 48.2532C126.234 47.3596 125.421 46.5473 124.444 45.9786L125.176 45.2475C125.827 44.5977 126.886 44.5977 127.537 45.2475C128.106 45.8974 128.106 46.8722 127.537 47.5221Z" fill="white"/>
<path d="M118.502 32.0063C126.397 34.3621 132.094 41.592 132.094 50.284C132.094 60.8445 123.549 69.3741 112.968 69.3741C107.434 69.3741 102.469 67.0183 98.9691 63.2003C99.5388 64.4188 100.19 65.5561 100.922 66.6121C101.98 68.0744 102.143 70.024 101.411 71.7299L99.7016 75.9541L106.864 74.0857C108.003 73.7607 109.224 73.842 110.364 74.3294C113.7 75.7916 117.363 76.4415 121.351 76.0353C131.769 75.0605 140.152 66.6934 141.129 56.2954C142.349 42.8917 131.687 31.6814 118.502 32.0063Z" fill="#08B29D"/>
<path d="M3.41838 13.7286L8.22034 24.7765C8.4645 25.3451 8.22034 25.995 7.65061 26.2387L7.48784 26.3199C6.91811 26.5636 6.267 26.3199 6.02283 25.7513L1.38366 14.6222C1.13949 14.0535 1.46505 13.4037 2.03477 13.16C2.60449 12.9163 3.25561 13.16 3.41838 13.7286Z" fill="#FFB031"/>
<path d="M22.382 91.4698C20.4287 91.4698 18.8009 93.0945 18.8009 95.0441C18.8009 96.9937 20.4287 98.6184 22.382 98.6184C24.3354 98.6184 25.9631 96.9937 25.9631 95.0441C25.8817 93.0945 24.3354 91.4698 22.382 91.4698ZM22.382 96.4251C21.5681 96.4251 20.917 95.7752 20.917 94.9629C20.917 94.1505 21.5681 93.5006 22.382 93.5006C23.1959 93.5006 23.847 94.1505 23.847 94.9629C23.7656 95.7752 23.1145 96.4251 22.382 96.4251Z" fill="#BAF4EE"/>
<path d="M117.363 105.767C115.41 105.767 113.782 107.392 113.782 109.341C113.782 111.291 115.41 112.916 117.363 112.916C119.316 112.916 120.944 111.291 120.944 109.341C120.944 107.392 119.316 105.767 117.363 105.767ZM117.363 110.804C116.549 110.804 115.898 110.154 115.898 109.341C115.898 108.529 116.549 107.879 117.363 107.879C118.177 107.879 118.828 108.529 118.828 109.341C118.828 110.154 118.177 110.804 117.363 110.804Z" fill="#BAF4EE"/>
<path d="M146.338 50.8527C144.873 50.8527 143.652 52.0712 143.652 53.5334C143.652 54.9956 144.873 56.2141 146.338 56.2141C147.803 56.2141 149.023 54.9956 149.023 53.5334C149.105 52.0712 147.884 50.8527 146.338 50.8527ZM146.338 54.6707C145.768 54.6707 145.198 54.1833 145.198 53.5334C145.198 52.9648 145.686 52.3961 146.338 52.3961C146.907 52.3961 147.477 52.8835 147.477 53.5334C147.477 54.102 146.989 54.6707 146.338 54.6707Z" fill="#BAF4EE"/>
<path d="M98.5621 7.47357C97.0157 7.47357 95.7135 8.77332 95.7135 10.3168C95.7135 11.8602 97.0157 13.16 98.5621 13.16C100.109 13.16 101.411 11.8602 101.411 10.3168C101.411 8.77332 100.19 7.47357 98.5621 7.47357ZM98.5621 11.5353C97.911 11.5353 97.4227 11.0479 97.4227 10.398C97.4227 9.74813 97.911 9.26073 98.5621 9.26073C99.2132 9.26073 99.7016 9.74813 99.7016 10.398C99.7016 10.9666 99.2132 11.5353 98.5621 11.5353Z" fill="#BAF4EE"/>
<path d="M6.75529 80.2594C8.41844 80.2594 9.76669 78.9138 9.76669 77.2538C9.76669 75.5938 8.41844 74.2481 6.75529 74.2481C5.09214 74.2481 3.7439 75.5938 3.7439 77.2538C3.7439 78.9138 5.09214 80.2594 6.75529 80.2594Z" fill="#BAF4EE"/>
<path d="M127.862 88.6266C129.076 88.6266 130.06 87.6446 130.06 86.4333C130.06 85.2219 129.076 84.2399 127.862 84.2399C126.649 84.2399 125.665 85.2219 125.665 86.4333C125.665 87.6446 126.649 88.6266 127.862 88.6266Z" fill="#BAF4EE"/>
<path d="M55.1817 14.7846C56.9348 14.7846 58.3559 13.3662 58.3559 11.6165C58.3559 9.86679 56.9348 8.44836 55.1817 8.44836C53.4287 8.44836 52.0076 9.86679 52.0076 11.6165C52.0076 13.3662 53.4287 14.7846 55.1817 14.7846Z" fill="#BAF4EE"/>
<path d="M72.3549 129.081C73.6585 129.081 74.7152 128.026 74.7152 126.725C74.7152 125.424 73.6585 124.37 72.3549 124.37C71.0514 124.37 69.9946 125.424 69.9946 126.725C69.9946 128.026 71.0514 129.081 72.3549 129.081Z" fill="#BAF4EE"/>
<path d="M117.607 26.2387C119.135 26.2387 120.374 25.0021 120.374 23.4767C120.374 21.9514 119.135 20.7148 117.607 20.7148C116.079 20.7148 114.84 21.9514 114.84 23.4767C114.84 25.0021 116.079 26.2387 117.607 26.2387Z" fill="#BAF4EE"/>
<path d="M20.3473 45.0851C21.2013 45.0851 21.8937 44.394 21.8937 43.5416C21.8937 42.6892 21.2013 41.9982 20.3473 41.9982C19.4932 41.9982 18.8009 42.6892 18.8009 43.5416C18.8009 44.394 19.4932 45.0851 20.3473 45.0851Z" fill="#BAF4EE"/>
<path d="M147.314 42.4855C148.798 42.4855 150 41.2853 150 39.8048C150 38.3243 148.798 37.1241 147.314 37.1241C145.831 37.1241 144.628 38.3243 144.628 39.8048C144.628 41.2853 145.831 42.4855 147.314 42.4855Z" fill="#BAF4EE"/>
<path d="M5.29022 54.6706C6.23417 54.6706 6.99939 53.9069 6.99939 52.9647C6.99939 52.0226 6.23417 51.2588 5.29022 51.2588C4.34628 51.2588 3.58105 52.0226 3.58105 52.9647C3.58105 53.9069 4.34628 54.6706 5.29022 54.6706Z" fill="#BAF4EE"/>
<path d="M76.7499 2.68074L77.8079 1.6247C78.2149 1.21853 78.2149 0.649887 77.8079 0.243715C77.401 -0.162456 76.8313 -0.162456 76.4243 0.243715L75.3663 1.29976L74.3082 0.243715C73.9013 -0.162456 73.3315 -0.162456 72.9246 0.243715C72.5176 0.649887 72.5176 1.21853 72.9246 1.6247L74.064 2.68074L73.006 3.73679C72.599 4.14296 72.599 4.7116 73.006 5.11777C73.4129 5.52394 73.9827 5.52394 74.3896 5.11777L75.3663 4.06173L76.4243 5.11777C76.8313 5.52394 77.401 5.52394 77.8079 5.11777C78.2149 4.7116 78.2149 4.14296 77.8079 3.73679L76.7499 2.68074Z" fill="#BAF4EE"/>
<path d="M4.06946 34.9307L5.12752 33.8747C5.53446 33.4685 5.53446 32.8999 5.12752 32.4937C4.72057 32.0875 4.15085 32.0875 3.7439 32.4937L2.68585 33.5498L1.62779 32.4937C1.22084 32.0875 0.651119 32.0875 0.244174 32.4937C-0.162771 32.8999 -0.162771 33.4685 0.244174 33.8747L1.38362 34.9307L0.325563 35.9868C-0.0813824 36.393 -0.0813824 36.9616 0.325563 37.3678C0.732508 37.7739 1.30223 37.7739 1.70918 37.3678L2.76723 36.3117L3.82529 37.3678C4.23224 37.7739 4.80196 37.7739 5.20891 37.3678C5.61585 36.9616 5.61585 36.393 5.20891 35.9868L4.06946 34.9307Z" fill="#BAF4EE"/>
<path d="M129.978 99.9994L130.874 99.1058C131.199 98.7809 131.199 98.2935 130.874 97.9686C130.548 97.6436 130.06 97.6436 129.734 97.9686L128.839 98.8621L127.944 97.9686C127.618 97.6436 127.13 97.6436 126.804 97.9686C126.479 98.2935 126.479 98.7809 126.804 99.1058L127.699 99.9994L126.804 100.893C126.479 101.218 126.479 101.705 126.804 102.03C127.13 102.355 127.618 102.355 127.944 102.03L128.839 101.137L129.734 102.03C130.06 102.355 130.548 102.355 130.874 102.03C131.199 101.705 131.199 101.218 130.874 100.893L129.978 99.9994Z" fill="#BAF4EE"/>
</g>
<defs>
<clipPath id="clip0">
<rect width="150" height="129" fill="white"/>
</clipPath>
</defs>
</svg>
