<?xml version="1.0" encoding="utf-8"?>
<!-- Generator: Adobe Illustrator 15.1.0, SVG Export Plug-In . SVG Version: 6.00 Build 0)  -->
<!DOCTYPE svg PUBLIC "-//W3C//DTD SVG 1.1//EN" "http://www.w3.org/Graphics/SVG/1.1/DTD/svg11.dtd">
<svg version="1.1" id="Layer_1" xmlns="http://www.w3.org/2000/svg" xmlns:xlink="http://www.w3.org/1999/xlink" x="0px" y="0px"
	 width="717.187px" height="274px" viewBox="0 0 717.187 274" enable-background="new 0 0 717.187 274" xml:space="preserve">
<path fill="#f4f4f4" d="M306.626,243.164c16.521,1.016,21.472,24.127,23.521,24.348c33-21.834,72.333-22.666,110.797-19.115
	c2.662-0.037,5.078,0.055,7.209,0.316c2.062,0.225,4.13,0.457,6.202,0.697c89.134,10.318,233.097,35.469,257.552-63.84
	c6.291-25.549,4.808-30.361,5.239-59.325c0.433-28.963-2.266-41.816-22.551-71.726C660.881,4.808,551.599,9.117,515.584,5.578
	C412.38-4.564,89.972,9.68,49.013,13.566C-6.818,18.864,0.293,115.197,0.293,163.59C0.293,287.891,237.684,238.934,306.626,243.164z
	"/>
</svg>
