<svg xmlns="http://www.w3.org/2000/svg" width="6192" height="528.192"><path fill="#FFF" d="M6192 239.009c-171.438 95.419-114.621 5.083-298.219-16.774-112.164-13.353-228.121 46.055-359.928 11.977-109.336-28.269-204.262-91.671-290.334-161.561-67.061-54.455-44.727-78.465-142.348-71.465-42.682 3.061-115.803 37.159-151.443 60.298-119.768 77.758-125.285 155.142-281.611 154.752-119.076-.297-186.061-52.851-294.273-30.271-93.238 19.456-136.34 70.043-237.422-13.193-77.822-64.084-78.951-161.791-216.127-130.928-121.105 27.248-199.201 159.28-269.658 246.337-97.559 120.545-199.031 128.891-337.383 79.095-65.859-23.704-65.129-63.105-154.518-42.015-60.082 14.176-80.547 49.488-144.996 53.082-207.291 11.562-231.502-329.079-420.803-238.916-136.715 65.116-229.234 365.178-431.625 213.725-82.205-61.514-52.275-173.547-181.148-161.049-121.625 11.795-117.779 155.498-209.82 201.281-93.104 46.312-183.9-35.637-253.744-65.626-118.18-50.744-129.709 15.595-247.293 48.205-197.727 54.836-204.59-233.554-390.072-185.227-208.627 54.356-235.861 273.18-487.419 192.132-87.442-28.173-135.987-65.249-232.17-28.948C70.524 387.556 48.9 492.508 0 528.192h6192V239.009z"/></svg>