<svg xmlns="http://www.w3.org/2000/svg" width="6192" height="438.946"><path fill="#FFF" d="M0 431.998c48.255-169.341 239.266-284.385 398.321-210.221C625.067 327.503 576.791 414.744 840 318.219c186.123-68.256 197.525 97.051 394.137-4.412 199.117-102.757 274.223-235.15 495.458-134.276 105.585 48.142 173.419 118.507 300.212 116.468 62.193-1 126.36-52.985 160.414-54.79 78.779-4.175 63.569 56.771 153.579 117.454 260.967 175.939 388.922-78.655 626.606-132.628 247.618-56.228 318.326 238.178 568.2 198.149 94.441-15.129 142.181-110.028 220.98-153.965 117.85-65.708 155.979-36.824 264.385-15.174 84.57 16.89 117.255 30.189 199.787.513 84.986-30.56 134.191-130.147 239.288-129.725 121.481.489 157.447 93.828 248.953 169.937 113.965 94.79 202.678 122.108 352 136.044 227 21.185 379.473-131.627 569.595-55.402 116.568 46.736 90.405 89.587 182.477 41.311 137.354-72.02 179.638-194.818 375.929-121.724V0H0v431.998z"/></svg>