<svg xmlns="http://www.w3.org/2000/svg" xmlns:xlink="http://www.w3.org/1999/xlink" width="6192" height="1086.864">
	<path id="waves" fill="#FFF" x="0" d="M6192 797.682c-171.438 95.419-114.621 5.083-298.219-16.774-112.164-13.353-228.121 46.055-359.928 11.977-109.336-28.269-204.262-91.671-290.334-161.561-67.061-54.455-44.727-78.465-142.348-71.465-42.682 3.061-115.803 37.159-151.443 60.298-119.768 77.758-125.285 155.142-281.611 154.752-119.076-.297-186.061-52.851-294.273-30.271-93.238 19.456-136.34 70.043-237.422-13.193-77.822-64.084-78.951-161.791-216.127-130.928-121.105 27.248-199.201 159.28-269.658 246.337-97.559 120.545-199.031 128.891-337.383 79.095-65.859-23.704-65.129-63.105-154.518-42.015-60.082 14.176-80.547 49.488-144.996 53.082-207.291 11.562-231.502-329.079-420.803-238.916-136.715 65.116-229.234 365.178-431.625 213.725-82.205-61.514-52.275-173.547-181.148-161.049-121.625 11.795-117.779 155.498-209.82 201.281-93.104 46.312-183.9-35.637-253.744-65.626-118.18-50.744-129.709 15.595-247.293 48.205-197.727 54.836-204.59-233.554-390.072-185.227-208.627 54.356-235.861 273.18-487.419 192.132-87.442-28.173-135.987-65.249-232.17-28.948C70.524 946.229 48.9 1051.181 0 1086.864h6192V797.682zM0 431.997c48.255-169.341 239.266-284.385 398.32-210.221C625.066 327.503 576.791 414.743 840 318.219c186.123-68.256 197.524 97.051 394.137-4.412 199.117-102.757 274.223-235.149 495.458-134.276C1835.18 227.674 1903.014 298.039 2029.807 296c62.193-1 126.359-52.985 160.414-54.79 78.779-4.175 63.568 56.771 153.579 117.453 260.967 175.939 388.922-78.654 626.605-132.627 247.618-56.229 318.326 238.178 568.2 198.148 94.441-15.129 142.181-110.028 220.98-153.965 117.85-65.708 155.979-36.824 264.385-15.174 84.57 16.89 117.255 30.188 199.787.513 84.985-30.56 134.19-130.146 239.287-129.725 121.481.488 157.447 93.828 248.953 169.937 113.965 94.79 202.679 122.108 352 136.044 227 21.186 379.474-131.627 569.596-55.402 116.567 46.736 90.404 89.588 182.477 41.312C5953.424 345.703 5995.709 222.906 6192 296V0H0v431.997z"/>	
</svg>