<svg id="Group_468" data-name="Group 468" xmlns="http://www.w3.org/2000/svg" viewBox="0 0 634.653 567.362"><defs><style>.cls-1{fill:#eaecef}.cls-3{fill:#fab9af}.cls-4{fill:#46738c}.cls-5{fill:#fa968c}.cls-7{fill:#1f99c0}.cls-9{fill:#fff}.cls-13{fill:#046aa2}.cls-14{fill:#0091c8}.cls-15{fill:#ff640a}.cls-16{fill:#41b4e6}.cls-19{fill:#aac85a}.cls-21{fill:#6c9baa}.cls-22{fill:#ff8c46}.cls-23{fill:#823264}.cls-24{fill:#c3417d}.cls-26{fill:#fa870a}.cls-27{fill:#965028}.cls-31{fill:#ffa50a}.cls-32{fill:#3c5a73}.cls-34{fill:#50555a}.cls-35,.cls-39{fill:none;stroke-miterlimit:10;stroke:#fff;stroke-width:.779px}.cls-39{stroke:#ffd23c}</style></defs><g id="Group_459" data-name="Group 459"><path id="Path_861" data-name="Path 861" class="cls-1" d="M39.3 130.756a126.7 126.7 0 0 1-19.13 98.936C7.3 248.645 0 270.206 0 293.157c0 73.9 75.289 133.886 168.313 133.886 33.732 0 65.03-7.824 91.286-21.387a144.949 144.949 0 0 1 88.33-14.606 343.029 343.029 0 0 0 54.25 4.173c128.322 0 232.474-68.334 232.474-152.664 0-68.855-69.551-127.1-165.184-146.057a141.8 141.8 0 0 1-73.029-39.644C363.056 22.778 301.156 0 230.388 0 123.8 0 37.558 51.642 37.558 115.281a66 66 0 0 0 1.742 15.475z"/><path id="Path_862" data-name="Path 862" d="M551.081 267.167H20.233a6.419 6.419 0 0 1-6.433-6.434 6.419 6.419 0 0 1 6.433-6.433h530.848a6.419 6.419 0 0 1 6.434 6.433 6.533 6.533 0 0 1-6.434 6.434z" transform="translate(10.195 187.87)" fill="#87afb9"/></g><g id="Group_467" data-name="Group 467" transform="translate(43.053 69.551)"><g id="Group_466" data-name="Group 466"><path id="Path_863" data-name="Path 863" class="cls-3" d="M218.589 315.818l-4.695-16.692a2.379 2.379 0 0 0-4.347-.522l-.348.522a8.207 8.207 0 0 0-.7 5.738c1.739 6.607 2.087 11.65.869 14.78-.174.7.174 1.565.869 1.565 4.527.52 6.963-2.609 8.352-5.391z" transform="translate(110.803 150.174)"/><path id="Path_864" data-name="Path 864" class="cls-4" d="M213.2 312.395a22.836 22.836 0 0 0 5.564-1.739 18.069 18.069 0 0 0 4.173-2.956l2.782 3.825a2.17 2.17 0 0 1-.7 3.3c-5.912 3.13-20.865 11.128-21.561 10.607-3.475-2.083 4.523-7.473 9.742-13.037z" transform="translate(106.631 157.77)"/><path id="Path_865" data-name="Path 865" class="cls-3" d="M78 168.106s10.607-30.255 9.911-38.253a7.693 7.693 0 0 0-7.477-6.955h-6.607a2.377 2.377 0 0 1-2.434-2.434l-.348-8.694-7.477-.869-2.956 10.259a2.456 2.456 0 0 1-2.434 1.739h-3.13a7.867 7.867 0 0 0-7.824 7.651c-.348 10.259 6.433 38.6 6.433 38.6s-13.736 39.3-10.78 42.6c0 0 40.166-3.3 47.121-11.3C95.736 193.492 78 168.106 78 168.106z" transform="translate(-11.685 12.379)"/><path id="Path_866" data-name="Path 866" class="cls-5" d="M189.822 217.086s6.955.869 7.824-1.217 1.217-3.478-1.739-5.042-7.477-2.087-10.433-1.913-7.651 2.434-8 2.956c-1.217 2.087 4 1.217 6.433 1.043 2.608-.348 5.39-.348 5.216.869s-5.042 1.391-5.738 2.782 6.437.522 6.437.522z" transform="translate(87.928 84.766)"/><path id="Rectangle_25" data-name="Rectangle 25" transform="translate(273.752 286.202)" fill="#064e89" d="M0 0h11.65v4.347H0z"/><g id="Group_460" data-name="Group 460" transform="translate(189.943 291.245)"><path id="Path_867" data-name="Path 867" class="cls-7" d="M152.431 288.875l63.118-62.944 62.944 62.944h18.431L215.549 207.5 134 288.875z" transform="translate(-134 -207.5)"/></g><path id="Rectangle_26" data-name="Rectangle 26" class="cls-7" transform="translate(265.406)" d="M0 0h12.171v357.666H0z"/><path id="Rectangle_27" data-name="Rectangle 27" transform="translate(114.828 42.6)" fill="#83b2d8" d="M0 0h317.674v201.524H0z"/><g id="Group_461" data-name="Group 461" transform="translate(102.308 29.907)"><path id="Path_868" data-name="Path 868" class="cls-9" d="M401.622 69.893a12.393 12.393 0 0 1 12.345 12.345v189.179H96.119V82.064a12.393 12.393 0 0 1 12.345-12.345h293.158m0-12.519H108.464A24.859 24.859 0 0 0 83.6 82.064v201.7h342.713v-201.7A24.822 24.822 0 0 0 401.622 57.2z" transform="translate(-83.6 -57.2)"/></g><path id="Path_869" data-name="Path 869" d="M443.9 180.4H76.5a16.882 16.882 0 0 0 16.866 16.866h333.845A16.959 16.959 0 0 0 443.9 180.4z" transform="translate(13.463 63.724)" fill="#f2f2f2"/><path id="Rectangle_28" data-name="Rectangle 28" transform="translate(126.477 231.431)" fill="#0d82b1" d="M0 0h35.993v12.519H0z"/><path id="Path_870" data-name="Path 870" d="M154.625 183.06H127.5l2.782-6.26h27.125z" transform="translate(51.141 61.064)" fill="#4bd0e3"/><path id="Rectangle_29" data-name="Rectangle 29" class="cls-13" transform="translate(263.841 282.203)" d="M0 0h15.301v12.345H0z"/><path id="Path_871" data-name="Path 871" class="cls-13" d="M190.987 211.672H188.9V203.5h2.087a1.742 1.742 0 0 1 1.739 1.739v4.695a1.643 1.643 0 0 1-1.739 1.738z" transform="translate(96.501 80.79)"/><path id="Rectangle_30" data-name="Rectangle 30" class="cls-13" transform="translate(332.522 138.928)" d="M0 0h73.029v64.161H0z"/><path id="Rectangle_31" data-name="Rectangle 31" class="cls-14" transform="translate(332.522 138.928)" d="M0 0h73.029v14.084H0z"/><path id="Path_872" data-name="Path 872" class="cls-15" d="M57.22 116.541h-2.608a5.863 5.863 0 0 1-5.912-5.912V103.5h8.52z" transform="translate(-7.075 6.912)"/><path id="Path_873" data-name="Path 873" class="cls-15" d="M62.256 112.38c-4.695 4.695-11.476 5.216-15.3 1.391s-3.13-10.607 1.391-15.3c4.695-4.695 11.476-5.216 15.3-1.391 3.826 3.998 3.13 10.779-1.391 15.3z" transform="translate(-10.198 .292)"/><path id="Path_874" data-name="Path 874" class="cls-16" d="M203.422 262.487c-6.086 6.086-52.685 55.641-50.077 57.206 2.26 1.391 57.032-38.079 63.118-44.165s8.172-14.084 4.521-17.562c-3.478-3.651-11.303-1.566-17.562 4.521z" transform="translate(70.156 119.696)"/><path id="Path_875" data-name="Path 875" class="cls-16" d="M245.456 236.758c-10.607 3.825-67.464 37.036-64.509 45.382s65.552-10.085 76.158-13.91 16-15.127 13.041-23.473-14.084-11.824-24.69-7.999z" transform="translate(90.544 104.215)"/><path id="Path_876" data-name="Path 876" class="cls-3" d="M156.767 303.471l12.345-12.171a2.341 2.341 0 0 0-1.739-4h-.522a7.629 7.629 0 0 0-5.39 2.26c-4.869 4.695-9.216 7.477-12.345 8a1.135 1.135 0 0 0-.869 1.565c1.565 3.824 5.39 4.52 8.52 4.346z" transform="translate(66.386 142.699)"/><path id="Path_877" data-name="Path 877" d="M215.162 291.008c-3.825 3.825-37.558 30.95-54.6 42.6-4-1.739-4.869-2.434-5.564-5.564 11.824-13.389 37.21-44.339 43.3-50.6 6.781-9.737 56.51-37.036 66.421-40.687 10.607-3.825 21.735-.348 24.691 8s-2.434 19.474-13.041 23.473c-6.958 2.435-58.599 20.17-61.207 22.778z" transform="translate(71.457 104.215)" fill="#0073aa"/><path id="Path_878" data-name="Path 878" d="M255.324 244.757c-2.956-8.346-14.084-11.824-24.691-8-1.217.522-3.3 1.391-5.738 2.608A54 54 0 0 1 212.55 265.1a55.982 55.982 0 0 0-7.3 10.433c-1.391 2.434-2.782 5.042-4.347 7.477 16.171-5.912 37.036-13.215 41.383-14.78 10.777-3.999 16.167-15.301 13.038-23.473z" transform="translate(105.367 104.215)" fill="#195fa0"/><path id="Path_879" data-name="Path 879" class="cls-14" d="M201.668 269.064a9.642 9.642 0 0 1 1.043-1.391c5.042-5.39 21.909-15.127 36.862-22.952 13.562-7.129 30.081 2.434 30.081 17.735v.522c0 .869 1.217-.869 1.217 0-12.345 4.347-36.167 14.084-47.816 19.3a6.809 6.809 0 0 0-4 6.781c1.391 14.606 3.3 41.035 3.3 56.336l-6.955 3.3c-5.738-19.3-14.258-59.292-15.649-65.378-.865-5.559-.169-10.949 1.917-14.253z" transform="translate(104.251 109.467)"/><path id="Path_880" data-name="Path 880" class="cls-5" d="M265.048 215.5c-11.3 19.3-32.689 28.69-59.292 17.736a95.9 95.9 0 0 1-18.256-10.957 2.464 2.464 0 0 1-.522-3.3 2.413 2.413 0 0 1 2.956-.7c24.865 12 50.424 13.91 61.031-11.3.174-.174.348-.7.174-.7a8.262 8.262 0 0 1 10.78-4.521c3.825 1.394 7.824 6.089 3.129 13.742z" transform="translate(94.773 79.051)"/><path id="Path_881" data-name="Path 881" class="cls-3" d="M257.329 208.575l-4.173-.869a2.228 2.228 0 0 1-1.739-1.913l-1.739-12.693-9.389.348-1.043 8.868a2.332 2.332 0 0 1-2.608 1.913l-5.042-1.043a7.109 7.109 0 0 0-4.695.522c.348 5.216 1.391 9.911 6.433 13.041 6.26 3.825 14.78 5.042 21.909 4.173a32.636 32.636 0 0 0 8.346-2.087c0-.348.174-.522.174-.869a8.2 8.2 0 0 0-6.434-9.391z" transform="translate(124.575 73.106)"/><path id="Path_882" data-name="Path 882" class="cls-19" d="M216.7 216.194c2.434-2.26 11.824-11.3 13.562-13.736v-.174c.174-.174.348-.348.348-.522a8.271 8.271 0 1 1 12.69 10.606 132.089 132.089 0 0 1-8 8.694c-1.913 1.739-3.825 3.478-5.912 5.216-6.602-2.608-12.688-10.084-12.688-10.084z" transform="translate(117.039 77.312)"/><path id="Path_883" data-name="Path 883" d="M241.542 198.979l4.173.869a9.972 9.972 0 0 0 8 8 9.752 9.752 0 0 0 10.607-4l3.825.869a7.428 7.428 0 0 1 5.738 8.52c-1.913 10.259-5.216 29.907-7.824 47.99-1.739 12.345-1.391 24.517-2.956 31.3a4.531 4.531 0 0 1-5.912 3.3c-10.085-3.3-40.687-14.258-43.991-28.168 8.346-7.477 17.214-55.293 19.648-63.291a7.274 7.274 0 0 1 8.692-5.389z" transform="translate(114.454 77.313)" fill="#82be50"/><path id="Path_884" data-name="Path 884" class="cls-21" d="M239.8 201.414h.522a7.015 7.015 0 0 0 7.651-6.26l.869-10.259-7.477-.7z" transform="translate(134.105 66.531)"/><path id="Path_885" data-name="Path 885" class="cls-5" d="M235.043 193.548l9.389-.348.869 5.912c-2.26 2.087-5.042 4.521-8.346 4.173a6.312 6.312 0 0 1-2.955-1.217z" transform="translate(129.82 73.18)"/><path id="Path_886" data-name="Path 886" class="cls-3" d="M238.5 207.764a11.61 11.61 0 0 0 12.519-10.433l1.217-12.693-19.648-1.738s-.869 9.911-.174 16.692c.696 5.043 2.957 7.825 6.086 8.172z" transform="translate(128.45 65.571)"/><path id="Rectangle_32" data-name="Rectangle 32" class="cls-21" transform="rotate(-174.87 196.459 119.659)" d="M0 0h3.651v1.739H0z"/><path id="Path_887" data-name="Path 887" class="cls-3" d="M241.209 191.378c-.174 2.434.7 4.521 2.26 4.695 1.391.174 3.3-2.956 3.651-5.39.174-2.434-1.391-3.478-2.782-3.478-1.564-.174-2.955 1.738-3.129 4.173z" transform="translate(135.13 68.743)"/><path id="Path_888" data-name="Path 888" class="cls-21" d="M231.381 190.785a11.512 11.512 0 0 1 .174-4.869s.522-5.738 2.782-6.607c2.087-.869 5.39.7 7.651 1.391 1.565.522 6.607.522 6.607.522a7.223 7.223 0 0 1 6.607 7.824l-.174 1.565-3.478 2.782-1.217 2.956h-.174a2.3 2.3 0 0 1-2.087-2.434 3.987 3.987 0 0 0-3.3-4.173l-5.912-.522c-3.651-.348-5.564 1.391-5.912 4.173v2.26z" transform="translate(127.745 62.729)"/><path id="Path_889" data-name="Path 889" class="cls-3" d="M293.169 213.278c-13.041 39.822-55.469 51.294-101.892 5.912a2.418 2.418 0 0 1 0-3.3 2.394 2.394 0 0 1 2.956-.348c35.123 22.952 68.508 31.993 83.287-7.3v-.174c1.565-4 5.738-6.607 9.911-5.564a8.84 8.84 0 0 1 5.738 10.774z" transform="translate(97.776 79.879)"/><g id="Group_462" data-name="Group 462" transform="translate(367.819 282.07)"><path id="Path_890" data-name="Path 890" class="cls-19" d="M236.3 221.309a101.942 101.942 0 0 0 7.824-14.084l-.174.174.7-.869c2.434-5.042 8.346-5.216 12.693-2.782a.17.17 0 0 1 .174.174c3.13 1.913 3.13 7.3 2.782 9.737-.348 2.782-.522 8.346-11.128 19.648-.004-.174-9.571-5.043-12.871-11.998z" transform="translate(-236.3 -202.223)"/></g><path id="Path_891" data-name="Path 891" class="cls-3" d="M190.557 214.443s1.043 6.781 3.3 7.129 3.651.174 4.347-2.956 0-7.824-1.043-10.607c-.869-2.782-4.521-6.607-5.042-6.781-2.434-.7-.174 4.173.869 6.433 1.043 2.434 1.913 5.042.522 5.216s-2.782-4.521-4.347-4.869c-1.389.002 1.394 6.435 1.394 6.435z" transform="translate(96.41 79.062)"/><path id="Path_892" data-name="Path 892" class="cls-22" d="M65.517 102.9a12.276 12.276 0 0 0-.517 7.824 13.04 13.04 0 0 1-2.782 12.519 49.908 49.908 0 0 0-1.739-8.346c-1.048-2.781-.352-10.606 5.038-11.997z" transform="translate(1.321 6.469)"/><path id="Path_893" data-name="Path 893" class="cls-15" d="M59.1 102.628s7.3 4.521 6.433 10.78c0 0 3.825-2.782 4.869-12.345.522-6.433-11.302 1.565-11.302 1.565z" transform="translate(.608 3.263)"/><path id="Path_894" data-name="Path 894" class="cls-3" d="M75.926 130.161c-.7 14.78 4.869 21.039 4.869 21.039-.174 0-.174.348.522 0a8.728 8.728 0 0 0 2.434-1.739c8.694-8.868 17.214-37.036 16.692-35.3a2.335 2.335 0 0 1 4.521 1.043 166.647 166.647 0 0 1-3.825 20.691c-.348 1.739-.869 3.478-1.391 5.216-13.39 39.648-38.254 22.089-39.648-10.95a8.006 8.006 0 0 1 16-.7c-.174.178-.174.352-.174.7z" transform="translate(1.345 13.636)"/><path id="Path_895" data-name="Path 895" class="cls-5" d="M50.868 241l.7 16.344v.348l-1.043 5.912A3.719 3.719 0 0 0 54 267.955c7.3.174 21.387.522 21.735-.174 2.087-3.3-7.3-4.869-14.258-7.3-4.695-1.565-4-15.823-3.478-22.082a1.461 1.461 0 0 0-2.26-1.391l-4.173 2.782a1.507 1.507 0 0 0-.698 1.21z" transform="translate(-5.766 105.36)"/><path id="Path_896" data-name="Path 896" class="cls-23" d="M61.885 253.191a53.413 53.413 0 0 0 9.216-.869c3.478 1.217 5.912 2.434 4.869 4.347-.522.7-17.04.348-23.473.174a2.17 2.17 0 0 1-2.087-2.608l.348-2.434a48.758 48.758 0 0 0 11.127 1.39z" transform="translate(-5.828 116.473)"/><path id="Path_897" data-name="Path 897" class="cls-5" d="M54.993 272.211a2.532 2.532 0 0 0 2.782-2.26c1.913-23.821 10.78-49.381 11.65-54.6 1.391-8.346-1.217-15.649-6.086-16.518s-9.911 5.216-11.476 13.389c-1.043 5.564-1.565 37.036-1.217 57.38a2.156 2.156 0 0 0 2.087 2.26z" transform="translate(-5.717 77.282)"/><path id="Path_898" data-name="Path 898" class="cls-5" d="M82.309 175.1c-.7 10.954-10.433 79.984-18.953 79.462s-12.519-70.246-11.824-81.2 8-19.474 16.518-18.953 14.781 9.738 14.259 20.691z" transform="translate(-5.039 44.506)"/><path id="Path_899" data-name="Path 899" class="cls-3" d="M75.517 173.3c-.174 10.954-9.215 71.811-17.736 71.638S42.828 183.556 43 172.6s8.694-19.474 17.214-19.3c8.695 0 15.476 9.043 15.303 20z" transform="translate(-11.287 43.702)"/><path id="Path_900" data-name="Path 900" class="cls-24" d="M53.629 163.878s-6.607-29.211-6.26-39.122A7.244 7.244 0 0 1 54.5 117.8h3.825a9.576 9.576 0 0 0 9.216 5.912 9.576 9.576 0 0 0 9.216-5.912h3.478c-3.825 8.172-2.434 19.127 4.173 25.56-2.782 9.911-6.26 19.822-6.26 19.822s17.735 25.386 11.65 32.167c-6.955 8-47.121 11.3-47.121 11.3-2.958-4.349 10.952-42.771 10.952-42.771z" transform="translate(-11.83 17.477)"/><path id="Path_901" data-name="Path 901" class="cls-5" d="M62.494 111.769l-7.477-.869-1.217 4c1.739 1.913 3.825 5.912 6.607 5.912a4.346 4.346 0 0 0 2.434-.7z" transform="translate(-3.307 12.379)"/><path id="Path_902" data-name="Path 902" class="cls-3" d="M64.567 125.417c-2.26 1.043-8.346-.348-10.433-4.695-1.217-2.608-2.434-5.216-2.434-7.477V100.9h18.953a35.516 35.516 0 0 1 0 13.041c-1.044 4.868-4 10.432-6.086 11.476z" transform="translate(-4.858 4.991)"/><path id="Rectangle_33" data-name="Rectangle 33" class="cls-15" transform="translate(45.624 110.586)" d="M0 0h3.651v1.565H0z"/><path id="Path_903" data-name="Path 903" class="cls-3" d="M55.864 108.547c0 2.434-1.217 4.347-2.608 4.347s-2.956-3.13-2.956-5.564 1.565-3.13 2.956-3.13 2.608 1.913 2.608 4.347z" transform="translate(-5.893 7.429)"/><path id="Path_904" data-name="Path 904" class="cls-15" d="M57.255 98.688h6.433A10.622 10.622 0 0 0 68.9 97.3a5.091 5.091 0 0 1 6.607 1.217c1.739 2.26 2.434 5.216-1.913 8.172-2.087 1.391-5.216-.174-7.3.522h-6.083a3.529 3.529 0 0 0-3.478 3.651 2.3 2.3 0 0 1-2.26 2.26H54.3l-.869-2.956-2.956-2.608a.639.639 0 0 1-.174-.522v-1.217a7.015 7.015 0 0 1 6.954-7.131z" transform="translate(-5.893 1.813)"/><path id="Path_905" data-name="Path 905" class="cls-3" d="M89.3 114.677s1.217 6.607-.7 7.651-3.3 1.391-4.869-1.391a23.113 23.113 0 0 1-2.434-9.911c0-2.782 1.913-7.477 2.608-7.824 1.913-1.391 1.391 3.651 1.217 6.26-.174 2.434 0 5.216 1.217 5.042 1.217-.348 1.043-5.042 2.434-5.738 1.047-1.044.527 5.911.527 5.911z" transform="translate(17.009 6.515)"/><path id="Path_906" data-name="Path 906" class="cls-3" d="M106.351 136.608s-6.433-1.739-7.651.174c-1.217 1.739-1.565 3.3.869 5.042a25.912 25.912 0 0 0 9.737 3.3c2.782.174 7.651-1.391 8-1.913 1.391-1.913-3.651-1.739-6.086-1.739s-5.216-.348-4.869-1.565 5.042-.7 5.912-1.913c1.043-1.386-5.912-1.386-5.912-1.386z" transform="translate(29.168 30.837)"/><path id="Path_907" data-name="Path 907" class="cls-24" d="M38.522 220.736c-.348-4-.522-8.172-.522-12.345 0-37.21 14.432-67.291 32.167-67.291s32.167 30.081 32.167 67.291c0 4.173-.174 8.346-.522 12.345a127.817 127.817 0 0 1-63.29 0z" transform="translate(-14.98 34.69)"/><path id="Path_908" data-name="Path 908" d="M75.8 152.668a3.563 3.563 0 0 0 2.782-2.608c-15.3-.7-28.516-11.476-33.384-25.56a140.968 140.968 0 0 0 2.608 17.04 14.41 14.41 0 0 0 12 11.65h.174a53.514 53.514 0 0 0 15.82-.522z" transform="translate(-9.661 22.426)" fill="#aa3c6e"/><path id="Path_909" data-name="Path 909" class="cls-22" d="M67.188 114.493c-9.563 4.521-15.475 0-18.431 4.695 0 0-2.087-9.563 3.651-11.476 6.433-2.26 17.562-3.651 20.691-9.911-.173-.174 3.652 12.171-5.911 16.692z" transform="translate(-7.306 2.7)"/><path id="Path_910" data-name="Path 910" class="cls-3" d="M59.132 124.924v-.174c9.042 26.6 69.377 24.517 82.07 24.691a2.29 2.29 0 0 1 .522 4.521c-15.3 3.13-29.038 5.216-44.86 4.521-51.816-2.783-62.249-38.083-46.774-40.34a7.8 7.8 0 0 1 9.042 6.781z" transform="translate(-10.899 17.655)"/><g id="Group_464" data-name="Group 464" transform="translate(354.952 89.533)"><path id="Path_911" data-name="Path 911" class="cls-3" d="M293.5 100.2s6.607 1.739 7.824-.174 1.739-3.3-1.043-5.216c-2.608-1.913-7.129-3.13-10.085-3.3-2.782-.174-7.824 1.391-8.172 1.913-1.565 1.913 3.651 1.739 6.26 1.913 2.608 0 5.39.348 5.042 1.565s-5.216.7-6.086 1.913c-.871 1.386 6.26 1.386 6.26 1.386z" transform="translate(-189.867 -91.492)"/><path id="Path_912" data-name="Path 912" class="cls-3" d="M311.514 127.887a8.056 8.056 0 0 0-8-7.824h-1.043a4.279 4.279 0 0 1-4.173-3.13l-2.954-10.433-9.389 1.217-.348 8.172a4.417 4.417 0 0 1-4.347 4.347h-3.825a10.262 10.262 0 0 0-2.434.348c.348 13.389 13.562 21.735 25.908 16.692a35.221 35.221 0 0 0 10.78-6.781 13.155 13.155 0 0 0-.175-2.608z" transform="translate(-194.843 -80.405)"/><path id="Path_913" data-name="Path 913" class="cls-5" d="M237.225 155.127c-2.087-1.913.522-5.216 2.782-3.651 12.519 7.824 23.821 9.389 35.123 0 10.085-8 18.779-22.952 22.6-31.993a8.266 8.266 0 1 1 15.3 6.26c-4.516 11.301-38.769 63.116-75.805 29.384z" transform="translate(-223.314 -74.608)"/><path id="Path_914" data-name="Path 914" class="cls-26" d="M266.2 137a88.455 88.455 0 0 0 5.216-8.694 82.975 82.975 0 0 0 4.347-8.868v-.174c.174-.174.174-.348.348-.7a8.244 8.244 0 1 1 14.606 7.651 81.617 81.617 0 0 1-6.086 10.085l-4.695 6.26c-1.217-1.038-10.78-4.515-13.736-5.56z" transform="translate(-201.344 -74.74)"/><path id="Path_915" data-name="Path 915" class="cls-5" d="M295.188 240.775v15.3l1.391 7.824a2.17 2.17 0 0 1-2.087 2.608c-6.607.174-23.647.7-24.169 0-2.087-3.478 7.477-4.869 14.606-7.477 3.825-1.565 4.173-10.085 3.651-17.562a3.449 3.449 0 0 1 6.086-2.434 3.355 3.355 0 0 1 .522 1.741z" transform="translate(-198.512 16.577)"/><path id="Path_916" data-name="Path 916" class="cls-27" d="M284.875 250a20.155 20.155 0 0 0 5.912.869 22.063 22.063 0 0 0 5.042-.7l.869 4.695a2.17 2.17 0 0 1-2.087 2.608c-6.607.174-23.647.7-24.169 0-2.259-3.299 7.304-4.69 14.433-7.472z" transform="translate(-198.458 25.609)"/><path id="Path_917" data-name="Path 917" class="cls-16" d="M289.5 211.989c3.478 7.824 32.341 68.855 34.775 67.117 2.087-1.565-14.606-66.6-18.083-74.593-3.478-7.824-10.085-12.693-14.606-10.607-4.693 2.086-5.562 10.258-2.086 18.083z" transform="translate(-185.696 -16.189)"/><path id="Path_918" data-name="Path 918" class="cls-14" d="M270.9 172.1c-.174 11.3 4.173 82.766 12.867 83.113 8.694.174 18.6-71.116 18.779-82.244.174-11.3-6.607-20.518-15.475-20.865-8.692-.348-15.995 8.696-16.171 19.996z" transform="translate(-197.874 -46.721)"/><path id="Path_919" data-name="Path 919" d="M295.942 240.186c.869 6.26 1.043 45.9-.348 66.247h-8c-4.347-19.648-8.868-57.553-9.737-63.639v-.174c-4.695-21.039-7.129-62.074-6.955-70.42.174-11.3 7.651-20.344 16.344-20 8.694.174 15.649 9.563 15.475 20.865-.345 6.612-7.301 64.165-6.779 67.121z" transform="translate(-197.875 -46.647)" fill="#1c9585"/><path id="Path_920" data-name="Path 920" d="M297.5 222.669c1.913-18.431 5.042-45.208 5.216-49.9.174-11.3-6.607-20.518-15.475-20.865-8.694-.174-16 8.868-16.344 20 0 1.565 0 4.173.174 7.477 11.3 8.172 19.3 20.865 20.344 34.949a79.44 79.44 0 0 0 6.085 8.339z" transform="translate(-197.871 -46.866)" fill="#177d74"/><path id="Path_921" data-name="Path 921" class="cls-16" d="M279.7 170.8c-.174 11.3 9.911 75.984 18.6 76.158s14.432-64.335 14.78-75.637c.174-11.3-8.172-20.344-17.04-20.518-8.862-.347-16.165 8.697-16.34 19.997z" transform="translate(-191.371 -47.681)"/><path id="Path_922" data-name="Path 922" class="cls-3" d="M308.788 259.151c3.651.522 9.042-3.651 9.911-5.39l-4.173-6.086-4-10.954a2.6 2.6 0 0 0-4.869 0 6.276 6.276 0 0 0 .174 4.695l2.26 5.564a17.182 17.182 0 0 1 1.217 8.346z" transform="translate(-172.468 14.546)"/><path id="Path_923" data-name="Path 923" class="cls-27" d="M306.741 256.05c2.087-1.043 4-1.913 4.869-4a14.841 14.841 0 0 0 8.52-7.651 9.3 9.3 0 0 1 2.26 2.26c.7 1.043 1.739 2.434 2.434 3.478a1.823 1.823 0 0 1-.174 2.26l-11.476 9.389s-11.824.174-12-.174c-1.04-1.389 2.612-4.171 5.567-5.562z" transform="translate(-175.638 21.472)"/><path id="Path_924" data-name="Path 924" d="M311.943 236.078c2.087 4.869 14.084 46.425 18.779 66.421-2.608.869-3.825 1.739-6.433 2.782-8.172-16-27.473-50.6-31.124-58.423-6.607-9.737-13.736-65.726-13.562-76.158.174-11.3 7.651-20.344 16.344-20 8.694.174 17.214 9.389 17.04 20.518-.175 7.482-2.435 61.556-1.044 64.86z" transform="translate(-191.445 -47.755)" fill="#39ae96"/><path id="Path_925" data-name="Path 925" class="cls-31" d="M280.707 114.522h4.173a9.953 9.953 0 0 0 9.563 6.086 10.192 10.192 0 0 0 9.563-6.608l3.825.522a7.2 7.2 0 0 1 7.3 7.129c.348 10.259 1.043 30.255 2.087 48.338 1.043 16.344 5.564 31.472 2.434 35.819 0 0-39.47 6.26-49.555-2.782.7-14.953 2.26-73.2 2.956-81.549a7.847 7.847 0 0 1 7.654-6.955z" transform="translate(-198.462 -74.864)"/><path id="Path_926" data-name="Path 926" class="cls-5" d="M235.23 138.768s4.869 4.869 6.781 4c1.913-1.043 3.13-2.087 1.739-4.869a23.719 23.719 0 0 0-6.781-8s-1.913.348-2.434.522c-2.26.869-3.478 1.739-1.217 3.13 2.087 1.391 4.521 1.739 3.651 2.434-.869.869-4.869-2.087-6.26-1.391-1.565.522 4.521 4.174 4.521 4.174z" transform="translate(-227.753 -63.118)"/><path id="Path_927" data-name="Path 927" class="cls-3" d="M298.812 129.954c19.3 5.042 39.644-1.043 15.823-20-8.346-6.433-20-12-18.779-11.476-2.434-1.217-1.043-5.042 1.565-4.347a96.277 96.277 0 0 1 22.082 8c38.079 19.822 13.91 54.25-25.038 43.643a8.227 8.227 0 0 1-5.738-10.085 8.073 8.073 0 0 1 10.085-5.738z" transform="translate(-184.922 -89.601)"/><path id="Path_928" data-name="Path 928" class="cls-26" d="M312.6 116.466a47.289 47.289 0 0 1-13.736-1.739h-.174a8.372 8.372 0 0 0-4.347 16.171 50.673 50.673 0 0 0 21.735 1.391s-.178-11.824-3.478-15.823z" transform="translate(-185.144 -74.548)"/><path id="Path_929" data-name="Path 929" class="cls-32" d="M286.5 114.814h.522a6.976 6.976 0 0 0 6.955-6.955V97.6H286.5z" transform="translate(-186.347 -86.98)"/><path id="Path_930" data-name="Path 930" class="cls-5" d="M281.374 107.717l9.389-1.217 1.913 6.433c-2.087 2.434-5.216 6.086-8.52 6.086a5.862 5.862 0 0 1-2.956-.869z" transform="translate(-190.262 -80.405)"/><path id="Path_931" data-name="Path 931" class="cls-3" d="M286.2 121.069a11.465 11.465 0 0 0 11.476-11.476V96.9H278.2s0 9.911 1.391 16.692c1.043 5.043 3.478 7.477 6.609 7.477z" transform="translate(-192.478 -87.497)"/><path id="Rectangle_34" data-name="Rectangle 34" class="cls-32" transform="rotate(180 53.07 8.038)" d="M0 0h3.651v1.739H0z"/><path id="Path_932" data-name="Path 932" class="cls-3" d="M287.5 104.821c0 2.434 1.217 4.521 2.608 4.521s3.13-3.3 3.13-5.738a2.963 2.963 0 0 0-3.13-3.3c-1.391-.004-2.608 1.909-2.608 4.517z" transform="translate(-185.608 -84.985)"/><path id="Path_933" data-name="Path 933" class="cls-32" d="M277.7 104.554c-.522-1.565-1.565-6.781.7-10.954 3.3.869 5.738.174 8.868.174h6.607A7.051 7.051 0 0 1 301 100.9v1.565l-3.3 2.956-.869 2.956h-.174a2.6 2.6 0 0 1-2.434-2.26c-.174-2.087-1.565-3.825-3.651-3.825h-5.912c-3.651 0-5.39 1.913-5.39 4.521l.174 2.26z" transform="translate(-193.367 -89.935)"/><g id="Group_463" data-name="Group 463" transform="translate(0 62.348)"><path id="Path_934" data-name="Path 934" class="cls-9" d="M232.378 142.217l-3.478.869.869-3.478 12-12a.652.652 0 0 1 1.043 0L244.2 129a.652.652 0 0 1 0 1.043z" transform="translate(-228.9 -127.35)"/><path id="Path_935" data-name="Path 935" d="M229.869 134.5l-.869 3.3 3.3-.869z" transform="translate(-228.826 -122.068)" fill="#dcbe82"/><path id="Path_936" data-name="Path 936" class="cls-34" d="M229.348 135.7l-.348 1.217 1.217-.348z" transform="translate(-228.826 -121.181)"/><path id="Path_937" data-name="Path 937" class="cls-31" d="M238.534 130.841l.7-.7a.652.652 0 0 0 0-1.043l-1.391-1.391a.652.652 0 0 0-1.043 0l-.7.7z" transform="translate(-223.581 -127.276)"/><path id="Rectangle_35" data-name="Rectangle 35" class="cls-34" transform="rotate(45 4.93 15.406)" d="M0 0h3.478v1.043H0z"/></g><path id="Path_938" data-name="Path 938" class="cls-5" d="M243.9 136.395a16.531 16.531 0 0 0-3.3-4.695 2.6 2.6 0 0 1-2.608 2.782 1.567 1.567 0 0 1-.869-.174c0 .174 0 .174-.174.348-.869.869-4.869-2.087-6.26-1.391s4.695 4.347 4.695 4.347 4.869 4.869 6.781 4c1.911-1.218 2.955-2.261 1.735-5.217z" transform="translate(-227.732 -61.788)"/></g><path id="Path_939" data-name="Path 939" class="cls-35" d="M239.132 114.944c0-11.3-12.693-20.344-28.516-20.344-15.649 0-28.516 9.042-28.516 20.344s12.693 20.344 28.516 20.344a37.727 37.727 0 0 0 12-1.913 1.428 1.428 0 0 1 1.217.174l4.695 3.651a1.427 1.427 0 0 0 2.26-1.043v-6.433a1.239 1.239 0 0 1 .522-1.043c4.866-3.481 7.822-8.347 7.822-13.737z" transform="translate(91.478 .337)"/><path id="Path_940" data-name="Path 940" class="cls-3" d="M66.849 197.868c-4.347-2.26-14.78 5.564-18.6 13.041-2.956 5.738-11.65 38.253-16.344 56.51 1.043 1.043 2.26 2.087 3.478 3.13 9.563-14.953 28.864-51.12 31.82-57.032 3.819-7.65 3.997-13.562-.354-15.649z" transform="translate(-19.486 76.336)"/><path id="Path_941" data-name="Path 941" class="cls-3" d="M38.622 233l-6.955 16.171a8.044 8.044 0 0 1-3.13 3.651 22.772 22.772 0 0 0-2.26 2.087 2.138 2.138 0 0 0-.174 2.26c2.434 3.3 9.042 9.563 10.085 10.433 1.043 1.043 9.042 2.782 9.389 2.087.522-1.043-.522-2.087-1.913-2.956a9.434 9.434 0 0 1-3.651-4.521c-1.043-2.434-2.087-4.521-2.782-6.086a7.026 7.026 0 0 1 0-5.912l4-8.346z" transform="translate(-23.948 102.584)"/><path id="Path_942" data-name="Path 942" class="cls-23" d="M35.957 260.69l-10.78-10.607a2.138 2.138 0 0 1-.174-2.26 18.477 18.477 0 0 0 1.565-1.913c.348-.348.869-.348 1.043 0 8.868 9.563 11.3 12.345 15.823 10.433 2.087 1.391 4 2.956 3.478 4.173-.174.87-10.955.174-10.955.174z" transform="translate(-24.761 111.929)"/><path id="Path_943" data-name="Path 943" class="cls-35" d="M184.561 93.2l-30.776 25.734-20.344-8.868-32.341 20.865" transform="translate(31.637 -.697)"/><path id="Path_944" data-name="Path 944" class="cls-35" d="M142.6 93.2h11.3v10.433" transform="translate(62.296 -.697)"/><path id="Rectangle_36" data-name="Rectangle 36" class="cls-14" transform="translate(139.344 134.755)" d="M0 0h8.172v28.168H0z"/><path id="Rectangle_37" data-name="Rectangle 37" class="cls-14" transform="translate(153.428 123.453)" d="M0 0h8.172v39.47H0z"/><path id="Rectangle_38" data-name="Rectangle 38" class="cls-14" transform="translate(167.512 127.104)" d="M0 0h8.172v35.819H0z"/><path id="Rectangle_39" data-name="Rectangle 39" class="cls-14" transform="translate(181.597 134.755)" d="M0 0h8.172v28.168H0z"/><path id="Rectangle_40" data-name="Rectangle 40" class="cls-14" transform="translate(195.681 123.453)" d="M0 0h8.172v39.47H0z"/><path id="Rectangle_41" data-name="Rectangle 41" class="cls-14" transform="translate(209.765 114.759)" d="M0 0h8.172v48.164H0z"/><g id="Group_465" data-name="Group 465" transform="translate(76.227 59.64)" opacity=".21"><path id="Path_945" data-name="Path 945" d="M257.695 171h-86.417a3.488 3.488 0 0 0-3.478 3.478v16.344a3.488 3.488 0 0 0 3.478 3.478h72.855l8.52 9.042V194.3h4.869a3.488 3.488 0 0 0 3.478-3.478v-16.344a3.147 3.147 0 0 0-3.305-3.478z" transform="translate(4.686 -2.86)"/><path id="Path_946" data-name="Path 946" d="M308.095 79.2h-86.417a3.488 3.488 0 0 0-3.478 3.478v16.344a3.488 3.488 0 0 0 3.478 3.478h72.855l8.52 9.042V102.5h4.869a3.488 3.488 0 0 0 3.478-3.478V82.678a3.24 3.24 0 0 0-3.305-3.478z" transform="translate(41.921 -70.68)"/><path id="Path_947" data-name="Path 947" d="M158.495 74.3H72.078a3.488 3.488 0 0 0-3.478 3.478v16.344a3.488 3.488 0 0 0 3.478 3.478h4.869v9.215l8.52-9.042h72.855A3.488 3.488 0 0 0 161.8 94.3V77.951a3.386 3.386 0 0 0-3.305-3.651z" transform="translate(-68.6 -74.3)"/></g><path id="Path_948" data-name="Path 948" class="cls-5" d="M257.695 169.4h-86.417a3.488 3.488 0 0 0-3.478 3.478v16.344a3.488 3.488 0 0 0 3.478 3.478h72.855l8.52 9.042V192.7h4.869a3.488 3.488 0 0 0 3.478-3.478v-16.344a3.147 3.147 0 0 0-3.305-3.478z" transform="translate(80.913 55.597)"/><path id="Path_949" data-name="Path 949" d="M308.095 77.7h-86.417a3.488 3.488 0 0 0-3.478 3.478v16.344a3.488 3.488 0 0 0 3.478 3.478h72.855l8.52 9.042V101h4.869a3.488 3.488 0 0 0 3.478-3.478V81.178a3.24 3.24 0 0 0-3.305-3.478z" transform="translate(118.148 -12.148)" fill="#fac855"/><path id="Path_950" data-name="Path 950" d="M72.009 72.8h86.417a3.488 3.488 0 0 1 3.478 3.478v16.344a3.488 3.488 0 0 1-3.478 3.478H85.572l-8.52 9.042V96.1h-4.869a3.488 3.488 0 0 1-3.478-3.478V76.278a3.24 3.24 0 0 1 3.304-3.478z" transform="translate(7.695 -15.768)" fill="#05cdff"/><path id="Path_951" data-name="Path 951" class="cls-1" d="M282.032 325.6c0 2.608-31.82 4.695-71.116 4.695S139.8 328.207 139.8 325.6s31.82-4.695 71.116-4.695c39.122-.175 71.116 1.912 71.116 4.695z" transform="translate(60.228 167.518)"/><path id="Path_952" data-name="Path 952" class="cls-35" d="M103.5 146.8v39.3h87.808" transform="translate(33.41 38.901)"/><circle id="Ellipse_26" data-name="Ellipse 26" class="cls-35" cx="21.213" cy="21.213" r="21.213" transform="translate(242.106 156.316)"/><path id="Path_953" data-name="Path 953" class="cls-39" d="M262.269 142.864s-38.6-27.473-86.069 6.433" transform="translate(87.119 28.232)"/><path id="Line_11" data-name="Line 11" class="cls-35" transform="translate(86.659 71.811)" d="M0 0h66.769"/><path id="Line_12" data-name="Line 12" class="cls-35" transform="translate(86.659 64.509)" d="M0 0h28.168"/><path id="Line_13" data-name="Line 13" class="cls-35" transform="translate(349.388 75.984)" d="M0 0h66.943"/><path id="Line_14" data-name="Line 14" class="cls-35" transform="translate(258.277 231.431)" d="M0 0h21.213"/><path id="Line_15" data-name="Line 15" class="cls-35" transform="translate(258.277 240.125)" d="M0 0h72.333"/><path id="Rectangle_42" data-name="Rectangle 42" stroke-width=".824" stroke="#fff" fill="none" stroke-miterlimit="10" d="M220.197 57.032H321.22v24.691H220.197z"/><path id="Path_954" data-name="Path 954" class="cls-39" d="M164 81.3v44.165h47.121" transform="translate(78.106 -9.489)"/><path id="Path_955" data-name="Path 955" d="M234.803 79.459l7.3-7.3 7.3 7.3" stroke-width=".824" stroke="#ffd23c" fill="none" stroke-miterlimit="10"/><path id="Path_956" data-name="Path 956" class="cls-4" d="M155.271 294.484a16.117 16.117 0 0 0 4.347 4 18.316 18.316 0 0 0 4.521 2.26l-1.913 4.347a2.348 2.348 0 0 1-3.3 1.043c-5.564-3.651-19.822-12.867-19.822-13.736-.004-3.998 8.69.347 16.167 2.086z" transform="translate(59.71 145.252)"/></g></g></svg>