<svg xmlns="http://www.w3.org/2000/svg" width="48.183" height="45.863" viewBox="0 0 48.183 45.863">
  <g id="arrow-pointing-down" transform="translate(0 -10.708)">
    <path id="Path_1125" data-name="Path 1125" d="M47.038,29.665l-2.319-2.319A3.96,3.96,0,0,0,41.905,26.2a3.788,3.788,0,0,0-2.784,1.144l-9.092,9.092V14.667a4.015,4.015,0,0,0-3.959-3.959H22.112a4.014,4.014,0,0,0-3.958,3.959V36.438L9.061,27.346A3.789,3.789,0,0,0,6.278,26.2a3.959,3.959,0,0,0-2.814,1.144L1.175,29.665A3.837,3.837,0,0,0,0,32.479a3.676,3.676,0,0,0,1.175,2.784L21.308,55.426a3.788,3.788,0,0,0,2.783,1.145,3.958,3.958,0,0,0,2.814-1.145L47.038,35.263a3.789,3.789,0,0,0,1.145-2.784A3.96,3.96,0,0,0,47.038,29.665Z" transform="translate(0)" fill="#fff"/>
  </g>
</svg>
