<svg id="Group_849" data-name="Group 849" xmlns="http://www.w3.org/2000/svg" width="829" height="1081.391" viewBox="0 0 829 1081.391">
  <rect id="Rectangle_152" data-name="Rectangle 152" width="829" height="1080" fill="rgba(255,255,255,0)"/>
  <g id="Group_633" data-name="Group 633" transform="translate(-177.963 561.318)">
    <g id="Group_606" data-name="Group 606" transform="translate(259.753 119.337)">
      <g id="Group_581" data-name="Group 581" transform="translate(61.538 58.234)" opacity="0.204">
        <path id="Path_1070" data-name="Path 1070" d="M310.834,349.892s86.278,178.92,368.3,86.519S814,170.4,687.119,233.113s-241.239-15.9-241.239-15.9S368.7,171.981,315.321,236.206C315.321,236.206,276.178,278.066,310.834,349.892Z" transform="translate(-296.515 -122.032)" fill="#4a77f7"/>
        <path id="Path_1071" data-name="Path 1071" d="M403.912,202.084s-7.551,54.725,95.294,54.292,147.08-77.1,112.869-96.139c-29.966-16.674-67.737,11.738-109.583-1.063C448.752,142.732,402.621,168.923,403.912,202.084Z" transform="translate(-224.216 -154.125)" fill="#4a77f7"/>
      </g>
      <g id="Group_584" data-name="Group 584" transform="translate(0 5.008)">
        <g id="Group_582" data-name="Group 582" transform="translate(57.792)">
          <path id="Path_1072" data-name="Path 1072" d="M415.665,155.688H314.734a3.776,3.776,0,0,1-3.776-3.776h0a3.776,3.776,0,0,1,3.776-3.775h100.93a3.776,3.776,0,0,1,3.776,3.775h0A3.776,3.776,0,0,1,415.665,155.688Z" transform="translate(-283.034 -104.935)" fill="#6f7de0"/>
          <path id="Path_1073" data-name="Path 1073" d="M665.1,328.2H634.391a3.776,3.776,0,0,1-3.776-3.775h0a3.776,3.776,0,0,1,3.776-3.776H665.1a3.776,3.776,0,0,1,3.776,3.776h0A3.776,3.776,0,0,1,665.1,328.2Z" transform="translate(-67.597 11.335)" fill="#fe4777"/>
          <rect id="Rectangle_133" data-name="Rectangle 133" width="11.682" height="11.316" rx="1.701" transform="translate(283.91)" fill="#fe4777"/>
          <rect id="Rectangle_134" data-name="Rectangle 134" width="11.682" height="11.316" rx="1.701" transform="translate(0 353.501)" fill="#fe4777"/>
        </g>
      </g>
      <g id="Group_605" data-name="Group 605" transform="translate(46.279)">
        <g id="Group_587" data-name="Group 587" transform="translate(466.495 126.899)">
          <g id="Group_586" data-name="Group 586">
            <rect id="Rectangle_135" data-name="Rectangle 135" width="105.243" height="31.511" rx="1.792" fill="#4a77f7"/>
            <g id="Group_585" data-name="Group 585" transform="translate(14.394 10.809)">
              <line id="Line_102" data-name="Line 102" x2="70.455" fill="none" stroke="#fff" stroke-miterlimit="10" stroke-width="0.702"/>
              <line id="Line_103" data-name="Line 103" x2="24.713" transform="translate(0 8.45)" fill="none" stroke="#fff" stroke-miterlimit="10" stroke-width="0.702"/>
            </g>
          </g>
          <path id="Path_1076" data-name="Path 1076" d="M572.952,211.918v11.822l14.868-11.822Z" transform="translate(-561.441 -183.839)" fill="#4a77f7"/>
        </g>
        <g id="Group_594" data-name="Group 594" transform="translate(0 101.241)">
          <g id="Group_592" data-name="Group 592">
            <g id="Group_591" data-name="Group 591">
              <g id="Group_590" data-name="Group 590">
                <g id="Group_589" data-name="Group 589">
                  <g id="Group_588" data-name="Group 588">
                    <path id="Rectangle_136" data-name="Rectangle 136" d="M4.947,0H76.362a4.947,4.947,0,0,1,4.947,4.947V72a4.947,4.947,0,0,1-4.947,4.947H6.525A6.525,6.525,0,0,1,0,70.418V4.947A4.947,4.947,0,0,1,4.947,0Z" fill="#4a77f7"/>
                  </g>
                </g>
              </g>
            </g>
          </g>
          <g id="Group_593" data-name="Group 593" transform="translate(21.277 16.495)">
            <path id="Path_1077" data-name="Path 1077" d="M338.056,217.938l-4.826-4.826a4.229,4.229,0,0,0-3.1-1.466,4.47,4.47,0,0,0-3.1,1.379l-2.757,2.759-.517-.259a8.111,8.111,0,0,1-.862-.43,29.766,29.766,0,0,1-7.153-6.55,15.592,15.592,0,0,1-2.24-3.534c.688-.6,1.292-1.292,1.895-1.895.259-.259.517-.517.775-.777a4.2,4.2,0,0,0,0-6.376l-2.412-2.414a7.693,7.693,0,0,1-.775-.862l-1.639-1.637a4.464,4.464,0,0,0-3.1-1.378,4.269,4.269,0,0,0-3.1,1.378l-3.017,3.016a6.935,6.935,0,0,0-1.982,4.223,15.7,15.7,0,0,0,1.12,6.549,35.272,35.272,0,0,0,6.723,11.291A41.89,41.89,0,0,0,321.768,226.9a22.911,22.911,0,0,0,7.755,2.327h.6a6.843,6.843,0,0,0,5.171-2.241l.085-.085a13.042,13.042,0,0,1,1.552-1.552l1.12-1.12A4.323,4.323,0,0,0,338.056,217.938Zm-1.982,4.481-1.034,1.035c-.6.516-1.12,1.12-1.724,1.723a4.094,4.094,0,0,1-3.1,1.294h-.43a18.162,18.162,0,0,1-6.723-2.069,39.252,39.252,0,0,1-12.841-10.082,37.41,37.41,0,0,1-6.291-10.429,10.673,10.673,0,0,1-1.034-5.343,3.646,3.646,0,0,1,1.207-2.5l2.929-2.929a1.807,1.807,0,0,1,1.207-.6,1.648,1.648,0,0,1,1.207.6L311,194.669a8.014,8.014,0,0,0,.86.86l2.414,2.414a2.024,2.024,0,0,1,.6,1.207,1.808,1.808,0,0,1-.6,1.205c-.259.259-.517.517-.775.777-.777.775-1.466,1.465-2.156,2.154l-.085.085a1.887,1.887,0,0,0-.517,2.154v.087a19.918,19.918,0,0,0,2.844,4.654,31.968,31.968,0,0,0,7.843,7.153,7.182,7.182,0,0,0,1.12.6,7.934,7.934,0,0,1,.862.432l.085.085a1.979,1.979,0,0,0,2.414-.43l3.017-3.016a1.421,1.421,0,0,1,2.327,0l4.826,4.826A1.633,1.633,0,0,1,336.074,222.419Z" transform="translate(-300.11 -189.671)" fill="#fff"/>
          </g>
        </g>
        <g id="Group_604" data-name="Group 604" transform="translate(382.058)">
          <g id="Group_601" data-name="Group 601">
            <g id="Group_600" data-name="Group 600">
              <g id="Group_599" data-name="Group 599">
                <g id="Group_598" data-name="Group 598">
                  <g id="Group_597" data-name="Group 597">
                    <g id="Group_596" data-name="Group 596">
                      <g id="Group_595" data-name="Group 595">
                        <path id="Rectangle_137" data-name="Rectangle 137" d="M4.54,0H70.086a4.54,4.54,0,0,1,4.54,4.54V66.079a4.54,4.54,0,0,1-4.54,4.54H5.989A5.989,5.989,0,0,1,0,64.631V4.54A4.54,4.54,0,0,1,4.54,0Z" fill="#fe4777"/>
                      </g>
                    </g>
                  </g>
                </g>
              </g>
            </g>
          </g>
          <g id="Group_603" data-name="Group 603" transform="translate(22.266 14.813)">
            <path id="Path_1078" data-name="Path 1078" d="M550.441,140.632a9.061,9.061,0,1,0-9.061,9.061A9.062,9.062,0,0,0,550.441,140.632Zm-15.858,0a6.8,6.8,0,1,1,6.8,6.795A6.8,6.8,0,0,1,534.584,140.632Z" transform="translate(-526.656 -125.906)" fill="#fff"/>
            <g id="Group_602" data-name="Group 602">
              <path id="Path_1079" data-name="Path 1079" d="M542.746,169.632a1.129,1.129,0,0,0,1.828,0c.092-.126.524-.716,1.178-1.647l6.686-10.342c3.107-5.3,5.948-11.127,5.948-14.731a14.725,14.725,0,1,0-29.45,0c0,3.5,2.68,9.1,5.68,14.272l6.957,10.805C542.226,168.919,542.656,169.506,542.746,169.632Zm.914-39.179a12.458,12.458,0,0,1,12.459,12.459c0,5.419-8.281,18.221-12.459,24.112-4.177-5.891-12.459-18.693-12.459-24.112A12.46,12.46,0,0,1,543.66,130.453Z" transform="translate(-528.936 -128.186)" fill="#fff"/>
            </g>
          </g>
        </g>
      </g>
    </g>
    <g id="Group_632" data-name="Group 632" transform="translate(279.166 220.655)">
      <g id="Group_630" data-name="Group 630" transform="translate(98.66 2)">
        <g id="Group_607" data-name="Group 607" transform="translate(0 89.057)">
          <path id="Path_1080" data-name="Path 1080" d="M522.9,440.612c-.608-1.821-31.4-144.473-40.733-187.693a18.674,18.674,0,0,0-15.313-14.53c-22.446-3.591-71.329-8.716-119.305,4.026-9.831,2.611-20.757,16.581-16.194,33.672l40.9,164.526Z" transform="translate(-330.288 -232.251)" fill="#4c53bb"/>
          <path id="Path_1081" data-name="Path 1081" d="M526.383,440.522c-.608-1.823-31.67-145.59-41-188.81a18.674,18.674,0,0,0-15.313-14.53c-22.446-3.591-71.328-8.715-119.305,4.026a18.749,18.749,0,0,0-13.321,22.567l43.046,176.747Z" transform="translate(-325.829 -233.064)" fill="#6f7de0"/>
        </g>
        <path id="Path_1082" data-name="Path 1082" d="M467.359,207.13s-31.435,2.641-41.183,26.589,0,29.9-14.62,38.741-46.746,33.153-15.332,81.154l163.923-15.829c-.624-.685,30.62-57.414-23.978-95.61Z" transform="translate(-294.821 -161.486)"/>
        <g id="Group_614" data-name="Group 614" transform="translate(106.993 66.432)">
          <g id="Group_612" data-name="Group 612" transform="translate(125.895)">
            <g id="Group_611" data-name="Group 611" transform="translate(92.907)">
              <path id="Path_1083" data-name="Path 1083" d="M535.073,251.513l-10.161,31.41,28.118,6.919,9.077-30.439Z" transform="translate(-524.912 -198.005)" fill="#ffc4a7"/>
              <g id="Group_610" data-name="Group 610" transform="translate(0.478)">
                <g id="Group_609" data-name="Group 609">
                  <g id="Group_608" data-name="Group 608">
                    <path id="Path_1084" data-name="Path 1084" d="M530.054,272.911s20.047,13.34,25.677,9.455c9.84-6.791,19.513-33.566,19.513-33.566s-38.024-17.593-37.7-16.991S530.054,272.911,530.054,272.911Z" transform="translate(-521.925 -211.296)" fill="#ffc4a7"/>
                    <path id="Path_1085" data-name="Path 1085" d="M533.327,271.918c-4.13-3.058-5.9-11.08-8.107-34.1a3.949,3.949,0,0,1,3.318-4.515h0a4.351,4.351,0,0,1,4.694,2.335l8.584,17.476Z" transform="translate(-525.198 -210.303)" fill="#ffc4a7"/>
                    <path id="Path_1086" data-name="Path 1086" d="M531.552,256.269l9.177-33.009a4.227,4.227,0,0,1,5.119-2.986h0a3.64,3.64,0,0,1,2.687,4.245l-4.754,24.729Z" transform="translate(-520.915 -219.151)" fill="#ffc4a7"/>
                    <path id="Path_1087" data-name="Path 1087" d="M540.089,245.287l10.889-23.255a4.21,4.21,0,0,1,5.383-2.18h0a3.627,3.627,0,0,1,2.076,4.466l-8.8,27.147Z" transform="translate(-515.162 -219.548)" fill="#ffc4a7"/>
                    <path id="Path_1088" data-name="Path 1088" d="M545.652,249.621l13.285-22.66a4.611,4.611,0,0,1,6.036-1.823h0a4.016,4.016,0,0,1,1.681,5.442L555.811,252.1Z" transform="translate(-511.412 -216.111)" fill="#ffc4a7"/>
                    <path id="Path_1089" data-name="Path 1089" d="M560.642,249.45l10.129-13.737a3.262,3.262,0,0,0-1.271-4.461h0a3.724,3.724,0,0,0-4.632.989l-13.147,15.69Z" transform="translate(-507.322 -211.947)" fill="#ffc4a7"/>
                  </g>
                </g>
                <path id="Path_1090" data-name="Path 1090" d="M532.754,240.3s13.738-.435,13.813,17.836" transform="translate(-520.105 -205.564)" fill="none" stroke="#e5967a" stroke-linecap="round" stroke-linejoin="round" stroke-width="1.064"/>
              </g>
            </g>
            <path id="Path_1091" data-name="Path 1091" d="M469.411,264.208c19.984,11.91,63.291,57.276,63.291,57.276l27.8-61.023,46.776,8.611s-30.963,80.365-46.389,105.733c-8.033,13.213-23.337,21.338-41.131,12.009l-49.857-30.4-.492-92.2" transform="translate(-469.411 -191.974)" fill="#fe4777"/>
          </g>
          <g id="Group_613" data-name="Group 613" transform="translate(0 60.053)">
            <path id="Path_1092" data-name="Path 1092" d="M477.824,255.423s-62.958,4.7-74.12,46.409-9.4,123.952-9.4,123.952H545.281l-4.7-126.3S537.255,257.773,477.824,255.423Z" transform="translate(-394.203 -255.423)" fill="#fe4777"/>
            <line id="Line_104" data-name="Line 104" x1="4.016" y1="56.233" transform="translate(145.123 62.026)" fill="none" stroke="#e0225d" stroke-miterlimit="10" stroke-width="1"/>
          </g>
        </g>
        <g id="Group_615" data-name="Group 615" transform="translate(182.064 181.815)">
          <path id="Path_1093" data-name="Path 1093" d="M495.6,403.747l60.891-112.4a5.49,5.49,0,0,1,4.828-2.876h143.9a4.09,4.09,0,0,1,3.651,5.936L653.592,403.747Z" transform="translate(-400.938 -288.476)" fill="#fff"/>
          <rect id="Rectangle_138" data-name="Rectangle 138" width="113.883" height="13.71" transform="translate(0 101.561)" fill="#fff"/>
          <path id="Path_1094" data-name="Path 1094" d="M581.738,329.2a12.062,12.062,0,1,1-12.061-12.061A12.062,12.062,0,0,1,581.738,329.2Z" transform="translate(-359.141 -269.159)" fill="#ededed"/>
        </g>
        <g id="Group_624" data-name="Group 624" transform="translate(135.664)">
          <g id="Group_616" data-name="Group 616" transform="translate(75.656 46.644)">
            <path id="Path_1096" data-name="Path 1096" d="M456.539,227.3c-.39,11.152,8.454,20.513,22.6,21.007,10,.35,13.238-8.587,13.628-19.739s-7.4-20.478-17.4-20.827S456.931,216.145,456.539,227.3Z" transform="translate(-456.527 -207.727)" fill="#4040eb"/>
            <path id="Path_1097" data-name="Path 1097" d="M459.641,227.4c-.39,11.152,7.4,20.476,17.406,20.826s18.429-8.407,18.819-19.559-7.4-20.476-17.406-20.826S460.031,216.253,459.641,227.4Z" transform="translate(-454.437 -207.654)" fill="#2a3596"/>
          </g>
          <g id="Group_620" data-name="Group 620" transform="translate(13.944 3.06)">
            <path id="Path_1098" data-name="Path 1098" d="M467.8,191.645c1.8-3.154-.514-9.056-.514-9.056-17.776,0-33.114,5.691-41.951,21.932-13,23.889-3.559,60.829,27.028,72.068,29.35,10.785,13.718-81.932,13.718-81.932Z" transform="translate(-419.661 -181.086)"/>
            <path id="Path_1099" data-name="Path 1099" d="M473.82,249.162l-1.965,28.784c-.668,10.852-7.715,16.242-18.4,15.5h0c-9.118-.633-17.356-5.932-17.856-15.054l2.585-46.362Z" transform="translate(-408.916 -147.765)" fill="#ffc4a7"/>
            <path id="Path_1100" data-name="Path 1100" d="M471.725,264.332s-21.122-3.475-34.608-29.5l35.967,9.033Z" transform="translate(-407.896 -145.877)" fill="#e5967a"/>
            <path id="Path_1101" data-name="Path 1101" d="M468.369,284.374c18.248.691,33.16-13.077,33.705-27.982l1.076-35.177a34.658,34.658,0,0,0-32.239-35.836h0c-14.031-.976-39.5,19.86-40.341,31.931l-.556,28.3C429.583,267.5,450.5,283.7,468.369,284.374Z" transform="translate(-412.687 -179.228)" fill="#ffc4a7"/>
            <g id="Group_617" data-name="Group 617" transform="translate(47.548 1.505)">
              <path id="Path_1102" data-name="Path 1102" d="M448.065,182.63c.09-.012.167-.028.258-.04Z" transform="translate(-448.065 -182.59)" fill="#f7de9e"/>
            </g>
            <g id="Group_618" data-name="Group 618" transform="translate(0.244 49.135)">
              <path id="Path_1103" data-name="Path 1103" d="M419.841,224.264a14.213,14.213,0,1,0,15.164-13.186A14.208,14.208,0,0,0,419.841,224.264Z" transform="translate(-419.806 -211.043)" fill="#ffc4a7"/>
              <path id="Path_1104" data-name="Path 1104" d="M434.8,226.038s.715-10.273-9.227-9.341" transform="translate(-415.922 -207.273)" fill="none" stroke="#20181f" stroke-linecap="round" stroke-linejoin="round" stroke-width="1.277"/>
            </g>
            <g id="Group_619" data-name="Group 619" transform="translate(39.389 52.532)">
              <path id="Path_1105" data-name="Path 1105" d="M462.678,224.53l1.126,9.287-4.811.177" transform="translate(-432.541 -205.351)" fill="none" stroke="#0c0b0c" stroke-linecap="round" stroke-linejoin="round" stroke-width="1.277"/>
              <path id="Path_1106" data-name="Path 1106" d="M453.4,213.313s9.582-1.3,9.433,2.143c0,0-.174,2.332-8.524,3.321s-10.474.583-11.077-1.56S448.926,213.616,453.4,213.313Z" transform="translate(-443.191 -213.073)"/>
              <path id="Path_1107" data-name="Path 1107" d="M470.941,213.433s-7.595-1.138-8.017,2.062c0,0-.228,2.169,6.413,3.03s8.746.2,9.264-1.53C479.189,215.03,474.535,213.683,470.941,213.433Z" transform="translate(-429.892 -212.962)"/>
              <path id="Path_1108" data-name="Path 1108" d="M448.256,222.817a3.081,3.081,0,1,0,3.18-2.976A3.08,3.08,0,0,0,448.256,222.817Z" transform="translate(-439.778 -208.513)"/>
              <path id="Path_1109" data-name="Path 1109" d="M465.227,222.817a3.08,3.08,0,1,0,3.179-2.976A3.078,3.078,0,0,0,465.227,222.817Z" transform="translate(-428.341 -208.513)"/>
              <path id="Path_1110" data-name="Path 1110" d="M450.637,233.376h19.719s-.914,6.8-11.249,6.3A8.989,8.989,0,0,1,450.637,233.376Z" transform="translate(-438.172 -199.389)" fill="#f7f7f7"/>
            </g>
            <path id="Path_1111" data-name="Path 1111" d="M429.283,230.86S457.956,241,478.124,202.934c0,0,21.939,4.684,26.179,22.6,0,0,11.435-43.794-44.138-43.846L428.3,200.975Z" transform="translate(-413.84 -181.691)"/>
            <path id="Path_1112" data-name="Path 1112" d="M439.15,270.914l26.815,17.034s2.911-18.688,3.5-28.452Z" transform="translate(-406.526 -129.253)" fill="#ffc4a7"/>
          </g>
          <g id="Group_623" data-name="Group 623">
            <path id="Path_1113" data-name="Path 1113" d="M485.426,185.437l.065,1.868s-22.969-1.7-35.717,10.149c-14.21,13.206-18.109,33.771-18.109,33.771l-4.948-.467,6.22-32.6,11.6-8.418,17.252-6.5,11.525-1.515Z" transform="translate(-400.962 -178.61)" fill="#2a3596"/>
            <g id="Group_621" data-name="Group 621" transform="translate(0 46.934)">
              <path id="Path_1114" data-name="Path 1114" d="M451.086,227.735c.39,11.152-8.453,20.513-22.6,21.008-10,.35-13.238-8.589-13.628-19.741s7.4-20.476,17.4-20.826S450.695,216.583,451.086,227.735Z" transform="translate(-408.961 -207.721)" fill="#2a3596"/>
              <ellipse id="Ellipse_69" data-name="Ellipse 69" cx="18.123" cy="20.205" rx="18.123" ry="20.205" transform="matrix(0.999, -0.035, 0.035, 0.999, 0, 1.273)" fill="#4c53bb"/>
            </g>
            <path id="Path_1115" data-name="Path 1115" d="M422.622,229.93a77.23,77.23,0,0,1,5.487-24.795c6.577-15.852,21.9-25.247,39.069-25.272q1.966-.005,4.126.092c4.952.228,10.149,1.306,14.132,4.257a17.583,17.583,0,0,1,2.75,2.477s-22.058-3.045-34.71,6.763C439.219,204.5,432.9,221.672,431.507,233.6Z" transform="translate(-403.721 -179.863)" fill="#4c53bb"/>
            <g id="Group_622" data-name="Group 622" transform="translate(34.001 82.048)">
              <path id="Path_1116" data-name="Path 1116" d="M431.643,228.877a20.078,20.078,0,0,0,17.814,6.445" transform="translate(-431.643 -228.877)" fill="none" stroke="#0c0b0c" stroke-linecap="round" stroke-linejoin="round" stroke-width="1.277"/>
              <path id="Path_1117" data-name="Path 1117" d="M445.59,233.239a2.055,2.055,0,1,1-2.056-2.054A2.056,2.056,0,0,1,445.59,233.239Z" transform="translate(-425.013 -227.321)" fill="#0c0b0c"/>
            </g>
          </g>
        </g>
        <g id="Group_629" data-name="Group 629" transform="translate(69.989 149.863)">
          <g id="Group_628" data-name="Group 628" transform="translate(0 51.916)">
            <g id="Group_626" data-name="Group 626" transform="translate(110.364 66.719)">
              <g id="Group_625" data-name="Group 625" transform="translate(0 4.104)">
                <path id="Path_1118" data-name="Path 1118" d="M467.192,346.726l-29.165-4.015.814,24.473,22.566-.01Z" transform="translate(-438.027 -342.711)" fill="#ffc4a7"/>
              </g>
              <path id="Path_1119" data-name="Path 1119" d="M455.775,348.048c-.9-.373,62.7-27.132,57.973,20.744H449.914Z" transform="translate(-430.016 -340.259)" fill="#ffc4a7"/>
            </g>
            <g id="Group_627" data-name="Group 627">
              <path id="Path_1120" data-name="Path 1120" d="M396.265,331.721l93.705,2.821-1.761,40.5-97.425-.6a21.537,21.537,0,0,1-17.168-29.253h0A21.537,21.537,0,0,1,396.265,331.721Z" transform="translate(-372.098 -279.403)" fill="#fe4777"/>
              <path id="Path_1121" data-name="Path 1121" d="M462.458,371.671l1.731-16.131-53.835-1.771L436.647,300.4" transform="translate(-346.315 -300.402)" fill="none" stroke="#e0225d" stroke-miterlimit="10" stroke-width="1"/>
              <line id="Line_105" data-name="Line 105" x1="28.47" y1="0.345" transform="translate(37.242 53.021)" fill="none" stroke="#e0225d" stroke-miterlimit="10" stroke-width="1"/>
            </g>
          </g>
          <path id="Path_1122" data-name="Path 1122" d="M469.042,297.767S445.183,357.8,410.959,406.188c-3.837,5.422-14.508,8.119-21.146,7.833h0c-14.98-.646-21.328-16.783-15.668-29.915,0,0,27.535-86.537,58.689-114.7C433.62,268.69,469.042,297.767,469.042,297.767Z" transform="translate(-372.098 -269.388)" fill="#fe4777"/>
        </g>
      </g>
    </g>
  </g>
</svg>
