<svg xmlns="http://www.w3.org/2000/svg" viewBox="0 0 157.874 46.286"><defs><style>.cls-1{fill:#57d38c}.cls-3{fill:#adfdd0}</style><clipPath id="clip-path"><path id="Rectangle_44" data-name="Rectangle 44" d="M0 0h42.209v46.286H0z"/></clipPath></defs><g id="Group_481" data-name="Group 481" transform="translate(0 13.575)"><path id="Path_981" data-name="Path 981" class="cls-1" d="M8.772 0H3.053v-21.156h5.719zM2.365-28.079A3.469 3.469 0 0 1 3.4-30.594a3.363 3.363 0 0 1 2.494-1.054 3.4 3.4 0 0 1 2.494 1.032 3.449 3.449 0 0 1 1.032 2.537 3.348 3.348 0 0 1-1.032 2.451A3.4 3.4 0 0 1 5.891-24.6 3.4 3.4 0 0 1 3.4-25.628a3.348 3.348 0 0 1-1.035-2.451zm18.189 21.93a5.218 5.218 0 0 0 3.827 1.591 5.147 5.147 0 0 0 3.806-1.591 6.034 6.034 0 0 0 1.569-4.429 6.034 6.034 0 0 0-1.569-4.429 5.147 5.147 0 0 0-3.806-1.593 5.147 5.147 0 0 0-3.806 1.591 6.034 6.034 0 0 0-1.569 4.429 6.084 6.084 0 0 0 1.548 4.431zm-4.128-12.47a10.793 10.793 0 0 1 7.955-3.181 10.722 10.722 0 0 1 7.933 3.182 10.938 10.938 0 0 1 3.16 8.041 10.938 10.938 0 0 1-3.16 8.041A10.722 10.722 0 0 1 24.381.645a10.722 10.722 0 0 1-7.934-3.182 10.938 10.938 0 0 1-3.161-8.041 10.978 10.978 0 0 1 3.14-8.041zM49.794-26.4a3.359 3.359 0 0 0-2.085.667 2.654 2.654 0 0 0-.882 2.257v2.322H51.6v4.9h-4.773V0h-5.762v-16.254h-3.526v-4.9h3.526v-2.408a7.864 7.864 0 0 1 2.085-5.719 7.457 7.457 0 0 1 5.611-2.15A7.174 7.174 0 0 1 51.6-31v4.816a6.491 6.491 0 0 0-1.806-.216zm18.4 5.16v5.762a8.751 8.751 0 0 0-1.72-.172 5.582 5.582 0 0 0-3.956 1.4q-1.505 1.4-1.505 4.579V0H55.3v-21.156h5.547v3.139q1.548-3.311 6.02-3.311.471 0 1.333.086zM77.959 0H72.24v-21.156h5.46v2.58a5.7 5.7 0 0 1 2.58-2.322 8.153 8.153 0 0 1 3.612-.86q4.6 0 6.278 3.526a7.481 7.481 0 0 1 6.708-3.526 7.773 7.773 0 0 1 5.439 2.021q2.215 2.021 2.215 6.02V0h-5.546v-12.556a4.353 4.353 0 0 0-.925-2.9 3.478 3.478 0 0 0-2.816-1.1 3.621 3.621 0 0 0-2.838 1.2 4.293 4.293 0 0 0-1.075 2.967V0h-5.676v-12.556a4.288 4.288 0 0 0-.946-2.9 3.49 3.49 0 0 0-2.8-1.1 3.7 3.7 0 0 0-2.881 1.183 4.273 4.273 0 0 0-1.075 2.988z" transform="translate(53.341 23.289)"/><g id="Group_479" data-name="Group 479" transform="translate(0 -13.575)"><g id="Group_478" data-name="Group 478"><g id="Group_477" data-name="Group 477" clip-path="url(#clip-path)"><path id="Path_964" data-name="Path 964" class="cls-3" d="M9.92 62.347a5.862 5.862 0 0 1-5.79-5.012L.364 31.126a5.815 5.815 0 0 1 4.949-6.6l7.128-1.026.654 4.42-7.128 1.058A1.343 1.343 0 0 0 4.815 30.5l3.766 26.182a1.36 1.36 0 0 0 1.525 1.152L29.873 55a1.09 1.09 0 0 0 .934-1.245l-.249-1.619 4.451-.654.249 1.619a5.653 5.653 0 0 1-4.762 6.35l-19.767 2.865c-.28 0-.56.031-.809.031zm0 0" transform="translate(-.208 -16.185)"/></g></g><path id="Path_965" data-name="Path 965" class="cls-1" d="M60.049 37.92h-19.8a5.845 5.845 0 0 1-5.849-5.852V5.952A5.845 5.845 0 0 1 40.252.1h19.8A5.845 5.845 0 0 1 65.9 5.952v26.116a5.845 5.845 0 0 1-5.852 5.852zM40.252 4.613a1.329 1.329 0 0 0-1.338 1.338v26.117a1.329 1.329 0 0 0 1.338 1.338h19.8a1.329 1.329 0 0 0 1.338-1.338V5.952a1.329 1.329 0 0 0-1.338-1.338h-19.8zm0 0" transform="translate(-23.692 -.069)"/><path id="Path_966" data-name="Path 966" class="cls-3" d="M79.825 63.7a4.762 4.762 0 0 1-9.525 0zm0 0" transform="translate(-48.417 -43.872)"/><path id="Path_967" data-name="Path 967" class="cls-3" d="M64.011 45.305a1.805 1.805 0 1 1-1.806-1.805 1.807 1.807 0 0 1 1.805 1.805zm0 0" transform="translate(-41.599 -29.96)"/><path id="Path_968" data-name="Path 968" class="cls-3" d="M101.611 45.305a1.805 1.805 0 1 1-1.806-1.805 1.807 1.807 0 0 1 1.805 1.805zm0 0" transform="translate(-67.495 -29.96)"/></g></g></svg>