<svg xmlns="http://www.w3.org/2000/svg" width="32" height="32" viewBox="0 0 32 32">
  <g fill="#383B3D" fill-rule="evenodd">
    <path fill-rule="nonzero" d="M0.635761589,0.158940397 C0.372420517,0.158940397 0.158940397,0.372420517 0.158940397,0.635761589 L0.158940397,31.3642384 C0.158940397,31.6275795 0.372420517,31.8410596 0.635761589,31.8410596 L31.3642384,31.8410596 C31.6275795,31.8410596 31.8410596,31.6275795 31.8410596,31.3642384 L31.8410596,0.635761589 C31.8410596,0.372420517 31.6275795,0.158940397 31.3642384,0.158940397 L0.635761589,0.158940397 Z M0.635761589,0.0529801325 L31.3642384,0.0529801325 C31.6860997,0.0529801325 31.9470199,0.313900278 31.9470199,0.635761589 L31.9470199,31.3642384 C31.9470199,31.6860997 31.6860997,31.9470199 31.3642384,31.9470199 L0.635761589,31.9470199 C0.313900278,31.9470199 0.0529801325,31.6860997 0.0529801325,31.3642384 L0.0529801325,0.635761589 C0.0529801325,0.313900278 0.313900278,0.0529801325 0.635761589,0.0529801325 Z"/>
    <path fill-rule="nonzero" d="M16.1750771,13.83299 C16.9804462,13.8330023 17.5911187,13.6578229 18.007097,13.3074519 C18.4230505,12.9571054 18.6310322,12.440326 18.6310445,11.7571112 C18.6310322,11.0826845 18.4230505,10.5702845 18.007097,10.219911 C17.5911187,9.86080825 16.9804462,9.6812495 16.1750771,9.68123235 L13.3473966,9.68123235 L13.3473966,13.83299 L16.1750771,13.83299 M16.3476585,22.4124126 C17.3742869,22.412415 18.1442632,22.1978214 18.6575948,21.7686268 C19.1797516,21.3394419 19.4408363,20.6912768 19.4408511,19.8241337 C19.4408363,18.9745179 19.1841767,18.3394932 18.6708723,17.9190549 C18.1575408,17.4898725 17.383137,17.2752788 16.3476585,17.275269 L13.3473966,17.275269 L13.3473966,22.4124126 L16.3476585,22.4124126 M21.1002871,15.3570521 C22.1977137,15.6723858 23.0473431,16.2548581 23.6491853,17.104469 C24.2509879,17.9540996 24.5519004,18.9964171 24.5519177,20.2314266 C24.5519004,22.1233698 23.9058251,23.5335636 22.6136944,24.4620128 C21.3215316,25.3904645 19.3567581,25.8546916 16.719374,25.8546916 L8.23632751,25.8546916 L8.23632751,6.23895335 L15.9095674,6.23895335 C18.6620074,6.23897296 20.6533311,6.65064524 21.8835435,7.47397019 C23.1225712,8.29733191 23.7420938,9.61555662 23.7421136,11.4286492 C23.7420938,12.3833918 23.5164119,13.1979777 23.0650631,13.8724043 C22.6136796,14.5380992 21.9587542,15.0329818 21.1002871,15.3570521"/>
  </g>
</svg>
