<?xml version="1.0" encoding="utf-8"?>
<!-- Generator: Adobe Illustrator 16.0.0, SVG Export Plug-In . SVG Version: 6.00 Build 0)  -->
<!DOCTYPE svg PUBLIC "-//W3C//DTD SVG 1.1//EN" "http://www.w3.org/Graphics/SVG/1.1/DTD/svg11.dtd">
<svg version="1.1" id="Layer_1" xmlns="http://www.w3.org/2000/svg" xmlns:xlink="http://www.w3.org/1999/xlink" x="0px" y="0px"
	 width="26px" height="26px" viewBox="0 0 26 26" enable-background="new 0 0 26 26" xml:space="preserve">
<g>
	<path fill="none" stroke="#000000" stroke-linecap="round" stroke-linejoin="round" stroke-miterlimit="10" d="M24.5,17.5H2.502
		c-0.553,0-1.002-0.449-1.002-1v-1c0-0.554,0.45-1,1.002-1H12.5"/>
	<path fill="none" stroke="#000000" stroke-linecap="round" stroke-linejoin="round" stroke-miterlimit="10" d="M2.502,14.5
		c0-4.695,3.805-8.5,8.5-8.5c3.248,0,6.07,1.821,7.501,4.498"/>
	<path fill="none" stroke="#000000" stroke-linejoin="round" stroke-miterlimit="10" d="M21.5,17.5v-3
		c0-5.324-3.961-9.721-9.096-10.408c-0.832-0.11-1.672,0.132-2.317,0.669l-2.15,1.815"/>
	<path fill="none" stroke="#000000" stroke-linecap="round" stroke-linejoin="round" stroke-miterlimit="10" d="M3.5,17.5V21
		c0,0.827,0.672,1.5,1.501,1.5c0.828,0,1.501-0.673,1.501-1.5c0-0.829,0.671-1.5,1.5-1.5h10.5c1.104,0,1.999-0.896,1.999-2"/>
</g>
</svg>
