<svg class="filler-class house-icon" xmlns="http://www.w3.org/2000/svg" width="72" height="72" viewBox="0 0 48 48">
<style>
  .a{
    stroke: none;
        fill: #f5b800;
  }
</style>
    <path d="M47 46h-3V26.3l2.5 1.5c0.2 0.1 0.3 0.2 0.5 0.2 0.3 0 0.7-0.2 0.9-0.5 0.3-0.5 0.1-1.1-0.3-1.4L42 22.7V14c0-0.6-0.4-1-1-1h-4c-0.6 0-1 0.4-1 1v5L18.5 8.2c-0.5-0.3-1.1-0.1-1.4 0.3 -0.3 0.5-0.1 1.1 0.3 1.4L20 11.4v10.9L0.6 30.1c-0.5 0.2-0.8 0.8-0.6 1.3C0.2 31.8 0.6 32 1 32c0.1 0 0.3 0 0.4-0.1L4 30.9V46H1c-0.6 0-1 0.4-1 1s0.4 1 1 1h8 8 8 14 8c0.6 0 1-0.4 1-1S47.6 46 47 46zM38 15h2v6.5l-2-1.2V15zM42 25.1V46h-2v-7c0-0.6-0.4-1-1-1H25c-0.6 0-1 0.4-1 1v7h-2V12.7L42 25.1zM6 30.1l14-5.6V46h-2v-9c0-0.6-0.4-1-1-1H9c-0.6 0-1 0.4-1 1v9H6V30.1zM10 46v-8h6v8H10zM26 40h5v6h-5V40zM33 46v-6h5v6H33z" class="a"/>
    <path d="M28 29c2.2 0 4-1.8 4-4s-1.8-4-4-4 -4 1.8-4 4S25.8 29 28 29zM28 23c1.1 0 2 0.9 2 2s-0.9 2-2 2 -2-0.9-2-2S26.9 23 28 23z" class="a"/>
    <path d="M9 34h8c0.6 0 1-0.4 1-1s-0.4-1-1-1H9c-0.6 0-1 0.4-1 1S8.4 34 9 34z" class="a"/>
</svg>