<svg xmlns="http://www.w3.org/2000/svg" width="72" height="72" viewBox="0 0 26 26">
<style>
  .a{
    fill:none;
    stroke-linejoin:round;
    stroke:#f5b800;
  }
</style>
      <polygon points=" 15.5 11.5 12 12.5 13 9 20.5 1.5 23 4 " class="a"/>
      <line x1="18.5" y1="3.5" x2="21" y2="6" class="a"/>
      <line x1="13" y1="9" x2="15.5" y2="11.5" class="a"/>
    <polyline points="23 6.5 24.5 6.5 24.5 24.5 1.5 24.5 1.5 6.5 13 6.5 " class="a"/>
    <polyline points="9 9.5 4.5 9.5 4.5 21.5 13.5 21.5 13.5 17.5 18.5 17.5 18.5 21.5 21.5 21.5 21.5 10 " class="a"/>
    <line x1="13.5" y1="19.5" x2="18.5" y2="19.5" class="a"/>
    <line x1="13.5" y1="21.5" x2="18.5" y2="21.5" class="a"/>
    <line x1="4.5" y1="14.5" x2="9" y2="14.5" class="a"/>
    <line x1="17" y1="15.5" x2="21.5" y2="15.5" class="a"/>
    <line x1="17" y1="13.5" x2="21.5" y2="13.5" class="a"/>
    <polyline points="4.5 17.5 8.5 17.5 8.5 21 " class="a"/>
</svg>