<svg xmlns="http://www.w3.org/2000/svg" width="48" height="48" viewBox="0 0 48 48">
<style>
  .a{
    fill:#231F20;
  }
</style>
    <path d="M48 21.9c0 0 0 0 0-0.1 0-0.1-0.1-0.2-0.1-0.3 0 0 0 0 0 0 0 0 0 0 0 0 -0.1-0.1-0.1-0.2-0.2-0.2l-23-16c-0.3-0.2-0.8-0.2-1.1 0L0.5 21.2c0 0 0 0 0 0l0 0c-0.1 0.1-0.2 0.1-0.2 0.2 0 0 0 0 0 0 0 0 0 0 0 0 -0.1 0.1-0.1 0.2-0.1 0.3 0 0 0 0 0 0.1C0 21.9 0 22 0 22v22c0 2.2 1.8 4 4 4h40c2.2 0 4-1.8 4-4V22C48 22 48 21.9 48 21.9zM44 46H4c-1.1 0-2-0.9-2-2V23.9l10.4 7C12.6 30.9 12.8 31 13 31c0.3 0 0.6-0.2 0.8-0.4 0.3-0.5 0.2-1.1-0.3-1.4L2.8 22 24 7.2l21.2 14.8 -10.8 7.2c-0.5 0.3-0.6 0.9-0.3 1.4C34.4 30.8 34.7 31 35 31c0.2 0 0.4-0.1 0.6-0.2L46 23.9V44C46 45.1 45.1 46 44 46z" class="a"/>
    <path d="M31.6 32.2C31.4 32.1 31.2 32 31 32H17c-0.2 0-0.4 0.1-0.6 0.2l-10 7c-0.5 0.3-0.6 0.9-0.2 1.4 0.3 0.5 0.9 0.6 1.4 0.2L17.3 34h13.4l9.7 6.8C40.6 40.9 40.8 41 41 41c0.3 0 0.6-0.1 0.8-0.4 0.3-0.5 0.2-1.1-0.2-1.4L31.6 32.2z" class="a"/>
</svg>