<svg xmlns="http://www.w3.org/2000/svg" width="48" height="48" viewBox="0 0 48 48">
  <path d="M46.3 34l-4.9-4.9c-1.1-1.1-2.5-1.6-4-1.6 -1.5 0-2.9 0.6-4 1.6l-1 1c-4.9-4.1-9.5-8.7-13.6-13.6l1-1c2.2-2.2 2.2-5.8 0-8l-4.9-4.9C13.8 1.6 12.4 1 10.9 1 9.4 1 8 1.6 6.9 2.6L4.2 5.3c-2.7 2.7-3.1 6.9-1 10 7.9 12 18.4 22.4 30.4 30.4 1.3 0.9 2.8 1.3 4.4 1.3 2.1 0 4.1-0.8 5.6-2.3l2.7-2.7c1.1-1.1 1.6-2.5 1.6-4C47.9 36.5 47.3 35.1 46.3 34zM44.9 40.6l-2.7 2.7c-1.1 1.1-2.6 1.7-4.2 1.7 -1.2 0-2.3-0.3-3.3-1C23 36.3 12.7 26 4.9 14.2 3.4 11.9 3.7 8.7 5.7 6.8l2.7-2.7C9 3.4 9.9 3 10.9 3c1 0 1.9 0.4 2.6 1.1l4.9 4.9c1.4 1.4 1.4 3.7 0 5.1l-1.6 1.6c-0.4 0.4-0.4 0.9-0.1 1.3 4.5 5.4 9.7 10.7 15.2 15.2 0.4 0.3 1 0.3 1.3-0.1l1.6-1.6c1.4-1.4 3.8-1.4 5.1 0l4.9 4.9c0.7 0.7 1.1 1.6 1.1 2.6C45.9 39 45.5 39.9 44.9 40.6z" fill="#231F20"/>
</svg>