<svg xmlns="http://www.w3.org/2000/svg" width="20" height="20" viewBox="0 0 20 20"><path d="M18 6.8l-5.3-5.3c-0.2-0.2-0.4-0.3-0.7-0.3s-0.5 0.1-0.7 0.3l-0.3 0.3c-0.3 0.3-0.5 0.8-0.5 1.2v1c0 0.1-0.1 0.4-0.2 0.5l-2.8 2.8c-0.1 0.1-0.4 0.2-0.5 0.2h-1c-0.4 0-0.9 0.2-1.2 0.5l-0.3 0.3c-0.4 0.4-0.4 1 0 1.4l1.6 1.6-4.9 6.4c-0.2 0.2-0.1 0.5 0 0.7 0.1 0.1 0.2 0.1 0.4 0.1 0.1 0 0.2 0 0.3-0.1l6.4-4.9 1.6 1.6c0.2 0.2 0.4 0.3 0.7 0.3s0.5-0.1 0.7-0.3l0.3-0.3c0.3-0.3 0.5-0.8 0.5-1.2v-1c0-0.1 0.1-0.4 0.2-0.5l2.8-2.8c0.1-0.1 0.4-0.2 0.5-0.2h1c0.4 0 0.9-0.2 1.2-0.5l0.3-0.3c0.2-0.2 0.3-0.4 0.3-0.7s-0.1-0.5-0.3-0.7zM4.2 15.3l2.5-3.3 0.8 0.8-3.3 2.5zM17 7.8c-0.1 0.1-0.4 0.2-0.5 0.2h-1c-0.4 0-0.9 0.2-1.2 0.5l-2.8 2.8c-0.3 0.3-0.5 0.8-0.5 1.2v1c0 0.1-0.1 0.4-0.2 0.5l-0.3 0.3c0 0 0 0 0 0v0l-5.3-5.3 0.3-0.3c0.1-0.1 0.4-0.2 0.5-0.2h1c0.4 0 0.9-0.2 1.2-0.5l2.8-2.8c0.3-0.3 0.5-0.8 0.5-1.2v-1c0-0.1 0.1-0.4 0.2-0.5l0.3-0.3 5.3 5.3-0.3 0.3z"/></svg>