<svg width="100" height="29" viewBox="0 0 100 29" fill="none" xmlns="http://www.w3.org/2000/svg">
<mask id="path-1-inside-1" fill="white">
<path d="M24.4449 18.4678C24.4449 24.1261 19.8579 28.7131 14.1996 28.7131C8.54125 28.7131 3.95427 24.1261 3.95427 18.4678C3.95427 12.8094 8.54125 8.22246 14.1996 8.22246C19.8579 8.22246 24.4449 12.8094 24.4449 18.4678ZM7.89871 18.4678C7.89871 21.9476 10.7197 24.7686 14.1996 24.7686C17.6795 24.7686 20.5005 21.9476 20.5005 18.4678C20.5005 14.9879 17.6795 12.1669 14.1996 12.1669C10.7197 12.1669 7.89871 14.9879 7.89871 18.4678Z"/>
</mask>
<path d="M24.4449 18.4678C24.4449 24.1261 19.8579 28.7131 14.1996 28.7131C8.54125 28.7131 3.95427 24.1261 3.95427 18.4678C3.95427 12.8094 8.54125 8.22246 14.1996 8.22246C19.8579 8.22246 24.4449 12.8094 24.4449 18.4678ZM7.89871 18.4678C7.89871 21.9476 10.7197 24.7686 14.1996 24.7686C17.6795 24.7686 20.5005 21.9476 20.5005 18.4678C20.5005 14.9879 17.6795 12.1669 14.1996 12.1669C10.7197 12.1669 7.89871 14.9879 7.89871 18.4678Z" stroke="white" stroke-width="8.20356" stroke-linejoin="round" mask="url(#path-1-inside-1)"/>
<rect x="20.5" y="20" width="20" height="3.9" rx="1.95" transform="rotate(-90 20.5 20)" fill="white"/>
<path fill-rule="evenodd" clip-rule="evenodd" d="M24.4449 18.453C24.4425 16.827 24.0531 15.2133 23.2941 13.7501C22.1721 11.5872 20.316 9.89496 18.0589 8.97713C15.8018 8.05929 13.2914 7.97594 10.9784 8.74201C8.66538 9.50809 6.7011 11.0734 5.4381 13.1571C4.81074 14.1921 4.37682 15.3214 4.14685 16.4906H1.97717C0.885207 16.4906 0 17.3759 0 18.4678C0 19.5598 0.885208 20.445 1.97717 20.445H4.14687C4.59393 22.7182 5.79941 24.7766 7.57106 26.2799C9.42898 27.8563 11.7879 28.719 14.2245 28.7131C15.9989 28.7087 17.7299 28.244 19.2543 27.3794C20.2018 26.842 20.2914 25.577 19.5826 24.7498C18.8738 23.9227 17.6318 23.8625 16.6265 24.2821C15.8682 24.5986 15.0493 24.7662 14.2149 24.7683C12.7165 24.7719 11.2658 24.2414 10.1233 23.272C9.23541 22.5186 8.57877 21.5385 8.21734 20.445H22.4678C22.6829 20.445 22.8901 20.4106 23.084 20.3471C23.818 20.1992 24.4106 19.6276 24.4386 18.8262C24.4427 18.7117 24.4447 18.5971 24.4449 18.4826C24.4449 18.4777 24.445 18.4727 24.445 18.4678C24.445 18.4629 24.4449 18.4579 24.4449 18.453ZM8.21731 16.4906H20.1819C20.0774 16.1745 19.9474 15.8654 19.7924 15.5665C19.1024 14.2364 17.961 13.1958 16.5729 12.6314C15.1849 12.0669 13.6411 12.0157 12.2187 12.4868C10.7962 12.9579 9.58828 13.9205 8.81158 15.2019C8.56389 15.6105 8.36523 16.0431 8.21731 16.4906Z" fill="#53C8B7"/>
<path d="M32.9614 14.1938C34.9065 14.1938 36.4166 15.1167 37.4917 16.9623C37.8645 17.6894 38.051 18.4755 38.051 19.3206V19.5257C37.9391 20.1596 37.6253 20.4765 37.1095 20.4765H30.1277C30.3079 21.0917 30.8144 21.623 31.6471 22.0705C32.1381 22.2569 32.5979 22.3501 33.0267 22.3501C33.5238 22.3501 34.1204 22.1761 34.8164 21.8281H35.1147C35.6988 21.94 35.9909 22.2445 35.9909 22.7416V22.8441C35.9909 23.5774 35.0681 24.0653 33.2224 24.3076H32.9614C31.1469 24.3076 29.6927 23.4594 28.599 21.7629C28.1578 20.9612 27.9372 20.1223 27.9372 19.2461C27.9372 17.3942 28.8103 15.9214 30.5565 14.8277C31.4079 14.4051 32.2095 14.1938 32.9614 14.1938ZM29.9599 18.5563H36.0655C36.0655 18.3263 35.8076 17.8634 35.2918 17.1674C34.5958 16.5087 33.9122 16.1793 33.2411 16.1793H32.8589C31.8398 16.1793 31.0008 16.6827 30.3421 17.6894C30.1122 18.0871 29.9848 18.3761 29.9599 18.5563Z" fill="white"/>
<path d="M40.6421 19.1901V19.2927C40.6421 20.5666 41.2822 21.5236 42.5623 22.1637C42.96 22.3128 43.3174 22.3874 43.6343 22.3874H43.9046C44.961 22.3874 45.8342 21.8561 46.5239 20.7934C46.7725 20.2963 46.8968 19.8209 46.8968 19.3672V19.2274C46.8968 18.0032 46.2909 17.0648 45.0791 16.4123C44.6628 16.2259 44.2278 16.1327 43.7741 16.1327H43.7368C42.4505 16.1327 41.481 16.8038 40.8285 18.1461C40.7042 18.5563 40.6421 18.9043 40.6421 19.1901ZM46.9061 23.245C46.148 23.9534 45.1475 24.3076 43.9046 24.3076H43.6343C41.9191 24.3076 40.4898 23.45 39.3464 21.7349C38.9301 20.9022 38.7219 20.0664 38.7219 19.2274C38.7219 17.3507 39.6416 15.8624 41.481 14.7624C42.264 14.3958 43.0284 14.2125 43.7741 14.2125C45.6819 14.2125 47.192 15.1446 48.3043 17.0089C48.6461 17.7733 48.817 18.5594 48.817 19.3672V23.4034C48.817 23.9006 48.5125 24.202 47.9035 24.3076H47.8383C47.4157 24.3076 47.1019 24.059 46.8968 23.5619V23.4594L46.9061 23.245Z" fill="white"/>
<path d="M56.7214 20.9799C56.7152 20.8556 56.5878 20.781 56.3392 20.7561C53.1948 20.0539 51.5169 19.6065 51.3056 19.4139C50.6655 18.9291 50.3455 18.3295 50.3455 17.6148C50.3455 16.6454 51.0229 15.7257 52.3776 14.8557C53.1233 14.4642 53.8597 14.2684 54.5868 14.2684C56.2895 14.2684 57.6349 15.0545 58.623 16.6267L58.6602 16.9716V17.0276C58.6602 17.5558 58.3433 17.8665 57.7095 17.9597C57.2869 17.9597 56.8954 17.6614 56.535 17.0648C55.9695 16.5118 55.3201 16.2352 54.5868 16.2352C53.6298 16.2352 52.8809 16.6827 52.3403 17.5775L52.3217 17.6707C52.3217 17.795 52.5889 17.8789 53.1233 17.9224C55.7955 18.5687 57.2714 18.9447 57.551 19.0503C58.3154 19.5537 58.6975 20.1906 58.6975 20.9612V20.9892C58.6975 22.0518 57.9456 23.0119 56.4417 23.8695C55.7892 24.1616 55.1026 24.3076 54.3817 24.3076C52.8903 24.3076 51.6319 23.6116 50.6065 22.2196C50.476 22.0332 50.4108 21.853 50.4108 21.679V21.4739C50.4108 20.9705 50.7525 20.6816 51.4361 20.607C51.7655 20.607 52.1539 20.927 52.6013 21.5671C53.1482 22.0767 53.7882 22.3315 54.5215 22.3315C55.3915 22.3315 56.1124 21.9244 56.6841 21.1104L56.7214 20.9799Z" fill="white"/>
<path d="M63.6563 20.4579C65.2037 16.6858 66.0395 14.7283 66.1638 14.5853C66.3813 14.4051 66.6081 14.315 66.8443 14.315C67.4408 14.4269 67.7391 14.7252 67.7391 15.2099V15.2658C67.7143 15.4584 66.6361 18.0964 64.5046 23.1797C63.4916 25.6965 62.9075 27.0543 62.7521 27.2532C62.5968 27.3713 62.3948 27.4645 62.1462 27.5328C61.5186 27.3961 61.2048 27.1134 61.2048 26.6846V26.5261C61.2048 26.4081 61.6864 25.1869 62.6496 22.8628L59.5735 15.359V15.2472C59.6916 14.6506 60.0023 14.3523 60.5057 14.3523C61.009 14.3523 61.4099 14.8432 61.7081 15.8251C62.7149 18.199 63.3643 19.7432 63.6563 20.4579Z" fill="white"/>
<path d="M77.3959 10.4H77.5637C78.1541 10.5243 78.4492 10.807 78.4492 11.2483V18.2207L78.4865 19.4139C78.4865 20.3957 78.0888 21.418 77.2934 22.4806C76.1686 23.6986 74.9009 24.3076 73.4902 24.3076H73.2106C71.831 24.3076 70.5509 23.6644 69.3702 22.3781C68.6431 21.3527 68.2795 20.2932 68.2795 19.1995C68.2795 17.5465 69.0128 16.1576 70.4794 15.0328C71.4115 14.4113 72.381 14.1006 73.3877 14.1006C74.6803 14.1006 75.7367 14.4673 76.557 15.2006V11.8541L76.5197 11.2483C76.6999 10.6828 76.992 10.4 77.3959 10.4ZM70.2091 19.0969V19.274C70.2091 20.5915 70.902 21.5733 72.2878 22.2196C72.6482 22.3253 72.9776 22.3781 73.2758 22.3781H73.4902C74.7704 22.3781 75.7398 21.6883 76.3985 20.3087C76.5042 19.8924 76.557 19.5723 76.557 19.3486V19.1342C76.557 17.823 75.8548 16.8411 74.4503 16.1886C74.0216 16.083 73.6891 16.0302 73.4529 16.0302H73.3131C72.033 16.0302 71.0635 16.7106 70.4048 18.0716C70.2743 18.4506 70.2091 18.7924 70.2091 19.0969Z" fill="white"/>
<path d="M84.4054 14.1938C86.3505 14.1938 87.8606 15.1167 88.9357 16.9623C89.3085 17.6894 89.4949 18.4755 89.4949 19.3206V19.5257C89.3831 20.1596 89.0693 20.4765 88.5535 20.4765H81.5717C81.7519 21.0917 82.2584 21.623 83.0911 22.0705C83.582 22.2569 84.0419 22.3501 84.4707 22.3501C84.9678 22.3501 85.5644 22.1761 86.2604 21.8281H86.5587C87.1428 21.94 87.4349 22.2445 87.4349 22.7416V22.8441C87.4349 23.5774 86.5121 24.0653 84.6664 24.3076H84.4054C82.5909 24.3076 81.1367 23.4594 80.043 21.7629C79.6018 20.9612 79.3812 20.1223 79.3812 19.2461C79.3812 17.3942 80.2543 15.9214 82.0005 14.8277C82.8519 14.4051 83.6535 14.1938 84.4054 14.1938ZM81.4039 18.5563H87.5095C87.5095 18.3263 87.2516 17.8634 86.7358 17.1674C86.0398 16.5087 85.3562 16.1793 84.6851 16.1793H84.3029C83.2838 16.1793 82.4448 16.6827 81.7861 17.6894C81.5562 18.0871 81.4288 18.3761 81.4039 18.5563Z" fill="white"/>
<path d="M91.0794 14.1565H91.1446C91.6418 14.1565 92.0457 14.5978 92.3564 15.4802L95.0969 21.1104C97.1166 16.8225 98.2103 14.5884 98.3781 14.4082C98.6018 14.2404 98.8255 14.1565 99.0492 14.1565C99.6831 14.2746 100 14.5884 100 15.098V15.1353C100 15.2969 99.478 16.4589 98.434 18.6215L95.8147 24C95.5412 24.2051 95.302 24.3076 95.0969 24.3076H95.069C94.5407 24.3076 94.1026 23.8043 93.7546 22.7975C91.4988 18.1927 90.3026 15.6884 90.1659 15.2844V15.0421C90.2777 14.4517 90.5822 14.1565 91.0794 14.1565Z" fill="white"/>
</svg>
