<svg width="900" height="477" viewBox="0 0 900 477" fill="none" xmlns="http://www.w3.org/2000/svg">
<g filter="url(#filter0_d)">
<path d="M210.744 159.763C210.744 175.693 207.302 189.861 200.419 202.269C193.687 214.522 183.898 224.096 171.048 230.989C158.352 237.882 143.361 241.328 126.075 241.328H64.8114V78.8864H126.075C143.514 78.8864 158.581 82.2563 171.278 88.996C183.974 95.7356 193.687 105.232 200.419 117.486C207.302 129.74 210.744 143.832 210.744 159.763ZM122.634 206.175C137.931 206.175 149.786 202.116 158.199 193.998C166.765 185.879 171.048 174.467 171.048 159.763C171.048 145.058 166.765 133.646 158.199 125.528C149.786 117.41 137.931 113.351 122.634 113.351H104.048V206.175H122.634ZM272.328 110.134V144.139H327.168V173.778H272.328V209.85H334.052V241.328H233.092V78.8864H334.052V110.134H272.328ZM472.897 195.606C472.897 204.182 470.679 212.071 466.243 219.271C461.959 226.469 455.535 232.214 446.968 236.503C438.555 240.793 428.305 242.936 416.221 242.936C398.018 242.936 383.026 238.494 371.249 229.61C359.47 220.727 353.046 208.319 351.975 192.389H393.734C394.346 198.515 396.489 203.342 400.16 206.863C403.984 210.387 408.803 212.148 414.615 212.148C419.663 212.148 423.639 210.77 426.546 208.013C429.454 205.255 430.907 201.579 430.907 196.984C430.907 192.848 429.529 189.401 426.776 186.645C424.176 183.888 420.887 181.666 416.91 179.982C412.932 178.143 407.426 175.999 400.388 173.548C390.14 170.025 381.727 166.656 375.149 163.439C368.724 160.069 363.142 155.167 358.399 148.734C353.81 142.148 351.515 133.646 351.515 123.23C351.515 113.58 353.963 105.232 358.858 98.1864C363.754 91.1404 370.483 85.7793 379.05 82.103C387.769 78.2738 397.713 76.359 408.878 76.359C426.929 76.359 441.231 80.6479 451.786 89.2258C462.494 97.8035 468.536 109.598 469.914 124.609H427.465C426.699 119.248 424.711 115.036 421.499 111.972C418.439 108.755 414.233 107.147 408.878 107.147C404.289 107.147 400.543 108.373 397.635 110.823C394.883 113.274 393.504 116.874 393.504 121.622C393.504 125.452 394.728 128.745 397.176 131.502C399.776 134.106 402.99 136.25 406.814 137.935C410.638 139.62 416.146 141.765 423.334 144.368C433.737 147.892 442.227 151.415 448.804 154.938C455.38 158.307 461.042 163.286 465.783 169.872C470.526 176.459 472.897 185.036 472.897 195.606ZM533.825 78.8864V241.328H494.589V78.8864H533.825ZM636.864 77.2782C657.208 77.2782 673.96 82.2563 687.115 92.2126C700.269 102.169 708.454 115.648 711.666 132.651H670.136C667.381 126.83 663.175 122.235 657.515 118.865C651.855 115.342 645.049 113.58 637.094 113.58C624.703 113.58 614.759 117.793 607.264 126.217C599.768 134.489 596.021 145.747 596.021 159.992C596.021 175.463 599.923 187.334 607.723 195.606C615.678 203.877 626.921 208.013 641.453 208.013C650.784 208.013 658.969 205.485 666.005 200.431C673.041 195.223 678.014 187.87 680.919 178.373H631.357V150.113H713.731V188.943C710.672 198.44 705.776 207.246 699.047 215.365C692.316 223.483 683.674 230.07 673.118 235.125C662.716 240.18 650.784 242.706 637.324 242.706C620.956 242.706 606.652 239.26 594.415 232.367C582.177 225.321 572.693 215.517 565.964 202.957C559.385 190.398 556.096 176.076 556.096 159.992C556.096 143.909 559.385 129.587 565.964 117.027C572.693 104.467 582.102 94.7399 594.186 87.8472C606.424 80.8012 620.649 77.2782 636.864 77.2782ZM879.791 241.328H840.554L774.931 141.611V241.328H735.695V78.8864H774.931L840.554 179.522V78.8864H879.791V241.328ZM170.36 448.719L151.545 425.972C150.015 428.423 148.715 430.339 147.644 431.717C144.279 437.384 139.307 441.904 132.73 445.273C126.305 448.642 118.81 450.328 110.243 450.328C99.3823 450.328 89.9749 448.107 82.0204 443.665C74.2191 439.223 68.2533 433.248 64.1231 425.742C59.9928 418.084 57.9277 409.507 57.9277 400.011C57.9277 386.683 61.446 375.808 68.4826 367.384C75.5192 358.806 84.5444 353.828 95.5581 352.448L92.8048 347.854C90.3573 344.024 88.5215 340.195 87.2979 336.366C86.0742 332.537 85.4623 328.325 85.4623 323.728C85.4623 316.835 87.2979 310.403 90.969 304.43C94.6404 298.455 99.9943 293.708 107.031 290.184C114.22 286.507 122.787 284.669 132.73 284.669C146.65 284.669 157.434 287.656 165.083 293.63C172.731 299.45 177.932 307.109 180.685 316.605C182.827 323.346 183.668 330.774 183.209 338.892H146.726C146.726 336.289 146.573 333.455 146.267 330.391C145.809 321.66 141.525 317.296 133.418 317.296C130.053 317.296 127.299 318.291 125.158 320.282C123.169 322.273 122.175 324.801 122.175 327.865C122.175 330.469 122.71 332.842 123.781 334.988C125.005 337.132 126.917 339.965 129.517 343.489L209.825 448.719H170.36ZM110.702 417.701C116.056 417.701 120.416 416.018 123.781 412.646C127.299 409.277 129.058 404.988 129.058 399.781C129.058 394.419 127.146 389.977 123.322 386.453C119.498 382.931 114.909 381.17 109.555 381.17C104.201 381.17 99.8414 382.701 96.476 385.765C93.2637 388.829 91.6574 393.193 91.6574 398.861C91.6574 404.528 93.4165 409.125 96.9348 412.646C100.606 416.018 105.195 417.701 110.702 417.701ZM298.018 284.669C318.669 284.669 335.726 290.107 349.186 300.983C362.801 311.858 371.598 326.562 375.574 345.097H334.042C330.983 337.592 326.242 331.694 319.817 327.405C313.546 323.116 306.05 320.972 297.331 320.972C285.858 320.972 276.602 325.184 269.566 333.608C262.53 342.034 259.011 353.291 259.011 367.384C259.011 381.476 262.53 392.733 269.566 401.159C276.602 409.43 285.858 413.567 297.331 413.567C306.05 413.567 313.546 411.421 319.817 407.132C326.242 402.844 330.983 397.022 334.042 389.671H375.574C371.598 408.052 362.801 422.756 349.186 433.785C335.726 444.66 318.669 450.098 298.018 450.098C282.262 450.098 268.42 446.651 256.488 439.758C244.556 432.713 235.302 422.909 228.723 410.348C222.299 397.79 219.087 383.467 219.087 367.384C219.087 351.3 222.299 336.979 228.723 324.418C235.302 311.858 244.556 302.131 256.488 295.238C268.42 288.193 282.262 284.669 298.018 284.669ZM474.661 283.751C489.957 283.751 503.802 287.35 516.191 294.548C528.734 301.596 538.602 311.475 545.791 324.188C552.98 336.749 556.576 350.995 556.576 366.924C556.576 382.854 552.904 397.177 545.561 409.89C538.372 422.603 528.504 432.56 515.961 439.758C503.572 446.804 489.804 450.328 474.661 450.328C459.517 450.328 445.672 446.804 433.129 439.758C420.738 432.56 410.872 422.603 403.529 409.89C396.34 397.177 392.746 382.854 392.746 366.924C392.746 350.995 396.34 336.749 403.529 324.188C410.872 311.475 420.738 301.596 433.129 294.548C445.672 287.35 459.517 283.751 474.661 283.751ZM474.661 320.282C461.81 320.282 451.562 324.494 443.914 332.92C436.418 341.191 432.67 352.526 432.67 366.924C432.67 381.17 436.418 392.505 443.914 400.929C451.562 409.353 461.81 413.567 474.661 413.567C487.357 413.567 497.53 409.353 505.178 400.929C512.826 392.505 516.65 381.17 516.65 366.924C516.65 352.678 512.826 341.343 505.178 332.92C497.682 324.494 487.509 320.282 474.661 320.282ZM724.55 367.154C724.55 383.084 721.108 397.252 714.225 409.66C707.493 421.913 697.703 431.487 684.854 438.38C672.158 445.273 657.167 448.719 639.88 448.719H578.616V286.277H639.88C657.319 286.277 672.388 289.648 685.084 296.387C697.78 303.127 707.493 312.624 714.225 324.878C721.108 337.132 724.55 351.223 724.55 367.154ZM636.439 413.567C651.737 413.567 663.591 409.507 672.004 401.389C680.571 393.27 684.854 381.858 684.854 367.154C684.854 352.448 680.571 341.038 672.004 332.92C663.591 324.801 651.737 320.742 636.439 320.742H617.853V413.567H636.439ZM786.134 317.526V351.53H840.974V381.17H786.134V417.241H847.858V448.719H746.898V286.277H847.858V317.526H786.134Z" fill="white"/>
</g>
<path d="M517.216 455.196C540.716 455.196 559.769 453.171 559.769 450.671C559.769 448.173 540.716 446.146 517.216 446.146C493.715 446.146 474.664 448.173 474.664 450.671C474.664 453.171 493.715 455.196 517.216 455.196Z" fill="#1E89B9"/>
<path d="M525.877 371.673C523.806 381.289 515.145 383.551 509.685 382.42C504.224 381.289 506.484 371.673 507.425 367.526C508.367 363.378 513.074 362.058 518.534 363.189C523.994 364.321 526.819 367.526 525.877 371.673Z" fill="#C3532C"/>
<path d="M517.403 389.396L507.801 390.339L510.813 374.502L515.897 379.969L517.403 389.396Z" fill="#DE908B"/>
<path d="M536.423 395.052C539.435 400.52 549.979 427.669 546.214 429.555C542.636 431.628 526.067 407.684 523.055 402.217C520.042 396.749 520.607 390.527 524.184 388.642C527.95 386.568 533.41 389.396 536.423 395.052Z" fill="#E7B3AD"/>
<path d="M495.752 410.701C489.915 420.882 480.878 426.538 478.43 425.218C475.794 423.71 478.618 413.529 484.079 403.725C489.727 393.544 495.94 386.379 499.706 388.642C503.284 390.716 501.589 400.708 495.752 410.701Z" fill="#E7B3AD"/>
<path d="M530.771 413.717C527.382 408.815 524.37 404.29 523.24 402.217C520.227 396.749 520.792 390.527 524.37 388.642C527.947 386.568 533.407 389.585 536.42 395.052C537.55 397.126 539.809 402.405 542.068 408.25C538.491 413.34 530.771 413.717 530.771 413.717Z" fill="#7FB552"/>
<path d="M484.08 403.725C489.729 393.544 495.942 386.379 499.708 388.642C503.285 390.716 501.779 399.766 496.695 409.192C496.507 409.192 486.528 407.873 484.08 403.725Z" fill="#7FB552"/>
<path d="M499.329 388.076L526.63 387.888C532.09 387.888 536.044 393.167 534.35 398.446L519.475 444.26C517.781 449.728 512.32 453.31 506.672 452.745C500.647 452.179 495.94 447.466 495.563 441.432L492.362 395.618C491.986 391.658 495.186 388.076 499.329 388.076Z" fill="#DE908B"/>
<path d="M499.329 388.076H507.613C506.86 391.093 508.178 394.864 512.32 395.429C517.027 395.995 519.287 391.659 518.534 388.076H526.63C532.09 388.076 536.044 393.355 534.35 398.634L519.475 444.449C517.781 449.917 512.32 453.499 506.672 452.933C500.647 452.368 495.94 447.654 495.563 441.621L492.362 395.618C491.986 391.659 495.186 388.076 499.329 388.076Z" fill="#7FB552"/>
<path d="M493.118 425.972C497.448 427.858 518.724 438.981 517.783 441.432C516.653 443.883 493.494 435.965 489.352 433.891C481.632 429.932 476.737 425.784 477.867 423.521C478.996 421.259 488.787 424.087 493.118 425.972Z" fill="#E7B3AD"/>
<path d="M546.402 446.711C538.682 449.162 489.163 460.852 487.28 456.892C486.527 455.384 533.975 433.702 541.695 431.44C549.414 428.989 556.757 430.497 558.075 434.834C559.393 438.981 554.121 444.26 546.402 446.711Z" fill="#DE908B"/>
<path d="M504.412 447.654C518.533 440.867 537.174 432.76 541.692 431.44C549.412 428.989 556.755 430.497 558.073 434.834C559.391 438.981 554.119 444.449 546.4 446.711C541.692 448.031 523.429 453.687 508.178 456.515C507.425 453.31 506.483 449.728 504.412 447.654Z" fill="#263E5F"/>
<path d="M523.995 377.33C522.489 384.305 520.418 387.511 516.84 386.756C512.51 385.814 507.991 379.781 509.309 374.124C510.439 368.468 513.828 365.64 518.158 366.583C522.301 367.337 525.125 371.485 523.995 377.33Z" fill="#E7B3AD"/>
<path d="M509.875 371.862L520.984 374.125C522.114 374.313 523.243 374.313 524.373 373.747C523.996 369.788 521.549 367.149 518.16 366.394C514.206 365.64 511.381 367.526 509.875 371.862Z" fill="#DE906D"/>
<path d="M520.982 372.993L508.367 370.354L508.932 367.903C509.497 364.886 512.509 363.001 515.522 363.566L528.325 366.206L527.76 368.657C527.007 371.674 524.183 373.747 520.982 372.993Z" fill="#C3532C"/>
<path d="M511.002 375.444L512.32 369.034L515.144 369.6L514.391 373.182C514.015 374.879 512.508 375.821 511.002 375.444Z" fill="#C3532C"/>
<path d="M512.323 374.502C511.946 376.387 511.005 377.895 509.499 377.518C507.992 377.141 507.427 374.313 507.992 372.428C508.369 370.542 509.498 370.354 511.005 370.542C512.511 370.919 512.888 372.616 512.323 374.502Z" fill="#E7B3AD"/>
<path d="M540.564 433.702C536.234 435.211 512.134 441.621 511.192 439.359C510.439 436.908 533.221 426.538 537.552 425.218C541.882 423.71 546.025 424.464 546.966 426.915C547.719 429.177 544.895 432.194 540.564 433.702Z" fill="#E7B3AD"/>
<path d="M497.823 451.425C497.823 451.425 497.635 451.802 493.493 451.425C489.35 451.048 488.785 449.351 485.396 453.31C482.195 457.27 474.099 457.647 473.911 459.72C473.723 461.794 505.543 455.573 505.543 455.573L497.823 451.425Z" fill="#DE908B"/>
<path d="M485.586 453.31C488.787 449.351 489.352 451.048 493.683 451.425C490.105 452.368 488.034 455.384 487.657 458.778C480.503 459.909 474.101 460.663 474.289 459.721C474.289 457.647 482.197 457.27 485.586 453.31Z" fill="#363B40"/>
<path d="M517.215 434.268C517.215 434.268 521.357 435.965 521.357 437.285C521.357 438.793 520.981 439.736 518.91 439.736C516.838 439.736 514.014 438.604 512.32 437.662C510.625 436.719 508.742 433.891 508.742 433.514C508.742 432.006 511.378 434.079 512.696 434.834C514.014 435.776 515.709 436.719 515.897 435.965C516.085 435.211 513.449 433.514 513.449 432.571C513.449 431.628 517.215 434.268 517.215 434.268Z" fill="#E7B3AD"/>
<path d="M509.498 443.129L537.741 439.736C539.059 439.547 540 438.416 540 437.096V418.996C540 417.488 538.682 416.168 537.176 416.357L508.933 419.751C507.615 419.939 506.674 421.07 506.674 422.39V440.49C506.674 441.998 507.992 443.318 509.498 443.129Z" fill="#ADD9F0"/>
<path d="M523.805 435.776C526.198 435.776 528.136 433.244 528.136 430.12C528.136 426.996 526.198 424.464 523.805 424.464C521.414 424.464 519.475 426.996 519.475 430.12C519.475 433.244 521.414 435.776 523.805 435.776Z" fill="#D0E9F6"/>
<path d="M492.551 430.309C500.459 432.194 542.258 449.54 542.823 454.442C543.011 455.573 495.94 450.482 488.032 448.408C480.124 446.523 475.041 440.301 476.17 435.399C477.3 430.497 484.643 428.235 492.551 430.309Z" fill="#E7B3AD"/>
<path d="M532.469 446.9C532.469 446.9 536.235 448.974 540.565 449.351C544.707 449.728 545.649 448.22 548.096 452.745C550.544 457.27 558.264 459.155 558.076 461.229C557.887 463.303 527.762 451.048 527.762 451.048L532.469 446.9Z" fill="#E7B3AD"/>
<path d="M539.811 449.351C539.999 449.351 540.187 449.351 540.375 449.351C544.518 449.728 545.459 448.22 547.907 452.745C550.354 457.27 558.074 459.155 557.886 461.229C557.886 462.172 551.861 460.098 545.082 457.835C545.271 454.253 543.576 450.671 539.811 449.351Z" fill="#363B40"/>
<path d="M476.17 435.399C477.3 430.686 484.643 428.423 492.551 430.309C497.07 431.44 513.074 437.662 525.689 443.695C524.748 447.089 523.995 452.179 524.183 454.441C510.25 452.933 492.363 449.351 487.844 448.408C479.936 446.334 474.852 440.113 476.17 435.399Z" fill="#266E9E"/>
<path d="M339.471 108.135C339.675 102.62 335.376 97.9835 329.869 97.779C324.362 97.5744 319.732 101.879 319.526 107.394C319.323 112.909 323.622 117.545 329.129 117.75C334.636 117.955 339.266 113.65 339.471 108.135Z" fill="#AC2358"/>
<path d="M317.825 109.23C314.812 113.377 304.08 132.608 306.528 134.494C308.976 136.19 323.85 119.976 326.863 115.828C329.875 111.681 330.44 106.779 327.992 104.893C325.168 103.008 320.837 105.082 317.825 109.23Z" fill="#E7B3AD"/>
<path d="M305.774 127.141C302.95 125.067 285.063 113.566 283.933 115.074C282.804 116.583 298.996 130.723 301.82 132.608C304.645 134.682 307.657 135.059 308.787 133.362C309.917 132.043 308.599 129.215 305.774 127.141Z" fill="#E7B3AD"/>
<path d="M286.38 113.566C286.38 113.566 285.25 116.96 283.179 116.205C280.92 115.263 280.167 109.041 281.296 107.721C282.426 106.59 284.121 110.549 286.38 113.566Z" fill="#E7B3AD"/>
<path d="M287.323 112.623C287.7 112.058 287.511 111.492 286.947 111.115L276.591 104.705C276.026 104.328 275.461 104.516 275.085 105.082C274.708 105.647 274.896 106.213 275.461 106.59L285.817 113C286.382 113.189 286.947 113 287.323 112.623Z" fill="#914F2B"/>
<path d="M283.745 107.91C284.121 107.91 284.31 109.041 284.498 110.361C284.498 111.115 284.686 111.869 285.251 112.435C285.628 112.812 285.816 113.377 285.816 113.943C285.816 114.886 285.063 115.64 284.31 115.64C283.18 115.64 283.18 113.755 283.18 113C282.992 111.681 283.18 107.91 283.745 107.91Z" fill="#E7B3AD"/>
<path d="M275.272 102.631C276.401 103.196 276.778 104.516 276.213 105.647C275.648 106.778 274.33 107.156 273.201 106.59C272.071 106.024 269.811 103.762 270.376 102.631C272.259 103.573 274.142 102.065 275.272 102.631Z" fill="#D7BB82"/>
<path d="M275.272 102.631C276.401 103.196 274.33 106.967 273.201 106.402C272.071 105.836 269.811 103.573 270.376 102.442C272.259 103.573 274.142 102.065 275.272 102.631Z" fill="#D56633"/>
<path d="M271.318 107.156C271.318 107.721 270.753 108.287 270.188 108.287C269.623 108.287 269.059 107.721 269.059 107.156C269.059 106.59 270.188 105.082 270.188 105.082C270.188 105.082 271.318 106.59 271.318 107.156Z" fill="#D56633"/>
<path d="M332.888 247.804C340.792 247.804 347.197 247.129 347.197 246.296C347.197 245.463 340.792 244.788 332.888 244.788C324.985 244.788 318.578 245.463 318.578 246.296C318.578 247.129 324.985 247.804 332.888 247.804Z" fill="#1E89B9"/>
<path d="M328.556 228.008C328.556 228.008 331.569 236.115 332.887 236.869C334.205 237.623 335.711 239.509 334.205 241.206C333.075 242.337 331.945 243.657 331.004 244.599C330.251 245.353 329.121 245.73 327.991 245.73C326.108 245.73 323.096 245.919 322.719 245.73C321.966 245.73 323.096 243.845 325.732 243.468C328.368 243.091 330.062 236.869 326.673 232.344L328.556 228.008Z" fill="#DE908B"/>
<path d="M354.54 110.524C354.743 105.01 350.445 100.373 344.937 100.168C339.43 99.9641 334.8 104.269 334.595 109.784C334.391 115.298 338.69 119.935 344.197 120.14C349.705 120.344 354.335 116.039 354.54 110.524Z" fill="#AC2358"/>
<path d="M347.765 98.7914C347.931 94.3172 344.442 90.5555 339.974 90.3894C335.506 90.2235 331.749 93.716 331.584 98.1904C331.418 102.665 334.905 106.426 339.373 106.592C343.841 106.758 347.599 103.266 347.765 98.7914Z" fill="#AC2358"/>
<path d="M322.531 146.937L335.335 145.429L338.536 136.568L348.515 110.738C349.456 108.098 347.573 105.082 344.749 105.082L325.732 104.328C322.531 104.139 319.895 106.967 320.084 109.984L322.531 146.937Z" fill="#EDBC31"/>
<path d="M331.569 110.738L320.648 110.361L316.883 120.165C315.753 123.181 317.824 126.575 321.213 126.575L325.544 126.764L331.569 110.738Z" fill="#EDBC31"/>
<path d="M332.134 167.111C327.05 173.709 314.059 196.522 309.352 192.751C304.645 188.981 313.494 155.421 318.578 148.823C323.661 142.224 338.724 137.699 343.62 141.47C348.327 145.24 337.218 160.512 332.134 167.111Z" fill="#B94746"/>
<path d="M330.064 199.727C330.629 204.818 335.712 245.353 337.407 244.788C338.913 244.222 341.549 203.875 340.984 198.596C340.419 193.506 337.595 189.546 334.582 189.735C331.57 190.112 329.499 194.448 330.064 199.727Z" fill="#E7B3AD"/>
<path d="M309.351 195.391C311.422 200.104 328.368 237.246 329.686 236.115C331.004 235.172 321.401 195.768 319.33 191.055C317.259 186.341 313.305 183.325 310.481 184.456C307.845 185.776 307.28 190.677 309.351 195.391Z" fill="#DE908B"/>
<path d="M335.147 235.549H339.101C340.042 223.294 341.548 201.613 341.172 198.596C340.607 193.506 337.783 189.546 334.77 189.735C331.757 190.112 329.686 194.448 330.251 199.727C330.439 202.744 333.264 223.672 335.147 235.549Z" fill="#C85A50"/>
<path d="M330.44 232.344C328.18 220.655 321.025 194.825 319.519 191.243C317.448 186.53 313.494 183.513 310.67 184.645C307.845 185.776 307.281 190.677 309.352 195.579C310.858 198.973 321.779 222.352 327.239 233.098L330.44 232.344Z" fill="#B94746"/>
<path d="M329.686 162.209C329.309 170.504 328.179 199.539 334.016 199.727C340.041 199.916 351.15 168.807 351.527 156.93C352.091 141.092 343.054 135.436 337.029 135.248C331.192 135.059 329.874 153.913 329.686 162.209Z" fill="#C85A50"/>
<path d="M338.912 235.549C338.912 235.549 338.912 240.451 339.477 243.091C340.042 245.73 339.477 246.862 336.841 246.862C334.017 246.862 327.238 247.804 326.485 246.862C325.732 246.107 328.933 244.976 331.192 244.034C333.828 243.091 335.523 239.697 335.523 237.435L338.912 235.549Z" fill="#E7B3AD"/>
<path d="M333.074 237.058C332.321 239.886 330.25 242.148 327.049 242.902C326.672 243.279 326.296 243.468 325.919 243.468C323.283 243.845 322.154 245.73 322.907 245.73C323.472 245.73 326.296 245.73 328.179 245.73C329.308 245.73 330.25 245.353 331.191 244.599C332.133 243.845 333.262 242.525 334.392 241.206C335.71 239.697 334.392 237.812 333.074 237.058Z" fill="#753B27"/>
<path d="M339.666 243.091C338.348 244.034 336.465 244.788 334.394 244.788C333.265 244.788 332.135 244.599 331.193 244.222C328.934 245.165 325.921 246.107 326.675 247.05C327.428 247.804 334.394 247.05 337.03 247.05C339.666 246.862 340.231 245.73 339.666 243.091Z" fill="#753B27"/>
<path d="M338.724 113.377C337.595 118.468 335.712 140.338 338.724 141.092C341.737 141.658 348.515 120.73 349.457 115.64C350.586 110.549 348.892 105.836 345.879 105.27C343.055 104.705 339.666 108.287 338.724 113.377Z" fill="#DE908B"/>
<path d="M335.523 135.813C332.134 135.625 310.67 136.19 310.67 138.076C310.67 139.961 331.946 142.601 335.335 142.601C338.724 142.789 341.549 141.281 341.549 139.396C341.737 137.51 338.913 136.002 335.523 135.813Z" fill="#DE908B"/>
<path d="M308.599 136.379C308.599 136.379 311.988 136.19 312.364 137.133C312.741 138.076 312.929 138.83 311.423 139.584C310.105 140.15 307.845 140.527 306.339 140.338C305.021 140.15 302.762 139.019 302.573 138.83C302.009 137.887 304.456 138.264 305.774 138.453C306.904 138.641 308.41 138.641 308.222 138.076C308.222 137.51 305.774 137.322 305.586 136.568C305.209 135.813 308.599 136.379 308.599 136.379Z" fill="#DE908B"/>
<path d="M303.703 139.773C308.589 139.773 312.552 138.506 312.552 136.945C312.552 135.383 308.589 134.117 303.703 134.117C298.815 134.117 294.854 135.383 294.854 136.945C294.854 138.506 298.815 139.773 303.703 139.773Z" fill="#FCF7D7"/>
<path d="M298.62 137.322C299.556 137.322 300.315 137.069 300.315 136.756C300.315 136.444 299.556 136.19 298.62 136.19C297.685 136.19 296.926 136.444 296.926 136.756C296.926 137.069 297.685 137.322 298.62 137.322Z" fill="#D56633"/>
<path d="M302.573 138.453C303.509 138.453 304.268 138.2 304.268 137.887C304.268 137.575 303.509 137.322 302.573 137.322C301.638 137.322 300.879 137.575 300.879 137.887C300.879 138.2 301.638 138.453 302.573 138.453Z" fill="#D3638E"/>
<path d="M302.95 136.002C303.886 136.002 304.645 135.749 304.645 135.436C304.645 135.124 303.886 134.871 302.95 134.871C302.015 134.871 301.256 135.124 301.256 135.436C301.256 135.749 302.015 136.002 302.95 136.002Z" fill="#6A61A7"/>
<path d="M306.904 137.51C306.904 137.51 309.352 137.699 309.728 136.945C310.105 136.19 306.904 135.436 305.586 135.436C304.268 135.436 303.515 135.436 304.268 136.002C305.021 136.379 306.904 137.51 306.904 137.51Z" fill="#DE908B"/>
<path d="M278.472 167.488H270.753L247.594 73.0304L254.937 71.3336L278.472 167.488Z" fill="#DD97E0" stroke="#DD97E0" stroke-miterlimit="10"/>
<path d="M258.703 118.468V246.485H296.925" stroke="#DD97E0" stroke-miterlimit="10"/>
<path d="M270.754 167.488H292.03" stroke="#DD97E0" stroke-miterlimit="10"/>
<path d="M252.866 171.447H247.594V185.776H252.866V171.447Z" stroke="#DD97E0" stroke-miterlimit="10"/>
<path d="M252.865 178.611H258.702" stroke="#DD97E0" stroke-miterlimit="10"/>
<path d="M325.543 80.1949C327.05 79.8178 328.368 80.3834 329.309 81.1375C330.815 82.4573 332.698 83.4 334.769 83.4H335.899C337.405 83.4 338.912 84.3427 339.476 85.851L341.548 90.753L327.803 90.1873V88.4905C327.426 88.679 327.05 88.679 326.485 88.679C323.661 88.4905 321.589 86.0395 322.531 83.0229C322.719 81.7032 324.037 80.5719 325.543 80.1949Z" fill="#AC2358"/>
<path d="M330.817 113.755C333.641 114.886 338.725 104.516 338.725 104.516L335.147 96.9747L331.005 97.7288L330.817 104.328C330.817 104.328 328.557 113 330.817 113.755Z" fill="#DE908B"/>
<path d="M330.862 89.2556C330.95 86.8625 329.084 84.8504 326.695 84.7616C324.306 84.6728 322.295 86.541 322.206 88.9341C322.118 91.3274 323.984 93.3395 326.373 93.4283C328.764 93.5171 330.773 91.6489 330.862 89.2556Z" fill="#AC2358"/>
<path d="M332.783 95.7192C332.872 93.3259 331.006 91.3138 328.615 91.225C326.226 91.1362 324.217 93.0044 324.128 95.3975C324.04 97.7908 325.905 99.8029 328.295 99.8917C330.684 99.9805 332.693 98.1123 332.783 95.7192Z" fill="#AC2358"/>
<path d="M326.297 89.6217C326.109 96.7861 331.946 98.6715 335.9 98.86C339.854 99.0486 339.854 93.0154 340.042 89.9988C340.23 86.9822 337.03 85.0968 332.887 84.9082C328.933 84.7197 326.297 86.6051 326.297 89.6217Z" fill="#AC2358"/>
<path d="M325.923 91.8842C325.923 92.8269 325.546 93.9581 325.734 94.9008C326.299 98.8601 329.123 103.008 330.818 103.008C331.948 103.008 335.713 100.557 337.031 97.7289C337.596 96.5976 337.785 95.4664 337.785 94.1466C337.973 89.8103 336.09 87.3593 332.889 87.1707C329.5 87.1707 325.923 87.5478 325.923 91.8842Z" fill="#E7B3AD"/>
<path d="M337.596 92.6383L329.5 92.2612C328.558 92.2612 326.864 91.5071 326.299 89.6217C326.487 86.6051 328.182 86.6051 332.889 87.3593C335.525 87.7364 337.219 89.2446 337.596 92.6383Z" fill="#DE906D"/>
<path d="M329.499 91.5071L338.913 91.8841V89.9988C338.913 87.7363 337.219 85.8509 334.959 85.8509L325.545 85.4739V87.3593C325.545 89.4332 327.239 91.3185 329.499 91.5071Z" fill="#AC2358"/>
<path d="M336.089 94.9007L336.277 90.1873H334.206L334.018 92.8268C334.018 93.9581 334.959 94.9007 336.089 94.9007Z" fill="#AC2358"/>
<path d="M335.336 93.9581C335.336 95.2778 335.713 96.5976 336.842 96.5976C337.972 96.5976 338.537 95.0891 338.537 93.5808C338.537 92.261 338.16 91.5071 337.031 91.5071C335.901 91.5071 335.336 92.6383 335.336 93.9581Z" fill="#E7B3AD"/>
<path d="M781.005 226.122C785.789 226.122 789.666 222.241 789.666 217.45C789.666 212.661 785.789 208.777 781.005 208.777C776.222 208.777 772.344 212.661 772.344 217.45C772.344 222.241 776.222 226.122 781.005 226.122Z" fill="#EFC35B"/>
<path d="M763.305 233.664C769.545 233.664 774.602 228.6 774.602 222.352C774.602 216.105 769.545 211.039 763.305 211.039C757.067 211.039 752.008 216.105 752.008 222.352C752.008 228.6 757.067 233.664 763.305 233.664Z" fill="#EFC35B"/>
<path d="M727.342 245.542C727.342 245.542 729.978 249.124 729.037 250.255C728.284 251.387 727.531 251.952 725.648 250.821C723.953 249.69 722.07 247.239 721.317 245.542C720.564 243.845 720.376 240.64 720.564 240.263C721.317 238.943 722.447 242.148 723.012 243.468C723.577 244.976 724.518 246.673 725.083 246.107C725.648 245.542 724.33 242.902 724.895 241.96C725.648 241.206 727.342 245.542 727.342 245.542Z" fill="#E7B3AD"/>
<path d="M749.373 249.501C745.607 249.124 725.084 247.993 724.896 250.067C724.708 252.141 744.854 256.666 748.62 257.043C752.386 257.42 755.586 256.1 755.963 254.026C756.151 251.952 753.327 249.878 749.373 249.501Z" fill="#E7B3AD"/>
<path d="M749.372 249.501C746.924 249.313 735.627 248.558 728.096 248.747C728.661 250.067 728.849 252.895 728.849 254.403C736.004 256.289 746.171 256.854 748.619 257.043C752.384 257.42 755.585 256.1 755.962 254.026C756.15 251.952 753.326 249.878 749.372 249.501Z" fill="#D97FA2"/>
<path d="M701.172 264.019C696.277 266.092 657.49 282.684 658.62 284.192C659.561 285.512 700.231 277.028 705.126 275.142C710.022 273.068 713.222 269.109 712.093 265.904C711.151 262.887 706.256 261.945 701.172 264.019Z" fill="#E7B3AD"/>
<path d="M754.832 231.025C752.761 235.549 748.807 256.666 751.819 257.985C754.643 259.305 763.116 240.451 765.187 235.926C767.258 231.402 766.694 226.688 763.869 225.368C761.045 224.049 757.091 226.5 754.832 231.025Z" fill="#D97FA2"/>
<path d="M793.243 224.237C790.795 220.278 781.758 216.884 781.758 216.884L777.427 204.441C776.674 202.932 775.168 201.801 773.285 201.801H772.532C770.272 201.801 767.825 201.236 766.13 199.539C765.001 198.596 763.494 198.03 761.611 198.407C759.917 198.785 758.411 200.293 758.034 201.99C757.281 205.195 759.729 208.023 762.741 208.023C763.306 208.023 763.683 207.834 764.059 207.834V209.72H774.98C771.967 210.851 769.708 213.302 769.143 216.507C768.39 220.843 770.461 224.614 773.85 226.5C772.908 228.573 772.532 231.024 773.097 233.664C774.038 238.189 778.18 241.771 782.699 242.337C789.478 243.091 795.126 237.812 795.126 231.213C795.503 228.573 794.373 226.311 793.243 224.237Z" fill="#EFC35B"/>
<path d="M743.159 255.911C736.381 256.289 701.548 259.871 701.925 266.658C702.301 273.445 740.147 280.798 749.749 280.044C762.553 279.102 765.942 268.543 765.565 261.756C765.189 254.969 749.749 255.534 743.159 255.911Z" fill="#583158"/>
<path d="M668.034 279.102C668.034 279.102 661.444 280.798 658.62 280.798C655.796 280.798 646.005 277.216 646.946 280.61C646.946 280.61 654.666 286.266 656.925 287.209C659.938 288.528 661.444 284.381 666.905 283.249L668.034 279.102Z" fill="#E7B3AD"/>
<path d="M653.535 279.856C650.146 279.102 646.38 278.536 646.945 280.61C646.945 280.61 654.665 286.266 656.924 287.209C658.807 287.963 660.125 286.643 662.385 285.135C658.996 285.323 655.418 283.815 653.535 279.856Z" fill="#BE4830"/>
<path d="M784.206 225.18H762.93C759.352 225.18 757.093 233.098 757.093 233.098L753.515 243.468C752.386 246.862 754.833 250.632 758.599 250.632H758.787L761.047 273.445L775.356 271.183L778.557 261.002L788.536 231.59C789.666 228.385 787.407 225.18 784.206 225.18Z" fill="#D3638E"/>
<path d="M775.922 231.213C772.721 236.115 761.424 257.985 764.248 259.871C767.072 261.756 782.888 242.902 786.277 238C789.478 233.098 789.855 227.631 787.03 225.745C784.206 224.049 779.122 226.5 775.922 231.213Z" fill="#D97FA2"/>
<path d="M715.104 266.092C709.832 268.543 670.669 285.135 672.175 287.02C673.305 288.34 678.765 285.889 683.096 285.323C694.958 283.626 716.422 279.29 720.376 277.405C725.648 274.954 728.849 270.429 727.342 267.224C725.836 264.019 720.376 263.641 715.104 266.092Z" fill="#DE908B"/>
<path d="M752.197 263.076C744.29 262.51 717.177 260.436 716.612 267.035C716.047 273.823 745.043 287.02 756.151 287.774C771.026 288.717 776.674 278.913 777.239 272.126C777.616 265.527 759.917 263.642 752.197 263.076Z" fill="#7D3160"/>
<path d="M679.706 282.307C679.706 282.307 673.116 283.626 670.292 283.626C667.467 283.438 657.865 279.479 658.618 282.872C658.618 282.872 665.961 288.905 668.409 289.848C671.233 291.168 672.928 287.209 678.576 286.266L679.706 282.307Z" fill="#DE908B"/>
<path d="M665.022 282.307C661.632 281.364 658.055 280.61 658.432 282.872C658.432 282.872 665.775 288.906 668.222 289.848C670.105 290.791 671.612 289.283 673.871 287.963C670.482 288.151 666.904 286.455 665.022 282.307Z" fill="#BE4830"/>
<path d="M750.878 263.264L729.414 261.945L722.447 239.697C724.518 239.132 726.59 240.263 727.154 242.148L732.238 258.362L747.301 259.305C749.372 259.305 750.878 261.19 750.878 263.264Z" fill="#81868B"/>
<path d="M760.857 253.46C757.091 253.837 733.368 257.608 733.556 259.682C733.744 261.756 757.844 261.568 761.61 261.19C765.376 260.813 768.388 258.739 768.012 256.666C767.824 254.592 764.623 253.083 760.857 253.46Z" fill="#E7B3AD"/>
<path d="M760.859 253.46C758.411 253.649 747.114 255.346 739.959 257.043C740.712 258.174 741.654 261.002 741.842 262.322C749.373 262.699 759.352 261.191 761.8 261.002C765.566 260.625 768.578 258.551 768.202 256.477C767.825 254.592 764.624 253.083 760.859 253.46Z" fill="#D97FA2"/>
<path d="M733.179 255.534C733.179 255.534 737.133 257.42 736.945 258.74C736.756 260.059 736.38 261.002 734.309 260.813C732.238 260.625 729.602 259.494 728.095 258.362C726.589 257.231 724.895 254.592 724.895 254.026C724.895 252.518 727.531 254.592 728.66 255.723C729.978 256.666 731.484 257.797 731.673 257.043C732.049 256.289 729.413 254.592 729.413 253.649C729.79 252.706 733.179 255.534 733.179 255.534Z" fill="#E7B3AD"/>
<path d="M768.203 234.23C771.027 235.549 777.429 225.368 777.429 225.368L773.097 217.073L768.58 218.015V225.368C768.58 225.18 766.132 233.287 768.203 234.23Z" fill="#DE908B"/>
<path d="M763.118 213.113C765.822 213.113 768.013 210.919 768.013 208.211C768.013 205.504 765.822 203.31 763.118 203.31C760.414 203.31 758.223 205.504 758.223 208.211C758.223 210.919 760.414 213.113 763.118 213.113Z" fill="#EFC35B"/>
<path d="M762.93 208.966C762.93 217.073 769.708 218.77 774.227 218.77C778.746 218.77 778.369 212.171 778.369 208.589C778.369 205.195 774.792 203.31 770.273 203.31C765.566 203.31 762.93 205.383 762.93 208.966Z" fill="#EFC35B"/>
<path d="M762.363 211.417C762.363 212.548 762.552 213.868 762.74 215.187C763.305 219.335 766.506 223.86 768.2 223.86C769.142 223.86 773.66 221.032 774.978 217.827C775.543 216.319 775.732 214.999 775.732 213.49C775.732 208.777 773.66 205.949 769.895 205.949C766.506 206.138 762.363 206.703 762.363 211.417Z" fill="#E7B3AD"/>
<path d="M775.734 211.794H766.508C764.06 211.605 763.119 209.908 762.742 209.154C762.742 205.76 764.625 205.572 770.085 206.138C773.286 206.515 775.169 208.211 775.734 211.794Z" fill="#DE906D"/>
<path d="M766.507 210.851H777.051V208.777C777.051 206.326 774.98 204.252 772.532 204.252H761.988V206.326C761.988 208.777 764.059 210.851 766.507 210.851Z" fill="#EFC35B"/>
<path d="M774.039 214.433V209.154H771.779V212.171C771.779 213.49 772.909 214.433 774.039 214.433Z" fill="#EFC35B"/>
<path d="M773.285 213.49C773.285 214.999 773.85 216.319 774.98 216.319C776.11 216.319 776.863 214.433 776.863 212.925C776.863 211.417 776.298 210.662 774.98 210.662C773.662 210.662 773.285 211.794 773.285 213.49Z" fill="#E7B3AD"/>
<path d="M89.8128 67.1859H75.6914V125.444H89.8128V67.1859Z" fill="#DD8852"/>
<path d="M103.934 67.1859H89.8125V104.893H103.934V67.1859Z" fill="#DD8852"/>
<path d="M57.8025 200.67C62.1699 200.67 65.7104 197.125 65.7104 192.751C65.7104 188.379 62.1699 184.833 57.8025 184.833C53.435 184.833 49.8945 188.379 49.8945 192.751C49.8945 197.125 53.435 200.67 57.8025 200.67Z" stroke="#D1D2D6" stroke-width="0.5" stroke-miterlimit="10"/>
<path d="M66.2749 193.694H49.5176V217.261H66.2749V193.694Z" fill="#9F9FA4"/>
<path d="M49.5176 193.694H66.2749" stroke="#81868B" stroke-miterlimit="10" stroke-linecap="round"/>
<path d="M49.5176 205.006H66.2749" stroke="#81868B" stroke-miterlimit="10" stroke-linecap="round"/>
<path d="M49.5176 216.319H66.2749" stroke="#81868B" stroke-miterlimit="10" stroke-linecap="round"/>
<path d="M62.134 208.023C61.1926 208.023 60.4395 207.269 60.4395 206.326V192.94H64.0168V206.326C64.0168 207.08 63.0754 208.023 62.134 208.023Z" fill="#DD8852"/>
<path d="M57.8039 181.251C57.8039 181.251 60.2516 185.022 59.3102 185.776C58.3687 186.53 55.3562 187.096 54.6031 186.907C53.8499 186.719 52.9085 181.44 53.8499 181.251C54.7913 181.063 57.8039 181.251 57.8039 181.251Z" fill="#E7B3AD"/>
<path d="M31.8201 266.847C49.3938 266.847 63.6402 265.074 63.6402 262.887C63.6402 260.7 49.3938 258.928 31.8201 258.928C14.2463 258.928 0 260.7 0 262.887C0 265.074 14.2463 266.847 31.8201 266.847Z" fill="#1E89B9"/>
<path d="M61.3808 160.323C61.1925 164.283 58.7446 185.965 56.4852 185.776C54.2258 185.588 53.2844 163.906 53.4726 159.946C53.6609 155.987 55.5438 152.782 57.8032 152.97C59.8743 152.97 61.5691 156.364 61.3808 160.323Z" fill="#E7B3AD"/>
<path d="M55.7322 124.501C57.4267 129.215 62.6987 158.815 59.4979 159.946C56.1087 161.077 45.3765 133.362 43.682 128.46C41.9874 123.747 43.4937 119.034 46.8828 117.902C50.0836 116.771 54.0376 119.788 55.7322 124.501Z" fill="#E7B3AD"/>
<path d="M57.9917 134.494C57.2386 129.969 56.2971 126.01 55.7323 124.313C54.0377 119.599 50.0837 116.583 46.8829 117.714C43.4938 118.845 42.1758 123.559 43.6821 128.272C44.2469 130.157 46.1298 134.305 48.3892 138.642C48.2009 139.019 54.0377 138.642 57.9917 134.494Z" fill="#2A8E7F"/>
<path d="M43.1169 248.181V257.42L41.6106 262.699C41.4223 263.076 41.7989 263.453 42.1755 263.453H45.7529V262.322L47.4474 263.453C47.4474 263.453 56.8617 264.019 57.2382 263.453C58.368 261.568 52.9077 260.813 48.9537 259.117C44.9997 257.608 47.6357 242.337 47.6357 242.337L43.1169 248.181Z" fill="#DE908B"/>
<path d="M52.5322 214.056C51.779 218.958 45.5656 256.477 44.0594 255.911C42.7414 255.346 41.6117 217.45 42.3648 212.548C43.1179 207.646 45.9422 204.064 48.7665 204.441C51.5907 205.006 53.2853 209.154 52.5322 214.056Z" fill="#DE908B"/>
<path d="M47.4475 250.255C49.7069 239.132 52.1546 217.073 52.5312 214.056C53.2843 209.154 51.4015 205.006 48.5772 204.629C45.753 204.252 42.9287 207.834 42.1755 212.736C41.799 215.753 41.4224 238.755 41.9873 250.255H47.4475Z" fill="#2A486F"/>
<path d="M16.5706 241.583L12.8049 251.952C12.8049 251.952 11.1104 253.083 10.3572 254.026C9.98066 254.592 9.41582 255.346 9.03925 255.911C8.66268 256.289 8.85095 256.854 9.22752 257.231L11.1104 258.928C11.4869 259.305 12.0518 259.305 12.4284 258.928L12.8049 258.551L13.7464 261.002C14.1229 261.756 14.8761 262.322 15.6292 262.51C17.8886 262.887 22.0308 263.264 22.2191 262.699C22.5957 261.002 16.5706 258.74 16.5706 258.74L16.0058 253.272L18.83 246.485L16.5706 241.583Z" fill="#E7B3AD"/>
<path d="M34.4566 213.868C32.5738 218.392 16.193 252.895 14.875 251.764C13.7453 250.821 23.1596 214.056 25.0424 209.531C26.9252 205.006 30.6909 202.367 33.3269 203.498C35.9629 204.818 36.5278 209.531 34.4566 213.868Z" fill="#E7B3AD"/>
<path d="M33.3269 203.687C30.6909 202.555 26.9252 205.195 25.0424 209.72C23.7244 212.548 16.3813 234.795 13.9336 246.296L18.829 247.804C24.101 237.623 33.5152 216.696 34.6449 213.868C36.5278 209.531 35.9629 204.818 33.3269 203.687Z" fill="#266E9E"/>
<path d="M56.4853 169.185C56.6736 176.16 54.2259 221.032 49.3305 221.032C44.4351 221.221 38.7865 176.538 38.5983 169.562C38.41 162.586 42.3639 156.741 47.2593 156.553C52.1547 156.364 56.297 162.02 56.4853 169.185Z" fill="#2A486F"/>
<path d="M43.1169 167.676C43.3052 174.652 37.6567 215.187 32.7613 215.376C27.8659 215.564 24.4768 175.029 24.2885 168.053C24.1002 161.077 28.9956 155.233 33.891 155.233C38.7864 155.044 42.9286 160.701 43.1169 167.676Z" fill="#266E9E"/>
<path d="M29.5595 119.411L41.0449 117.903C50.4591 116.583 58.3671 124.878 56.6725 134.305L51.4005 163.34C50.2708 169.373 44.434 173.521 38.4089 172.39L24.2876 169.939L24.6641 155.987L21.6516 129.403C21.275 124.501 24.6641 119.976 29.5595 119.411Z" fill="#46796F"/>
<path d="M42.9283 119.034C42.9283 119.034 42.9283 122.239 40.8571 122.239C35.9617 122.239 34.832 118.657 34.832 118.657L36.3383 110.172L41.6103 110.738L42.9283 119.034Z" fill="#DE908B"/>
<path d="M48.0116 100.18C48.0116 108.853 41.0451 112.246 36.338 112.246C31.6309 112.246 31.6309 103.574 31.6309 99.9915C31.6309 96.2207 35.3965 94.3353 40.2919 94.3353C45.1873 94.3353 48.0116 96.5978 48.0116 100.18Z" fill="#66291B"/>
<path d="M47.2592 105.271C47.2592 111.492 46.1295 114.509 42.9287 114.509C38.9747 114.509 34.2676 110.172 34.2676 105.082C34.2676 99.9915 36.527 96.9749 40.2927 96.9749C44.2467 97.1634 47.2592 100.18 47.2592 105.271Z" fill="#E7B3AD"/>
<path d="M34.4551 103.197H44.2459C45.1873 103.197 46.317 102.82 47.0701 102.254C46.1287 99.0488 43.4927 97.1634 40.4802 97.1634C37.0911 97.1634 34.8316 99.4258 34.4551 103.197Z" fill="#DE906D"/>
<path d="M44.2463 102.254H32.9492V99.9915C32.9492 97.3519 35.2086 95.0895 37.8446 95.0895H49.1417V97.3519C48.9534 99.9915 46.8823 102.254 44.2463 102.254Z" fill="#66291B"/>
<path d="M36.1504 106.025V100.369H38.5981V103.574C38.5981 105.082 37.4684 106.025 36.1504 106.025Z" fill="#66291B"/>
<path d="M37.0915 105.082C37.0915 106.779 36.5266 108.099 35.2086 108.099C33.8906 108.099 32.9492 105.836 32.9492 104.139C32.9492 102.442 33.8906 102.065 35.2086 102.065C36.5266 101.877 37.0915 103.385 37.0915 105.082Z" fill="#E7B3AD"/>
<path d="M42.1751 129.969C52.5308 129.215 67.7818 123.182 67.5935 120.731C67.4052 118.091 51.0245 117.525 41.0454 118.091C30.6898 118.657 22.7818 120.919 22.9701 124.501C23.3467 128.272 32.0077 130.723 42.1751 129.969Z" fill="#DE908B"/>
<path d="M39.1618 130.157C30.3124 130.346 23.5342 128.083 23.1576 124.69C22.9693 120.919 30.8773 118.845 41.2329 118.279C41.986 118.091 39.1618 130.157 39.1618 130.157Z" fill="#2A8E7F"/>
<path d="M67.9713 111.869C71.1721 109.23 86.0466 98.2944 87.7411 100.368C89.4357 102.442 76.8206 116.394 73.4315 118.845C67.4064 123.37 62.1344 125.633 60.2516 123.559C58.557 121.673 64.9587 114.697 67.9713 111.869Z" fill="#DE908B"/>
<path d="M48.9537 259.117C47.6357 258.551 47.0709 256.854 46.8826 254.592H43.1169V257.42L41.6106 262.699C41.4223 263.076 41.7989 263.453 42.1755 263.453H45.7529V262.322L47.4474 263.453C47.4474 263.453 56.8617 264.019 57.2382 263.453C58.368 261.379 52.9077 260.625 48.9537 259.117Z" fill="white"/>
<path d="M16.1929 258.74L15.628 253.272L16.5695 251.009C15.2515 251.009 14.31 250.632 13.3686 250.067L12.6155 251.952C12.6155 251.952 10.9209 253.083 10.1678 254.026C9.7912 254.592 9.22636 255.346 8.84979 255.911C8.47322 256.289 8.66151 256.854 9.03808 257.231L10.9209 258.928C11.2975 259.305 11.8623 259.305 12.2389 258.928L12.6155 258.551L13.5569 261.002C13.9335 261.756 14.6866 262.322 15.4398 262.51C17.6992 262.887 21.8414 263.264 22.0296 262.699C22.4062 261.002 16.1929 258.74 16.1929 258.74Z" fill="white"/>
<path d="M48.9537 259.117C48.3889 259.305 47.824 259.305 47.0709 259.305C45.3763 259.305 44.0583 258.74 42.9286 257.985L41.6106 262.51C41.4223 262.887 41.7989 263.264 42.1755 263.264H45.7529V262.133L47.4474 263.264C47.4474 263.264 56.8617 263.83 57.2382 263.264C58.368 261.379 52.9077 260.625 48.9537 259.117Z" fill="#582C19"/>
<path d="M16.1929 258.739L16.0046 256.666C13.9335 255.911 12.6155 254.215 12.0506 252.141C11.4858 252.518 10.7326 253.272 10.1678 253.838C9.7912 254.403 9.22636 255.157 8.84979 255.723C8.47322 256.1 8.66151 256.666 9.03808 257.043L10.9209 258.739C11.2975 259.117 11.8623 259.117 12.2389 258.739L12.6155 258.362L13.5569 260.813C13.9335 261.568 14.6866 262.133 15.4398 262.322C17.6992 262.699 21.8414 263.076 22.0296 262.51C22.4062 261.002 16.1929 258.739 16.1929 258.739Z" fill="#582C19"/>
<path d="M88.6816 72.2765L109.393 86.2282C110.523 86.9824 110.899 88.4907 110.146 89.8104L109.016 91.6958C108.263 92.827 106.757 93.2041 105.439 92.45L98.0959 87.548C96.9662 86.7938 95.4599 87.1709 94.7067 88.1136L89.4348 95.8437" stroke="white" stroke-miterlimit="10" stroke-linecap="round"/>
<path d="M112.348 82.781L92.7901 69.6705L87.8672 77.0342L107.425 90.1447L112.348 82.781Z" fill="#D56633"/>
<path d="M108.645 88.2305L89.0869 75.12L87.8301 77.0001L107.388 90.1106L108.645 88.2305Z" fill="#C3532C"/>
<path d="M93.2017 90.376L87.9297 98.1061" stroke="#914F2B" stroke-width="2" stroke-miterlimit="10"/>
<path d="M90.9419 94.5237C90.0005 94.9007 86.9879 98.2944 86.9879 98.2944C85.8582 99.0486 84.7285 99.6142 84.7285 100.557C84.7285 102.442 85.4817 102.631 86.7996 102.631C88.1176 102.631 91.5068 98.86 92.4482 98.1059C93.5779 96.9746 92.8248 95.2778 92.6365 94.3351C93.013 94.1466 91.8833 94.1466 90.9419 94.5237Z" fill="#DE908B"/>
<path d="M88.6817 93.3926C88.6817 93.3926 87.9286 93.3926 87.3637 93.3926C86.7989 93.3926 86.9872 95.6551 86.9872 95.6551L88.6817 93.3926Z" fill="#DE908B"/>
<defs>
<filter id="filter0_d" x="47.9277" y="70.359" width="841.863" height="393.969" filterUnits="userSpaceOnUse" color-interpolation-filters="sRGB">
<feFlood flood-opacity="0" result="BackgroundImageFix"/>
<feColorMatrix in="SourceAlpha" type="matrix" values="0 0 0 0 0 0 0 0 0 0 0 0 0 0 0 0 0 0 127 0"/>
<feOffset dy="4"/>
<feGaussianBlur stdDeviation="5"/>
<feColorMatrix type="matrix" values="0 0 0 0 0.0578646 0 0 0 0 0.420833 0 0 0 0 0.420833 0 0 0 0.36 0"/>
<feBlend mode="normal" in2="BackgroundImageFix" result="effect1_dropShadow"/>
<feBlend mode="normal" in="SourceGraphic" in2="effect1_dropShadow" result="shape"/>
</filter>
</defs>
</svg>
