<svg width="80" height="60" xmlns="http://www.w3.org/2000/svg"><path d="M5 60h70a5 5 0 005-5V5a5 5 0 00-5-5H5a5 5 0 00-5 5v50a5 5 0 005 5zm3.81-16.92l8.57-14.283a5 5 0 018.577 0l5.55 9.246a.827.827 0 00.666.4.817.817 0 00.704-.296l3.303-3.957a5.153 5.153 0 017.667 0l3.98 4.767 14.553-25.47a3.333 3.333 0 115.787 3.306L52.42 44.367a5 5 0 01-8.187.71L40.64 40.77a.84.84 0 00-1.28 0l-3.633 4.357a5 5 0 01-8.13-.63l-5.217-8.7a.833.833 0 00-1.427 0l-6.43 10.713a3.333 3.333 0 11-5.713-3.43z" fill="currentColor" fill-rule="nonzero"/></svg>