<svg xmlns="http://www.w3.org/2000/svg" xmlns:xlink="http://www.w3.org/1999/xlink" width="48" height="48" viewBox="0 0 48 48">
  <defs>
    <rect id="components-a" width="48" height="48" rx="1"/>
  </defs>
  <g fill="none" fill-rule="evenodd">
    <mask id="components-b" fill="#fff">
      <use xlink:href="#components-a"/>
    </mask>
    <path stroke="#383B3D" stroke-linecap="round" stroke-linejoin="round" d="M9,9.56301856 L39,9.56301856 C40.6568542,9.56301856 42,10.9061643 42,12.5630186 L42,15.7915092 L27.1936832,15.7915092 L6,15.7915092 L6,12.5630186 C6,10.9061643 7.34314575,9.56301856 9,9.56301856 Z M6,15.8738551 L6,36 C6,37.6568542 7.34314575,39 9,39 L38.6854113,39 C40.3240792,39 41.6595718,37.6851118 41.6850487,36.046642 L42,15.7915092" mask="url(#components-b)"/>
    <path stroke="#383B3D" stroke-linecap="round" stroke-linejoin="round" stroke-width=".5" d="M9.50460457 13.4883029C8.94977679 13.4883029 8.5 13.0432061 8.5 12.4941514 8.5 11.9450968 8.94977679 11.5 9.50460457 11.5 10.0594324 11.5 10.5092091 11.9450968 10.5092091 12.4941514 10.5092091 13.0432061 10.0594324 13.4883029 9.50460457 13.4883029zM12.5184183 13.4883029C11.9635905 13.4883029 11.5138137 13.0432061 11.5138137 12.4941514 11.5138137 11.9450968 11.9635905 11.5 12.5184183 11.5 13.0732461 11.5 13.5230228 11.9450968 13.5230228 12.4941514 13.5230228 13.0432061 13.0732461 13.4883029 12.5184183 13.4883029zM15.532232 13.4883029C14.9774042 13.4883029 14.5276274 13.0432061 14.5276274 12.4941514 14.5276274 11.9450968 14.9774042 11.5 15.532232 11.5 16.0870598 11.5 16.5368366 11.9450968 16.5368366 12.4941514 16.5368366 13.0432061 16.0870598 13.4883029 15.532232 13.4883029zM9.25753348 18.749442L18.78125 18.749442 18.78125 27.6849888 9.25753348 27.6849888 9.25753348 18.749442zM22.8189174 18.5591518L22.8189174 22.21875 38.5175781 22.21875 38.5175781 18.5591518 22.8189174 18.5591518zM22.7739955 24L26.2678571 24 27.296317 27.51 22.7739955 27.51 22.7739955 24zM33.9975962 24L38.5310998 24 38.5310998 27.51 34.390625 27.51 32.4722055 25.73753 33.9975962 25.2433894 33.9975962 24zM9.35847356 30.2644231L22.4783654 30.2644231 22.4783654 34.6466346 9.35847356 34.6466346 9.35847356 30.2644231zM25.4038462 30.0760216L30.7310697 30.0760216 30.7310697 34.7280649 25.4038462 34.7280649 25.4038462 30.0760216zM33.633113 30.2094351L38.859375 30.2094351 38.859375 34.7232572 33.633113 34.7232572 33.633113 30.2094351z" mask="url(#components-b)"/>
    <polygon fill="#383B3D" fill-rule="nonzero" points="27.46 23.263 28.841 27.962 29.459 26.258 31.531 28.638 32.521 27.611 30.433 25.405 32.119 24.625" mask="url(#components-b)"/>
  </g>
</svg>
