<svg xmlns="http://www.w3.org/2000/svg" xmlns:xlink="http://www.w3.org/1999/xlink" width="48" height="48" viewBox="0 0 48 48">
  <defs>
    <rect id="prototype-a" width="48" height="48" rx="1"/>
  </defs>
  <g fill="none" fill-rule="evenodd">
    <mask id="prototype-b" fill="#fff">
      <use xlink:href="#prototype-a"/>
    </mask>
    <path stroke="#ffffff" stroke-linecap="round" stroke-linejoin="round" d="M9,9.56301856 L39,9.56301856 C40.6568542,9.56301856 42,10.9061643 42,12.5630186 L42,15.7915092 L27.1936832,15.7915092 L6,15.7915092 L6,12.5630186 C6,10.9061643 7.34314575,9.56301856 9,9.56301856 Z M6,15.8738551 L6,36 C6,37.6568542 7.34314575,39 9,39 L38.6854113,39 C40.3240792,39 41.6595718,37.6851118 41.6850487,36.046642 L42,15.7915092" mask="url(#prototype-b)"/>
    <path stroke="#ffffff" stroke-linecap="round" stroke-linejoin="round" stroke-width=".5" d="M9.50460457,13.4883029 C8.94977679,13.4883029 8.5,13.0432061 8.5,12.4941514 C8.5,11.9450968 8.94977679,11.5 9.50460457,11.5 C10.0594324,11.5 10.5092091,11.9450968 10.5092091,12.4941514 C10.5092091,13.0432061 10.0594324,13.4883029 9.50460457,13.4883029 Z M12.5184183,13.4883029 C11.9635905,13.4883029 11.5138137,13.0432061 11.5138137,12.4941514 C11.5138137,11.9450968 11.9635905,11.5 12.5184183,11.5 C13.0732461,11.5 13.5230228,11.9450968 13.5230228,12.4941514 C13.5230228,13.0432061 13.0732461,13.4883029 12.5184183,13.4883029 Z M15.532232,13.4883029 C14.9774042,13.4883029 14.5276274,13.0432061 14.5276274,12.4941514 C14.5276274,11.9450968 14.9774042,11.5 15.532232,11.5 C16.0870598,11.5 16.5368366,11.9450968 16.5368366,12.4941514 C16.5368366,13.0432061 16.0870598,13.4883029 15.532232,13.4883029 Z" mask="url(#prototype-b)"/>
    <path stroke="#ffffff" stroke-linecap="round" stroke-linejoin="round" d="M18.8535156,21.3286133 L13.8984375,26.5698242 L18.8535156,32.0424805 M26.6660156,20.6103516 L21.4404297,33.3828125 M29.2358398,21.4370117 L34.1538086,26.7695312 L29.2358398,31.8549805" mask="url(#prototype-b)"/>
  </g>
</svg>
