<svg xmlns="http://www.w3.org/2000/svg" xmlns:xlink="http://www.w3.org/1999/xlink" width="48" height="48" viewBox="0 0 48 48">
  <defs>
    <rect id="rocket-a" width="48" height="48" rx="1"/>
  </defs>
  <g fill="none" fill-rule="evenodd">
    <mask id="rocket-b" fill="#fff">
      <use xlink:href="#rocket-a"/>
    </mask>
    <path stroke="#ffffff" stroke-linecap="round" stroke-linejoin="round" d="M32.2637836 27.4325897L31.6927349 34.7033864C31.689175 34.7487124 31.6696459 34.7913044 31.6376241 34.8235801L24.2916378 42.2278393C24.216954 42.3031156 24.0953872 42.3035959 24.0201109 42.228912 23.9917181 42.2007426 23.972831 42.1644096 23.9660871 42.1249864L22.9909711 36.4247147 11.2467211 24.9028397 28.3184355 7.9607147C33.7047211 3.5255897 43.6680961 1.9115897 44.5812211 3.9339647 45.4943461 5.9563397 44.5812211 14.1459647 40.1217211 19.4412561 35.6567009 23.992892 31.1019666 28.5335066 26.4575182 33.0630998L32.2637836 27.4325897zM22.9915368 36.4241661C24.1527337 35.3048517 25.3078744 34.1843134 26.4575182 33.0630998L22.9915368 36.4241661zM11.205583 24.9071522L5.58882609 23.7766003C5.48487233 23.7556763 5.41756342 23.6544428 5.43848744 23.5504891 5.44593398 23.5134935 5.4641177 23.4795126 5.4907665 23.4527925L12.8193772 16.1045606C12.8514743 16.0723776 12.8939481 16.0526253 12.9392413 16.0488182L20.625208 15.4027772 11.205583 24.9071522zM29.9423461 22.7747147C32.5933129 22.7747147 34.7423461 20.6256815 34.7423461 17.9747147 34.7423461 15.3237479 32.5933129 13.1747147 29.9423461 13.1747147 27.2913793 13.1747147 25.1423461 15.3237479 25.1423461 17.9747147 25.1423461 20.6256815 27.2913793 22.7747147 29.9423461 22.7747147zM29.9423461 22.1987147C27.6094953 22.1987147 25.7183461 20.3075655 25.7183461 17.9747147 25.7183461 15.6418639 27.6094953 13.7507147 29.9423461 13.7507147 32.2751969 13.7507147 34.1663461 15.6418639 34.1663461 17.9747147 34.1663461 20.3075655 32.2751969 22.1987147 29.9423461 22.1987147zM13.1935336 26.8215272L20.6663461 34.193371 19.0362708 37.5268216C19.0267312 37.5463299 19.0139511 37.5640785 18.9984746 37.5793119 18.9229029 37.6536967 18.801339 37.6527346 18.7269541 37.5771628L10.2584536 28.9735361C10.2490827 28.9640157 10.2407309 28.9535433 10.2335341 28.9422891 10.1764065 28.8529546 10.2025153 28.7342237 10.2918497 28.6770961L13.1935336 26.8215272zM5.1895336 42.6592772L12.3884086 35.5249022 5.1895336 42.6592772zM11.4550336 41.0505272L14.5771899 37.875496 11.4550336 41.0505272zM9.7823461 42.7427147L9.9743461 42.5507147 9.7823461 42.7427147zM8.2680994 44.0867147L7.4783461 44.9094537 8.2680994 44.0867147zM10.3506318 33.1542861L9.62366753 33.8983933 10.3506318 33.1542861zM8.2680994 35.2602048L7.85131039 35.6758933 8.2680994 35.2602048zM6.55096199 36.9621904L3.072 40.4542715 6.55096199 36.9621904z" mask="url(#rocket-b)"/>
    <path stroke="#ffffff" stroke-linecap="round" stroke-linejoin="round" d="M36.8456079,4.54553615 C37.6318149,6.65260897 38.3727306,8.01780747 39.068355,8.64113164 C41.4587485,10.7830781 44.2447173,11.1756143 44.2447173,11.1756143" mask="url(#rocket-b)"/>
  </g>
</svg>
