<svg xmlns="http://www.w3.org/2000/svg" xmlns:xlink="http://www.w3.org/1999/xlink" width="48" height="48" viewBox="0 0 48 48">
  <defs>
    <rect id="template-a" width="48" height="48" rx="1"/>
  </defs>
  <g fill="none" fill-rule="evenodd">
    <mask id="template-b" fill="#fff">
      <use xlink:href="#template-a"/>
    </mask>
    <path stroke="#ffffff" stroke-linecap="round" stroke-linejoin="round" d="M9,5 L39,5 C39.5522847,5 40,5.44771525 40,6 L40,42 C40,42.5522847 39.5522847,43 39,43 L9,43 C8.44771525,43 8,42.5522847 8,42 L8,6 C8,5.44771525 8.44771525,5 9,5 Z M8,11.5 L40,11.5" mask="url(#template-b)"/>
    <path stroke="#ffffff" stroke-linecap="round" stroke-linejoin="round" d="M14 21L21 21C21.5522847 21 22 21.4477153 22 22L22 31C22 31.5522847 21.5522847 32 21 32L14 32C13.4477153 32 13 31.5522847 13 31L13 22C13 21.4477153 13.4477153 21 14 21zM13 28.5L22 28.5 13 28.5zM27 21L34 21C34.5522847 21 35 21.4477153 35 22L35 31C35 31.5522847 34.5522847 32 34 32L27 32C26.4477153 32 26 31.5522847 26 31L26 22C26 21.4477153 26.4477153 21 27 21zM26 28.5L35 28.5 26 28.5zM13 35.5L22 35.5M14.5 38.5L20.6093693 38.5M27.5 38.5L33.6093693 38.5M26 35.5L35 35.5M15.5 15L15.5 18 15.5 15zM32.5 15L32.5 18 32.5 15zM14 15L34 15C34.5522847 15 35 15.4477153 35 16L35 17C35 17.5522847 34.5522847 18 34 18L14 18C13.4477153 18 13 17.5522847 13 17L13 16C13 15.4477153 13.4477153 15 14 15zM12.5 8.5L16.5 8.5M18.5 8.5L22.5 8.5" mask="url(#template-b)"/>
  </g>
</svg>
