<?xml version="1.0" encoding="UTF-8"?>
<svg width="49px" height="34px" viewBox="0 0 49 34" version="1.1" xmlns="http://www.w3.org/2000/svg" xmlns:xlink="http://www.w3.org/1999/xlink">
    <!-- Generator: Sketch 49 (51002) - http://www.bohemiancoding.com/sketch -->
    <title>mc</title>
    <desc>Created with Sketch.</desc>
    <defs></defs>
    <g id="e-commerce" stroke="none" stroke-width="1" fill="none" fill-rule="evenodd">
        <g id="Payment" transform="translate(-330.000000, -288.000000)" fill="#70BBFD">
            <g id="payment" transform="translate(266.000000, 179.000000)">
                <g id="methods" transform="translate(30.000000, 74.000000)">
                    <path d="M75.156,35.592 C76.4680066,35.592 77.6919943,35.9279966 78.828,36.6 C79.9640057,37.2720034 80.8599967,38.1679944 81.516,39.288 C82.1720033,40.4080056 82.5,41.6399933 82.5,42.984 L82.5,61.416 C82.5,62.7600067 82.1720033,63.9919944 81.516,65.112 C80.8599967,66.2320056 79.9640057,67.1279966 78.828,67.8 C77.6919943,68.4720034 76.4680066,68.808 75.156,68.808 L41.844,68.808 C40.5319934,68.808 39.3080057,68.4720034 38.172,67.8 C37.0359943,67.1279966 36.1400033,66.2320056 35.484,65.112 C34.8279967,63.9919944 34.5,62.7600067 34.5,61.416 L34.5,42.984 C34.5,41.6399933 34.8279967,40.4080056 35.484,39.288 C36.1400033,38.1679944 37.0359943,37.2720034 38.172,36.6 C39.3080057,35.9279966 40.5319934,35.592 41.844,35.592 L75.156,35.592 Z M69.252,56.952 C70.2120048,55.959995 70.8439985,54.8000066 71.148,53.472 C71.4520015,52.1439934 71.404002,50.8240066 71.004,49.512 C70.603998,48.1999934 69.8920051,47.0640048 68.868,46.104 C67.875995,45.2079955 66.7560062,44.6000016 65.508,44.28 C64.3239941,44.0239987 63.1480058,44.0319986 61.98,44.304 C60.8119942,44.5760014 59.7960043,45.0799963 58.932,45.816 C59.9880053,46.8400051 60.7079981,48.0079934 61.092,49.32 L60.66,49.32 C60.5639995,49.3520002 60.4840003,49.3040006 60.42,49.176 C60.0679982,48.4079962 59.8280006,47.9120011 59.7,47.688 C59.4119986,47.1759974 59.0120026,46.6800024 58.5,46.2 L57.972,46.728 C57.3319968,47.4640037 56.8520016,48.2799955 56.532,49.176 C56.4999998,49.2720005 56.4680002,49.32 56.436,49.32 L55.908,49.32 C56.2920019,48.0079934 56.9959949,46.8400051 58.02,45.816 C57.0919954,45.0479962 56.0120062,44.5360013 54.78,44.28 C53.5479938,44.0239987 52.3160062,44.0719982 51.084,44.424 C49.8519938,44.7760018 48.7560048,45.4399951 47.796,46.416 C46.8359952,47.3920049 46.1960016,48.5359934 45.876,49.848 C45.5559984,51.1600066 45.5799982,52.4639935 45.948,53.76 C46.3160018,55.0560065 46.9799952,56.1759953 47.94,57.12 C48.9000048,58.0640047 50.0199936,58.7119982 51.3,59.064 C52.4840059,59.3840016 53.675994,59.4080014 54.876,59.136 C56.076006,58.8639986 57.1239955,58.3440038 58.02,57.576 C56.9959949,56.5519949 56.2760021,55.3840066 55.86,54.072 L56.292,54.072 C56.4200006,54.072 56.5159997,54.1359994 56.58,54.264 C56.9640019,55.064004 57.2359992,55.6079986 57.396,55.896 C57.6200011,56.3120021 57.9879974,56.7599976 58.5,57.24 L59.172,56.472 C59.7160027,55.7999966 60.1479984,55.0480042 60.468,54.216 C60.468,54.1199995 60.4999997,54.072 60.564,54.072 L61.092,54.072 C60.7079981,55.4160067 59.9880053,56.583995 58.932,57.576 C59.8600046,58.376004 60.9479938,58.9039987 62.196,59.16 C63.4440062,59.4160013 64.6759939,59.3680018 65.892,59.016 C67.1720064,58.6319981 68.2919952,57.944005 69.252,56.952 Z M49.476,50.088 L50.532,50.088 L49.908,53.496 L49.092,53.496 L49.284,52.392 C49.3800005,51.9119976 49.4439998,51.5600011 49.476,51.336 L48.564,53.352 C48.4999997,53.4480005 48.4200005,53.496 48.324,53.496 L47.748,53.496 L47.556,51.192 L47.508,51.192 L47.076,53.496 L46.308,53.496 L46.98,50.088 L48.228,50.088 L48.372,52.104 L49.188,50.28 C49.2520003,50.1519994 49.3479994,50.088 49.476,50.088 Z M52.884,51.768 L52.5,53.496 C52.4679998,53.496 52.356001,53.5039999 52.164,53.52 C51.971999,53.5360001 51.8280005,53.5120003 51.732,53.448 C51.7960003,53.4159998 51.6520018,53.4159998 51.3,53.448 C51.1399992,53.4800002 50.9960006,53.496 50.868,53.496 C50.6439989,53.4639998 50.4760006,53.3600009 50.364,53.184 C50.2519994,53.0079991 50.2119998,52.8080011 50.244,52.584 C50.4040008,52.0079971 50.8039968,51.7040002 51.444,51.672 L51.876,51.672 L51.972,51.624 L52.02,51.576 C52.02,51.4479994 51.9960002,51.3680002 51.948,51.336 C51.8999998,51.3039998 51.8120006,51.288 51.684,51.288 L50.628,51.336 L50.724,50.856 C50.7560002,50.7919997 50.7879998,50.7440002 50.82,50.712 C51.5560037,50.6799998 52.0039992,50.6799998 52.164,50.712 C52.6760026,50.7760003 52.9160002,51.1279968 52.884,51.768 Z M51.3,52.872 C51.6840019,52.9040002 51.8919998,52.6960022 51.924,52.248 C51.5399981,52.1199994 51.2680008,52.1839987 51.108,52.44 C51.0439997,52.5680006 51.0279998,52.6719996 51.06,52.752 C51.0920002,52.8320004 51.1719994,52.872 51.3,52.872 Z M54.18,51.72 L54.564,51.96 C54.7880011,52.0880006 54.9079999,52.2959986 54.924,52.584 C54.9400001,52.8720014 54.8360011,53.0959992 54.612,53.256 C54.4839994,53.3520005 54.3400008,53.4159998 54.18,53.448 C53.7319978,53.5440005 53.2680024,53.5280006 52.788,53.4 L52.884,52.824 L53.844,52.872 C53.9720006,52.872 54.0519998,52.8160006 54.084,52.704 C54.1160002,52.5919994 54.0680006,52.5040003 53.94,52.44 L53.364,52.152 C53.2039992,52.0559995 53.1080002,51.8960011 53.076,51.672 C53.0439998,51.1599974 53.2839974,50.8400006 53.796,50.712 C54.2120021,50.6159995 54.6279979,50.6319994 55.044,50.76 L54.852,51.288 L54.084,51.288 C54.0199997,51.3200002 53.9800001,51.3839995 53.964,51.48 C53.9479999,51.5760005 54.0199992,51.6559997 54.18,51.72 Z M56.58,50.952 C56.5159997,51.1120008 56.4680002,51.2159998 56.436,51.264 C56.4039998,51.3120002 56.2760011,51.336 56.052,51.336 L55.86,52.584 C55.8279998,52.7120006 55.8919992,52.7919998 56.052,52.824 L56.292,52.824 L56.244,53.304 C56.2119998,53.3680003 56.1640003,53.4 56.1,53.4 C55.7799984,53.4640003 55.5560006,53.4880001 55.428,53.472 C55.2999994,53.4559999 55.1960004,53.3760007 55.116,53.232 C55.0359996,53.0879993 55.0119998,52.920001 55.044,52.728 L55.524,50.424 C55.5560002,50.1999989 55.5959998,50.0640002 55.644,50.016 C55.6920002,49.9679998 55.8279989,49.944 56.052,49.944 L56.34,49.944 L56.196,50.712 L56.58,50.712 L56.58,50.952 Z M57.684,52.824 L58.788,52.776 L58.692,53.304 C58.6599998,53.3360002 58.6120003,53.3679998 58.548,53.4 C58.0679976,53.5280006 57.6200021,53.5360006 57.204,53.424 C56.7879979,53.3119994 56.5320005,53.0000026 56.436,52.488 C56.3719997,52.1999986 56.4039994,51.8960016 56.532,51.576 C56.6600006,51.2559984 56.8359989,51.0160008 57.06,50.856 C57.5080022,50.5999987 57.9879974,50.5839989 58.5,50.808 C58.7880014,50.9040005 58.932,51.1279982 58.932,51.48 L58.98,52.248 L57.252,52.248 C57.1879997,52.4080008 57.2039995,52.5439994 57.3,52.656 C57.3960005,52.7680006 57.5239992,52.824 57.684,52.824 Z M57.972,51.24 C57.5879981,51.1759997 57.3640003,51.3359981 57.3,51.72 L58.212,51.72 C58.2440002,51.4319986 58.164001,51.2720002 57.972,51.24 Z M60.132,50.952 C60.3880013,50.759999 60.6439987,50.6799998 60.9,50.712 L60.708,51.384 C60.708,51.4160002 60.6760003,51.432 60.612,51.432 C60.3239986,51.432 60.1480003,51.5759986 60.084,51.864 L59.796,53.064 C59.7319997,53.256001 59.6760002,53.3759998 59.628,53.424 C59.5799998,53.4720002 59.4440011,53.496 59.22,53.496 L58.932,53.496 L59.412,50.808 C59.412,50.7759998 59.4599995,50.7440002 59.556,50.712 L60.036,50.712 C60.1320005,50.7440002 60.1640002,50.8239994 60.132,50.952 Z M63.06,50.856 C62.6119978,50.663999 62.2280016,50.7279984 61.908,51.048 C61.5879984,51.3680016 61.5079992,51.7679976 61.668,52.248 C61.7320003,52.4080008 61.8519991,52.5279996 62.028,52.608 C62.2040009,52.6880004 62.4039989,52.7120002 62.628,52.68 L62.82,52.632 L63.06,53.304 C62.451997,53.5280011 61.9240022,53.5280011 61.476,53.304 C61.0279978,53.0799989 60.7880002,52.6960027 60.756,52.152 C60.7239998,51.2239954 61.0759963,50.5520021 61.812,50.136 C62.1000014,49.943999 62.4119983,49.8719998 62.748,49.92 C63.0840017,49.9680002 63.3639989,50.1039989 63.588,50.328 L63.636,50.424 L63.204,50.808 C63.1719998,50.8400002 63.1240003,50.856 63.06,50.856 Z M65.4568395,53.496 C65.4494649,53.5339265 65.4505184,53.5339264 65.46,53.496 L65.4568395,53.496 Z M65.4568395,53.496 L65.076,53.496 C64.883999,53.496 64.7400005,53.4640003 64.644,53.4 L63.828,53.496 C63.6039989,53.4639998 63.4280006,53.3600009 63.3,53.184 C63.1719994,53.0079991 63.1399997,52.7920013 63.204,52.536 C63.3640008,51.9919973 63.7639968,51.7040002 64.404,51.672 L64.932,51.672 C65.0280005,51.4159987 64.9640011,51.288 64.74,51.288 L63.54,51.384 L63.684,50.808 C63.684,50.7759998 63.7159997,50.76 63.78,50.76 C64.4520034,50.6959997 64.8519994,50.664 64.98,50.664 C65.588003,50.7280003 65.8600003,51.063997 65.796,51.672 C65.7639998,51.9280013 65.7160003,52.2319982 65.652,52.584 C65.5394072,53.1019267 65.474354,53.4059256 65.4568395,53.496 Z M64.26,52.872 C64.6440019,52.9040002 64.836,52.6960022 64.836,52.248 C64.7079994,52.1839997 64.5640008,52.1679998 64.404,52.2 C64.2439992,52.2320002 64.1320003,52.3039994 64.068,52.416 C64.0039997,52.5280006 63.9879998,52.6319995 64.02,52.728 C64.0520002,52.8240005 64.1319994,52.872 64.26,52.872 Z M67.7475454,50.710073 L67.524,51.336 C67.524,51.3680002 67.4920003,51.384 67.428,51.384 C67.1719987,51.4160002 66.9960005,51.5599987 66.9,51.816 C66.8359997,51.9760008 66.7400006,52.3439971 66.612,52.92 L66.564,53.352 C66.5319998,53.4160003 66.4840003,53.4639998 66.42,53.496 L65.748,53.496 L66.276,50.664 L66.9,50.664 C66.9,50.6960002 66.9239998,50.7439997 66.972,50.808 L67.044,50.904 C67.2631954,50.7474319 67.4977083,50.6827901 67.7475454,50.710073 Z M67.7475454,50.710073 L67.764,50.664 L67.764,50.712 C67.7585078,50.7113135 67.7530229,50.7106711 67.7475454,50.710073 Z M67.572,52.104 C67.6040002,51.6879979 67.7479987,51.3360014 68.004,51.048 C68.2600013,50.6959982 68.6759971,50.5839994 69.252,50.712 C69.3160003,50.712 69.3799997,50.7439997 69.444,50.808 C69.6040008,50.9360006 69.6680002,50.9840002 69.636,50.952 L69.828,49.944 L70.644,49.944 L70.02,53.496 L69.252,53.496 C69.2199998,53.496 69.1720003,53.4640003 69.108,53.4 L69.012,53.304 L68.772,53.4 C68.3239978,53.5600008 67.9720013,53.4480019 67.716,53.064 C67.5559992,52.7759986 67.5079997,52.4560018 67.572,52.104 Z M68.772,51.432 C68.6439994,51.4960003 68.5400004,51.623999 68.46,51.816 C68.3799996,52.008001 68.3559998,52.1919991 68.388,52.368 C68.4200002,52.5440009 68.5159992,52.6559998 68.676,52.704 C68.8360008,52.7520002 68.9799994,52.7120006 69.108,52.584 C69.3320011,52.391999 69.4280002,52.1360016 69.396,51.816 L69.396,51.72 C69.396,51.527999 69.3320006,51.4000003 69.204,51.336 C69.0759994,51.2719997 68.9320008,51.3039994 68.772,51.432 Z" id="mc"></path>
                </g>
            </g>
        </g>
    </g>
</svg>