<?xml version="1.0" encoding="UTF-8"?>
<svg width="49px" height="34px" viewBox="0 0 49 34" version="1.1" xmlns="http://www.w3.org/2000/svg" xmlns:xlink="http://www.w3.org/1999/xlink">
    <!-- Generator: Sketch 49 (51002) - http://www.bohemiancoding.com/sketch -->
    <title>paypal</title>
    <desc>Created with Sketch.</desc>
    <defs></defs>
    <g id="e-commerce" stroke="none" stroke-width="1" fill="none" fill-rule="evenodd">
        <g id="Payment" transform="translate(-671.000000, -288.000000)" fill="#70BBFD">
            <g id="payment" transform="translate(266.000000, 179.000000)">
                <g id="methods" transform="translate(30.000000, 74.000000)">
                    <path d="M416.156,35.592 C417.468007,35.592 418.691994,35.9279966 419.828,36.6 C420.964006,37.2720034 421.859997,38.1679944 422.516,39.288 C423.172003,40.4080056 423.5,41.6399933 423.5,42.984 L423.5,61.416 C423.5,62.7600067 423.172003,63.9919944 422.516,65.112 C421.859997,66.2320056 420.964006,67.1279966 419.828,67.8 C418.691994,68.4720034 417.468007,68.808 416.156,68.808 L382.844,68.808 C381.531993,68.808 380.308006,68.4720034 379.172,67.8 C378.035994,67.1279966 377.140003,66.2320056 376.484,65.112 C375.827997,63.9919944 375.5,62.7600067 375.5,61.416 L375.5,42.984 C375.5,41.6399933 375.827997,40.4080056 376.484,39.288 C377.140003,38.1679944 378.035994,37.2720034 379.172,36.6 C380.308006,35.9279966 381.531993,35.592 382.844,35.592 L416.156,35.592 Z M388.412,51.672 C388.956003,51.3519984 389.339999,50.9520024 389.564,50.472 C389.756001,50.0879981 389.82,49.6720022 389.756,49.224 C389.692,48.6479971 389.404003,48.2160014 388.892,47.928 C388.571998,47.7679992 388.140003,47.6720002 387.596,47.64 L385.004,47.64 C384.747999,47.64 384.588,47.7679987 384.524,48.024 L383.132,54.024 C383.1,54.1200005 383.116,54.1999997 383.18,54.264 C383.244,54.3280003 383.324,54.36 383.42,54.36 L384.428,54.36 C384.524,54.36 384.62,54.3280003 384.716,54.264 C384.812,54.1999997 384.86,54.1200005 384.86,54.024 L385.196,52.632 C385.26,52.3119984 385.435999,52.1679998 385.724,52.2 C386.172002,52.1679998 386.523999,52.152 386.78,52.152 C387.420003,52.0559995 387.963998,51.8960011 388.412,51.672 Z M394.652,51.816 L394.604,51.816 C394.764001,51.1119965 394.86,50.6800008 394.892,50.52 C394.924,49.9759973 394.684003,49.608001 394.172,49.416 C393.851998,49.2559992 393.436003,49.176 392.924,49.176 C392.283997,49.1439998 391.612004,49.1919994 390.908,49.32 C390.683999,49.3520002 390.54,49.4799989 390.476,49.704 C390.412,49.9280011 390.356,50.143999 390.308,50.352 C390.26,50.560001 390.331999,50.6320003 390.524,50.568 C390.940002,50.4079992 391.339998,50.3120002 391.724,50.28 C392.108002,50.2479998 392.459998,50.2719996 392.78,50.352 C393.100002,50.4320004 393.244,50.6159986 393.212,50.904 C393.212,51.0000005 393.148001,51.048 393.02,51.048 C392.699998,51.0800002 392.308002,51.1279997 391.844,51.192 C391.379998,51.2560003 390.988002,51.3359995 390.668,51.432 C390.283998,51.5600006 389.996001,51.719999 389.804,51.912 C389.451998,52.2000014 389.26,52.6159973 389.228,53.16 C389.196,53.5120018 389.283999,53.8159987 389.492,54.072 C389.700001,54.3280013 389.979998,54.4719998 390.332,54.504 C391.004003,54.6000005 391.611997,54.4560019 392.156,54.072 L392.54,53.832 L392.54,53.928 L392.492,53.976 C392.428,54.2640014 392.539999,54.408 392.828,54.408 L393.644,54.408 C393.900001,54.408 394.06,54.2640014 394.124,53.976 C394.348001,52.9519949 394.523999,52.2320021 394.652,51.816 Z M400.508,50.568 L400.892,49.896 C401.020001,49.703999 401.1,49.5440006 401.132,49.416 C401.164,49.2879994 401.100001,49.224 400.94,49.224 L399.932,49.224 C399.611998,49.224 399.356001,49.3679986 399.164,49.656 L397.676,52.248 C397.644,52.3120003 397.604,52.3360001 397.556,52.32 C397.508,52.3039999 397.484,52.2640003 397.484,52.2 L397.1,49.752 C397.068,49.559999 397.004,49.4240004 396.908,49.344 C396.812,49.2639996 396.652001,49.224 396.428,49.224 L395.66,49.224 C395.403999,49.224 395.292,49.3519987 395.324,49.608 L395.804,52.2 C395.996001,53.3520058 396.124,54.1039982 396.188,54.456 C396.188,54.6800011 396.172,54.8399995 396.14,54.936 L395.228,56.52 C395.164,56.6800008 395.227999,56.76 395.42,56.76 L396.428,56.76 C396.524,56.7920002 396.635999,56.7680004 396.764,56.688 C396.892001,56.6079996 397.004,56.4880008 397.1,56.328 L399.5,52.296 L400.508,50.568 Z M406.268,51.672 C407.260005,51.1279973 407.708,50.3280053 407.612,49.272 C407.58,48.7279973 407.356002,48.3280013 406.94,48.072 C406.619998,47.8479989 406.188003,47.7200002 405.644,47.688 C405.419999,47.6559998 404.972003,47.64 404.3,47.64 L402.86,47.64 C402.603999,47.64 402.444,47.7679987 402.38,48.024 L400.988,54.024 C400.924,54.2800013 401.035999,54.408 401.324,54.408 L402.236,54.408 C402.524001,54.408 402.7,54.2640014 402.764,53.976 L403.052,52.584 C403.084,52.4559994 403.148,52.3600003 403.244,52.296 C403.34,52.2319997 403.436,52.2 403.532,52.2 L404.252,52.2 C405.084004,52.1359997 405.755997,51.9600014 406.268,51.672 Z M412.508,51.768 L412.508,51.816 C412.636001,51.1439966 412.716,50.7600005 412.748,50.664 C412.812,49.9919966 412.540003,49.560001 411.932,49.368 C411.675999,49.2719995 411.372002,49.2080002 411.02,49.176 C410.347997,49.1119997 409.628004,49.1599992 408.86,49.32 C408.571999,49.3520002 408.396,49.4799989 408.332,49.704 C408.268,49.9280011 408.212,50.143999 408.164,50.352 C408.116,50.560001 408.203999,50.6320003 408.428,50.568 C408.748002,50.4399994 409.083998,50.3440003 409.436,50.28 C409.884002,50.2479998 410.283998,50.2799995 410.636,50.376 C410.924001,50.4400003 411.068,50.6159986 411.068,50.904 C411.068,51.0000005 411.02,51.048 410.924,51.048 C410.603998,51.0800002 410.220002,51.1279997 409.772,51.192 C409.195997,51.2560003 408.732002,51.3519994 408.38,51.48 C407.611996,51.8000016 407.18,52.3279963 407.084,53.064 C407.052,53.4160018 407.131999,53.7359986 407.324,54.024 C407.516001,54.3120014 407.803998,54.4719998 408.188,54.504 C408.828003,54.6320006 409.435997,54.5040019 410.012,54.12 L410.396,53.88 L410.348,53.976 C410.316,54.2640014 410.443999,54.408 410.732,54.408 L411.452,54.408 C411.740001,54.408 411.916,54.2640014 411.98,53.976 C412.204001,53.0479954 412.379999,52.3120027 412.508,51.768 Z M415.58,49.416 L415.868,48.072 C415.9,47.9439994 415.884,47.8480003 415.82,47.784 C415.756,47.7199997 415.676,47.688 415.58,47.688 L414.716,47.688 C414.459999,47.688 414.3,47.8159987 414.236,48.072 L412.94,53.976 C412.876,54.2640014 412.987999,54.408 413.276,54.408 L414.092,54.408 C414.348001,54.408 414.508,54.2800013 414.572,54.024 L414.812,52.824 L415.58,49.416 Z M405.164,48.936 C405.644002,49.0640006 405.844,49.3679976 405.764,49.848 C405.684,50.3280024 405.372003,50.6479992 404.828,50.808 C404.603999,50.8720003 404.348001,50.904 404.06,50.904 L403.724,50.904 C403.563999,50.8399997 403.5,50.7280008 403.532,50.568 L403.82,49.272 C403.852,49.1759995 403.908,49.0880004 403.988,49.008 C404.068,48.9279996 404.156,48.888 404.252,48.888 C404.636002,48.888 404.939999,48.9039998 405.164,48.936 Z M387.404,48.936 C387.788002,49.0640006 387.964,49.3359979 387.932,49.752 C387.868,50.2960027 387.548003,50.6479992 386.972,50.808 C386.715999,50.8720003 386.380002,50.904 385.964,50.904 C385.868,50.904 385.788,50.8640004 385.724,50.784 C385.66,50.7039996 385.644,50.6160005 385.676,50.52 L385.964,49.224 C386.028,48.9999989 386.203999,48.888 386.492,48.888 L386.684,48.888 C386.972001,48.8559998 387.211999,48.8719997 387.404,48.936 Z M410.703143,52.0084665 C410.784151,52.0126166 410.80977,52.0444609 410.78,52.104 L410.588,52.968 C410.588,53.0640005 410.524001,53.1439997 410.396,53.208 C410.075998,53.3680008 409.788001,53.448 409.532,53.448 C409.339999,53.448 409.172001,53.4240002 409.028,53.376 C408.883999,53.3279998 408.812,53.208001 408.812,53.016 C408.78,52.6319981 408.955998,52.3760006 409.34,52.248 C409.500001,52.1839997 409.739998,52.1200003 410.06,52.056 L410.396,52.056 C410.511382,52.0271544 410.613762,52.01131 410.703143,52.0084665 Z M410.703143,52.0084665 C410.697073,52.0081555 410.690692,52.008 410.684,52.008 L410.732,52.008 C410.722536,52.008 410.712917,52.0081555 410.703143,52.0084665 Z M392.847325,52.0084758 C392.928189,52.0126644 392.953747,52.0445056 392.924,52.104 L392.732,52.968 C392.732,53.0320003 392.684,53.0959997 392.588,53.16 C392.235998,53.3840011 391.932001,53.4800002 391.676,53.448 C391.483999,53.448 391.34,53.4320002 391.244,53.4 C391.051999,53.3359997 390.956,53.208001 390.956,53.016 C390.956,52.6319981 391.147998,52.3760006 391.532,52.248 C391.724001,52.1519995 391.995998,52.0880002 392.348,52.056 L392.588,52.056 C392.674442,52.027186 392.760883,52.0113447 392.847325,52.0084758 Z M392.847325,52.0084758 C392.8412,52.0081586 392.834759,52.008 392.828,52.008 L392.876,52.008 C392.866442,52.008 392.856883,52.0081586 392.847325,52.0084758 Z" id="paypal"></path>
                </g>
            </g>
        </g>
    </g>
</svg>