<?xml version="1.0" encoding="UTF-8"?>
<svg width="49px" height="34px" viewBox="0 0 49 34" version="1.1" xmlns="http://www.w3.org/2000/svg" xmlns:xlink="http://www.w3.org/1999/xlink">
    <!-- Generator: Sketch 49 (51002) - http://www.bohemiancoding.com/sketch -->
    <title>visa</title>
    <desc>Created with Sketch.</desc>
    <defs></defs>
    <g id="e-commerce" stroke="none" stroke-width="1" fill="none" fill-rule="evenodd">
        <g id="Payment" transform="translate(-500.000000, -288.000000)" fill="#70BBFD">
            <g id="payment" transform="translate(266.000000, 179.000000)">
                <g id="methods" transform="translate(30.000000, 74.000000)">
                    <path d="M245.156,35.592 C246.468007,35.592 247.691994,35.9279966 248.828,36.6 C249.964006,37.2720034 250.859997,38.1679944 251.516,39.288 C252.172003,40.4080056 252.5,41.6399933 252.5,42.984 L252.5,61.416 C252.5,62.7600067 252.172003,63.9919944 251.516,65.112 C250.859997,66.2320056 249.964006,67.1279966 248.828,67.8 C247.691994,68.4720034 246.468007,68.808 245.156,68.808 L211.844,68.808 C210.531993,68.808 209.308006,68.4720034 208.172,67.8 C207.035994,67.1279966 206.140003,66.2320056 205.484,65.112 C204.827997,63.9919944 204.5,62.7600067 204.5,61.416 L204.5,42.984 C204.5,41.6399933 204.827997,40.4080056 205.484,39.288 C206.140003,38.1679944 207.035994,37.2720034 208.172,36.6 C209.308006,35.9279966 210.531993,35.592 211.844,35.592 L245.156,35.592 Z M215.012,47.928 L215.012,47.976 L214.916,47.976 C216.196006,48.5200027 217.219996,49.0799971 217.988,49.656 C218.980005,50.3920037 219.715998,51.3039946 220.196,52.392 C220.003999,51.3039946 219.780001,50.1840058 219.524,49.032 C219.46,48.7119984 219.324001,48.456001 219.116,48.264 C218.907999,48.071999 218.628002,47.976 218.276,47.976 C217.923998,47.976 216.836009,47.9600002 215.012,47.928 Z M221.348,56.376 C221.476001,56.4080002 221.572,56.3440008 221.636,56.184 L224.948,47.928 L222.788,47.928 C222.627999,47.928 222.516,47.9919994 222.452,48.12 L220.532,53.784 C220.371999,53.0159962 219.956003,52.2160042 219.284,51.384 C218.867998,50.8399973 218.484002,50.4160015 218.132,50.112 C217.779998,49.8079985 217.508001,49.6400002 217.316,49.608 L217.316,49.704 L218.996,56.184 C219.028,56.3120006 219.123999,56.376 219.284,56.376 L221.348,56.376 Z M227.972,48.984 L228.116,47.976 L227.972,47.928 L226.004,47.928 C225.875999,47.928 225.812,47.9919994 225.812,48.12 L224.468,56.376 L226.484,56.376 C226.676001,56.4080002 226.788,56.328001 226.82,56.136 L226.916,55.56 L227.972,48.984 Z M230.132,56.616 C231.604007,56.7120005 232.835995,56.2320053 233.828,55.176 C234.180002,54.7599979 234.38,54.2960026 234.428,53.784 C234.476,53.2719974 234.308002,52.8080021 233.924,52.392 C233.763999,52.1679989 233.444002,51.9120014 232.964,51.624 L231.668,50.904 C231.379999,50.711999 231.268,50.4720014 231.332,50.184 C231.396,49.8959986 231.587998,49.7200003 231.908,49.656 C232.548003,49.463999 233.123997,49.4799989 233.636,49.704 L234.356,50.04 L234.692,48.456 C234.724,48.263999 234.644001,48.1360003 234.452,48.072 C233.267994,47.6879981 232.132005,47.6559984 231.044,47.976 C230.307996,48.2000011 229.764002,48.5839973 229.412,49.128 C229.155999,49.5120019 229.028,49.9679974 229.028,50.496 C229.028,51.0240026 229.171999,51.4799981 229.46,51.864 C229.620001,52.0880011 229.859998,52.295999 230.18,52.488 L230.996,52.968 C231.412002,53.1920011 231.715999,53.3919991 231.908,53.568 C232.100001,53.7440009 232.164,53.9519988 232.1,54.192 C232.036,54.4320012 231.876001,54.5999995 231.62,54.696 C231.043997,54.888001 230.356004,54.888001 229.556,54.696 L228.5,54.408 L228.164,55.992 C228.132,56.1200006 228.195999,56.2159997 228.356,56.28 C228.900003,56.472001 229.491997,56.5839998 230.132,56.616 Z M240.644,56.376 L242.084,56.424 L242.084,56.088 L241.844,54.888 L241.556,53.736 L240.452,48.168 C240.42,48.0079992 240.324001,47.928 240.164,47.928 L238.196,47.928 C238.067999,47.928 237.972,47.9919994 237.908,48.12 L234.356,56.376 L236.42,56.376 C236.516,56.376 236.596,56.3120006 236.66,56.184 L236.996,55.368 C237.028,55.2399994 237.076,55.176 237.14,55.176 L239.828,55.176 L240.02,56.28 C240.052,56.3440003 240.116,56.376 240.212,56.376 L240.644,56.376 Z M238.82,50.52 L238.868,50.52 L239.492,53.544 L237.668,53.544 C237.732,53.4159994 238.115996,52.4080094 238.82,50.52 Z" id="visa"></path>
                </g>
            </g>
        </g>
    </g>
</svg>