<svg xmlns="http://www.w3.org/2000/svg" xmlns:xlink="http://www.w3.org/1999/xlink" width="128" height="108" viewBox="0 0 128 108">
  <defs>
    <rect id="white-a" width="128" height="128"/>
  </defs>
  <g fill="none" fill-rule="evenodd" transform="translate(0 -10)">
    <mask id="white-b" fill="#fff">
      <use xlink:href="#white-a"/>
    </mask>
    <g stroke="#FFF" stroke-linecap="round" stroke-linejoin="round" mask="url(#white-b)">
      <g stroke-width="2" transform="translate(0 11)">
        <circle cx="62.512" cy="39.69" r="15.876"/>
        <path d="M21.8294574 104.186047C19.4837654 103.43969 20.3410853 99.2248062 37.7054264 84.3410853 50.1085271 69.9534884 45.6434109 57.5503876 71.9379845 57.5503876 77.8914729 53.5813953 79.9528729 50.6102782 82.3565891 45.1472868 85.8968959 37.1011352 86.2655501 28.3549748 85.3333333 21.8294574 84.8372093 18.3565891 87.3178295 16.8682171 90.2945736 18.8527132 95.6832705 24.0071188 94.6292702 43.4236302 89.7984496 53.0852713 88.2035338 56.2751029 85.2242581 60.3878412 80.8606224 65.423486L80.8606261 65.4234892C80.5455397 65.7870995 80.372093 66.25211 80.372093 66.733246L80.372093 105.674419 50.1085271 105.674419 48.6368618 88.0092669C48.6322556 87.953993 48.5837133 87.9129187 48.5284394 87.9175248 48.5074233 87.9192761 48.4874918 87.9275989 48.471471 87.9413129 34.6649423 99.7598387 25.7842711 105.17475 21.8294574 104.186047zM86.8217054 17.8604651L82.3565891 11.9069767M0 79.379845L33.7364341 79.379845M83.3488372 79.379845L128 79.379845"/>
        <polyline points="33.736 74.419 .992 74.419 .992 0 127.008 0 127.008 74.419 83.349 74.419"/>
      </g>
    </g>
  </g>
</svg>
