<svg
  version="1.1"
  aria-labelledby="rails-logo-title"
  role="img"
  xmlns="http://www.w3.org/2000/svg"
  viewBox="0 0 64 39.28">
  <title id="rails-logo-title">Rails logo</title>
  <path d="M33,16.32c-8.24.73-18.34,8.21-24.27,18.09S2,52.64,2,52.64H24.27S20,33.2,34.12,25.32C37.19,23.83,47,18.24,63,30.09c0.51-.42,1-0.76,1-0.76S49.33,14.69,33,16.32ZM48.54,16a13.8,13.8,0,0,0-2.74-1l-0.11,1.86c0.93,0.31,1.83.65,2.74,1Zm-2.91,9.65a15.74,15.74,0,0,1,2.79.34l0.11-1.75a20,20,0,0,0-2.79-.37ZM35.3,15.08h0.28L35,13.36a22.51,22.51,0,0,0-2.71.17l0.54,1.66A23.82,23.82,0,0,1,35.3,15.08Zm1.35,10.38,0.65,1.95a17.85,17.85,0,0,1,2.46-1l-0.62-1.86A20.47,20.47,0,0,0,36.66,25.47ZM23.84,18L22.57,16.1c-0.71.37-1.44,0.76-2.2,1.21l1.3,2C22.41,18.83,23.11,18.41,23.84,18Zm5.78,12.7,1.35,2a15.67,15.67,0,0,1,1.66-2l-1.27-1.92A15.61,15.61,0,0,0,29.63,30.74Zm-3.25,6a26.83,26.83,0,0,0-.85,3.1l2.29,1.81a22.53,22.53,0,0,1,.59-3.3ZM13.18,26.43l-2-1.75c-0.73.71-1.44,1.41-2.09,2.12l2.17,1.86A28.57,28.57,0,0,1,13.18,26.43ZM4.66,39L1.41,37.85C0.87,39.07.28,40.48,0,41.24l3.25,1.19C3.61,41.47,4.2,40.08,4.66,39Zm20.46,8a28.67,28.67,0,0,0,.34,3.56l3.39,1.21a37.3,37.3,0,0,1-.68-3.67Z" transform="translate(0 -13.36)" fill="#cb2026"/>
</svg>
