<svg xmlns="http://www.w3.org/2000/svg" xmlns:xlink="http://www.w3.org/1999/xlink" width="24" height="24" viewBox="0 0 24 24">
  <defs>
    <path id="vimeo-square-a" d="M21.4285714,0 L2.57142857,0 C1.15178571,0 0,1.15178571 0,2.57142857 L0,21.4285714 C0,22.8482143 1.15178571,24 2.57142857,24 L21.4285714,24 C22.8482143,24 24,22.8482143 24,21.4285714 L24,2.57142857 C24,1.15178571 22.8482143,0 21.4285714,0 Z M20.5607143,8.01428571 C20.4857143,9.68035714 19.3178571,11.9678571 17.0625,14.8660714 C14.7321429,17.8928571 12.7607143,19.4089286 11.1482143,19.4089286 C10.1464286,19.4089286 9.30535714,18.4875 8.61428571,16.6446429 C7.26428571,11.7 6.69107143,8.80178571 5.57678571,8.80178571 C5.44821429,8.80178571 4.99821429,9.06964286 4.23214286,9.61071429 L3.42857143,8.57142857 C5.40535714,6.83571429 7.29107143,4.90714286 8.46964286,4.8 C9.80357143,4.67142857 10.6232143,5.58214286 10.9339286,7.5375 C12.0321429,14.4803571 12.5196429,15.5303571 14.5125,12.3857143 C15.2303571,11.25 15.6160714,10.3928571 15.6642857,9.79821429 C15.8464286,8.04107143 14.2928571,8.15892857 13.2428571,8.60892857 C14.0839286,5.85 15.6964286,4.51071429 18.0696429,4.58571429 C19.8321429,4.63928571 20.6625,5.78571429 20.5607143,8.01428571 Z"/>
  </defs>
  <g fill="none" fill-rule="evenodd">
    <mask id="vimeo-square-b" fill="#fff">
      <use xlink:href="#vimeo-square-a"/>
    </mask>
    <g fill="#FFF" fill-opacity=".5" mask="url(#vimeo-square-b)">
      <rect width="24" height="24"/>
    </g>
  </g>
</svg>
