<svg xmlns="http://www.w3.org/2000/svg" xmlns:xlink="http://www.w3.org/1999/xlink" width="24" height="24" viewBox="0 0 24 24">
  <defs>
    <path id="youtube-square-a" d="M10.0071429,9.1125 L15.1071429,12.0107143 L10.0071429,14.9089286 L10.0071429,9.1125 Z M24,2.57142857 L24,21.4285714 C24,22.8482143 22.8482143,24 21.4285714,24 L2.57142857,24 C1.15178571,24 0,22.8482143 0,21.4285714 L0,2.57142857 C0,1.15178571 1.15178571,0 2.57142857,0 L21.4285714,0 C22.8482143,0 24,1.15178571 24,2.57142857 Z M21.75,12.0160714 C21.75,12.0160714 21.75,8.82321429 21.3428571,7.29107143 C21.1178571,6.44464286 20.4589286,5.78035714 19.6178571,5.55535714 C18.1017857,5.14285714 12,5.14285714 12,5.14285714 C12,5.14285714 5.89821429,5.14285714 4.38214286,5.55535714 C3.54107143,5.78035714 2.88214286,6.44464286 2.65714286,7.29107143 C2.25,8.81785714 2.25,12.0160714 2.25,12.0160714 C2.25,12.0160714 2.25,15.2089286 2.65714286,16.7410714 C2.88214286,17.5875 3.54107143,18.225 4.38214286,18.45 C5.89821429,18.8571429 12,18.8571429 12,18.8571429 C12,18.8571429 18.1017857,18.8571429 19.6178571,18.4446429 C20.4589286,18.2196429 21.1178571,17.5821429 21.3428571,16.7357143 C21.75,15.2089286 21.75,12.0160714 21.75,12.0160714 Z"/>
  </defs>
  <g fill="none" fill-rule="evenodd">
    <mask id="youtube-square-b" fill="#fff">
      <use xlink:href="#youtube-square-a"/>
    </mask>
    <g fill="#FFF" fill-opacity=".5" mask="url(#youtube-square-b)">
      <rect width="24" height="24"/>
    </g>
  </g>
</svg>
