<svg xmlns="http://www.w3.org/2000/svg" xmlns:xlink="http://www.w3.org/1999/xlink" width="24" height="24" viewBox="0 0 24 24">
  <defs>
    <path id="twitter-square-a" d="M21.4285714,0 L2.57142857,0 C1.15178571,0 0,1.15178571 0,2.57142857 L0,21.4285714 C0,22.8482143 1.15178571,24 2.57142857,24 L21.4285714,24 C22.8482143,24 24,22.8482143 24,21.4285714 L24,2.57142857 C24,1.15178571 22.8482143,0 21.4285714,0 Z M18.8089286,8.50714286 C18.8196429,8.65714286 18.8196429,8.8125 18.8196429,8.9625 C18.8196429,13.6071429 15.2839286,18.9589286 8.82321429,18.9589286 C6.83035714,18.9589286 4.98214286,18.3803571 3.42857143,17.3839286 C3.7125,17.4160714 3.98571429,17.4267857 4.275,17.4267857 C5.91964286,17.4267857 7.43035714,16.8696429 8.63571429,15.9267857 C7.09285714,15.8946429 5.79642857,14.8821429 5.35178571,13.4892857 C5.89285714,13.5696429 6.38035714,13.5696429 6.9375,13.425 C5.33035714,13.0982143 4.125,11.6839286 4.125,9.975 L4.125,9.93214286 C4.59107143,10.1946429 5.1375,10.3553571 5.71071429,10.3767857 C4.73188294,9.72569826 4.14450396,8.62738002 4.14642857,7.45178571 C4.14642857,6.79821429 4.31785714,6.19821429 4.62321429,5.67857143 C6.35357143,7.81071429 8.95178571,9.20357143 11.8660714,9.35357143 C11.3678571,6.96964286 13.1517857,5.03571429 15.2946429,5.03571429 C16.3071429,5.03571429 17.2178571,5.45892857 17.8607143,6.14464286 C18.6535714,5.99464286 19.4142857,5.7 20.0892857,5.29821429 C19.8267857,6.1125 19.275,6.79821429 18.5464286,7.23214286 C19.2535714,7.15714286 19.9392857,6.95892857 20.5714286,6.68571429 C20.0946429,7.3875 19.4946429,8.00892857 18.8089286,8.50714286 Z"/>
  </defs>
  <g fill="none" fill-rule="evenodd">
    <mask id="twitter-square-b" fill="#fff">
      <use xlink:href="#twitter-square-a"/>
    </mask>
    <g fill="#FFF" fill-opacity=".5" mask="url(#twitter-square-b)">
      <rect width="24" height="24"/>
    </g>
  </g>
</svg>
